SplineFontDB: 3.0
FontName: Formata-Medium
FullName: Formata Medium
FamilyName: Formata
Weight: Medium
Copyright: Copyright (c) 1991, 1996, 1998, 1999 Adobe Systems Incorporated.  All Rights Reserved.Formata is either a registered trademark or trademark of Berthold Types Limited in the United States and/or other countries.
Version: 001.003
ItalicAngle: 0
UnderlinePosition: -100
UnderlineWidth: 50
Ascent: 749
Descent: 251
InvalidEm: 0
sfntRevision: 0x00010000
LayerCount: 2
Layer: 0 0 "Back" 1
Layer: 1 0 "Fore" 0
XUID: [1021 707 2037103528 15516]
UniqueID: 44384
StyleMap: 0x0020
FSType: 4
OS2Version: 2
OS2_WeightWidthSlopeOnly: 0
OS2_UseTypoMetrics: 0
CreationTime: 939399295
ModificationTime: 1505183048
PfmFamily: 17
TTFWeight: 500
TTFWidth: 5
LineGap: 170
VLineGap: 0
Panose: 2 11 6 0 0 0 0 0 0 0
OS2TypoAscent: 749
OS2TypoAOffset: 0
OS2TypoDescent: -251
OS2TypoDOffset: 0
OS2TypoLinegap: 218
OS2WinAscent: 967
OS2WinAOffset: 0
OS2WinDescent: 251
OS2WinDOffset: 0
HheadAscent: 798
HheadAOffset: 0
HheadDescent: -250
HheadDOffset: 0
OS2SubXSize: 500
OS2SubYSize: 500
OS2SubXOff: 0
OS2SubYOff: 250
OS2SupXSize: 500
OS2SupYSize: 500
OS2SupXOff: 0
OS2SupYOff: 500
OS2StrikeYSize: 50
OS2StrikeYPos: 329
OS2CapHeight: 709
OS2XHeight: 532
OS2Vendor: 'ADBE'
OS2CodePages: 00000001.00000000
OS2UnicodeRanges: 800000af.4000004a.00000000.00000000
Lookup: 258 0 0 "'kern' Horizontal Kerning in Latin lookup 0" { "'kern' Horizontal Kerning in Latin lookup 0 subtable"  } ['kern' ('latn' <'dflt' > ) ]
DEI: 91125
LangName: 1033 "" "Formata Regular" "Bold" "1.0;ADBE;Formata-Medium" "Formata-Medium" "OTF 1.0;PS 001.003;Core 1.0.22" "" "Please refer to the Copyright section for the font trademark attribution notices." "" "" "" "" "" "" "" "" "Formata" "Medium"
Encoding: UnicodeBmp
UnicodeInterp: none
NameList: AGL For New Fonts
DisplaySize: -48
AntiAlias: 1
FitToEm: 0
WinInfo: 8052 44 16
BeginPrivate: 10
BlueValues 39 [-15 0 706 721 530 545 677 691 782 798]
OtherBlues 27 [227 234 350 359 -251 -247]

StartChar: exclam
Encoding: 33 33 2
Width: 292
Flags: MW
HStem: -3 156
VStem: 81 7 244 7<6 153>
LayerCount: 2
Fore
SplineSet
244 153 m 1
 251 148 l 1
 251 6 l 1
 246 0 l 1
 87 -3 l 1
 81 4 l 1
 81 144 l 1
 88 151 l 1
 154 150 172 150 244 153 c 1
235 256 m 1
 229 248 l 1
 107 242 l 1
 102 249 l 1
 98 351 94 453 89 554 c 0
 83 647 79 680 72 749 c 1
 78 756 l 1
 253 771 l 1
 261 766 l 1
 238 437 237 377 235 256 c 1
EndSplineSet
Validated: 33
EndChar

StartChar: quotedbl
Encoding: 34 34 3
Width: 396
Flags: MW
HStem: 421 328<81 108 81 81 289 316 289 289>
VStem: 32 332 240 123<680 707>
LayerCount: 2
Fore
SplineSet
363 680 m 2xa0
 316 421 l 1
 289 421 l 1
 242 668 l 2
 241 676 240 683 240 690 c 0
 240 724 268 749 306 749 c 0
 343 749 356 724 358 720 c 0
 365 708 364 694 363 680 c 2xa0
155 680 m 2
 108 421 l 1
 81 421 l 1
 34 668 l 2
 33 676 32 683 32 690 c 0
 32 725 60 749 98 749 c 0
 126 749 141 733 146 726 c 0
 157 711 156 694 155 680 c 2
EndSplineSet
Validated: 33
EndChar

StartChar: numbersign
Encoding: 35 35 4
Width: 667
Flags: MW
HStem: -1 21G<134 236 134 134 334 435 334 334> 214 99<42 164 42 178 278 365 42 266 478 601> 408 100<64 190 64 203 64 292 306 391 505 623> 687 20G<230 334 334 334 431 532 532 532>
VStem: 42 581<214 508 313 508>
LayerCount: 2
Fore
SplineSet
466 214 m 1
 435 -1 l 1
 334 -1 l 1
 365 214 l 1
 266 214 l 1
 236 -1 l 1
 134 -1 l 1
 164 214 l 1
 42 214 l 1
 42 313 l 1
 178 313 l 1
 190 408 l 1
 64 408 l 1
 64 508 l 1
 203 508 l 1
 230 707 l 1
 334 707 l 1
 306 508 l 1
 404 508 l 1
 431 707 l 1
 532 707 l 1
 505 508 l 1
 623 508 l 1
 623 408 l 1
 492 408 l 1
 478 313 l 1
 601 313 l 1
 601 214 l 1
 466 214 l 1
278 313 m 1
 378 313 l 1
 391 408 l 1
 292 408 l 1
 278 313 l 1
EndSplineSet
Validated: 1
EndChar

StartChar: dollar
Encoding: 36 36 5
Width: 521
Flags: MW
HStem: -13 115<210 237> -5 21G<136 136> 578 113<188 280> 662 20G<379 379>
VStem: 50 152<494 518.5 494 535.5> 319 164<156.5 191.5>
LayerCount: 2
Fore
SplineSet
196 -79 m 1x9c
 190 -85 l 1
 121 -85 l 1
 117 -79 l 1xac
 136 -5 l 1
 92 6 82 9 44 29 c 1
 38 37 l 1
 47 156 l 1
 57 160 l 1
 102 127 114 122 165 109 c 1
 208 286 l 1
 136 335 111 352 89 380 c 0
 57 419 50 457 50 492 c 0
 50 579 107 691 269 691 c 0
 281 691 293 691 305 690 c 1
 316 751 l 1
 323 757 l 1
 392 756 l 1
 397 750 l 1x6c
 379 682 l 1
 414 676 422 673 460 659 c 1
 467 652 l 1
 452 536 l 1
 442 533 l 1
 400 558 391 562 352 571 c 1
 310 407 l 1
 340 388 359 376 383 359 c 0
 420 332 483 287 483 188 c 0
 483 124 450 48 363 9 c 0
 310 -14 259 -14 210 -13 c 1
 196 -79 l 1x9c
273 246 m 1
 237 102 l 1
 294 104 319 139 319 174 c 0
 319 209 291 231 273 246 c 1
246 447 m 1
 280 578 l 1
 259 577 236 576 218 554 c 0
 207 541 202 526 202 511 c 0
 202 477 228 459 246 447 c 1
EndSplineSet
Validated: 33
EndChar

StartChar: percent
Encoding: 37 37 6
Width: 917
Flags: MW
HStem: -8 78<701.5 737 701.5 801> 0 7 227 78<180.5 216 180.5 280.5> 372 78<711.5 747> 608 78<190.5 226> 659 20G<651 651>
VStem: 22 117<417 463 401.5 473> 257 117 543 117<181 227 165.5 237.5> 778 117
LayerCount: 2
Fore
SplineSet
374 464 m 0x7bc0
 375 380 366 227 195 227 c 0
 29 227 22 384 22 450 c 0
 22 496 25 549 47 594 c 0
 87 678 167 686 202 686 c 0
 372 686 373 522 374 464 c 0x7bc0
257 470 m 0
 256 532 252 608 200 608 c 0
 181 608 167 597 158 581 c 0
 139 546 139 469 139 457 c 0
 139 346 161 305 200 305 c 0
 232 305 259 328 257 470 c 0
895 228 m 0xbbc0
 896 143 886 -8 716 -8 c 0
 550 -8 543 147 543 215 c 0
 543 260 546 313 568 358 c 0
 608 442 688 450 723 450 c 0
 893 450 894 286 895 228 c 0xbbc0
778 234 m 0
 777 296 773 372 721 372 c 0
 702 372 688 361 679 345 c 0
 660 310 660 233 660 221 c 0
 660 110 682 70 721 70 c 0
 753 70 780 93 778 234 c 0
375 7 m 1x77c0
 368 0 l 1
 324 0 319 0 267 -1 c 1
 262 7 l 1
 311 113 358 220 404 328 c 0
 452 441 499 555 544 670 c 1
 551 677 l 1
 605 678 611 678 651 679 c 1
 655 670 l 1
 601 550 525 385 375 7 c 1x77c0
EndSplineSet
Validated: 33
EndChar

StartChar: ampersand
Encoding: 38 38 7
Width: 667
Flags: MW
HStem: -12 129<248 296 248 297> -3 21G 3 15<640.5 663> 614 104<296.5 321.5>
VStem: 24 168<175.5 216 175.5 233> 111 147<549 575.5 549 589.5> 361 135<543.5 581.5>
LayerCount: 2
Fore
SplineSet
663 18 m 1x36
 655 3 l 1x36
 626 3 596 3 567 2 c 0
 538 1 510 -1 481 -3 c 1
 472 3 l 1x5a
 435 53 l 1
 405 31 348 -12 246 -12 c 0
 169 -12 116 8 74 52 c 0
 49 78 24 122 24 178 c 0x9a
 24 288 106 342 176 387 c 1
 155 415 111 470 111 542 c 0
 111 637 192 718 314 718 c 0
 449 718 496 627 496 564 c 0
 496 468 409 403 377 380 c 1
 475 254 l 1
 516 310 534 345 557 413 c 1
 567 414 l 1
 650 311 l 1
 652 302 l 1
 624 248 592 200 552 156 c 1
 578 121 659 22 663 18 c 1x36
302 476 m 1
 327 496 361 523 361 564 c 0
 361 599 332 614 311 614 c 0
 282 614 258 590 258 561 c 0
 258 537 267 524 302 476 c 1
360 149 m 1x9a
 255 283 l 1
 227 263 192 238 192 194 c 0
 192 157 221 117 275 117 c 0
 317 117 341 135 360 149 c 1x9a
EndSplineSet
Validated: 1
EndChar

StartChar: quoteright
Encoding: 8217 8217 8
Width: 250
Flags: MW
HStem: 504 261<11 240> 505 257.5
VStem: 7 237
LayerCount: 2
Fore
SplineSet
240 765 m 1x60
 244 758 l 1
 223 716 215 700 187 638 c 0
 168 597 149 554 130 512 c 1
 124 506 l 1
 11 504 l 1
 7 510 l 1
 44 627 51 652 72 753 c 1
 78 760 l 1
 240 765 l 1x60
EndSplineSet
Validated: 1
EndChar

StartChar: parenleft
Encoding: 40 40 9
Width: 354
Flags: MW
HStem: -218 983<245 345>
VStem: 55 153<180.5 322.5 180.5 389.5>
LayerCount: 2
Fore
SplineSet
343 -206 m 1
 337 -215 l 1
 245 -218 l 1
 238 -212 l 1
 168 -113 55 47 55 276 c 0
 55 503 183 685 244 760 c 1
 252 764 l 1
 345 765 l 1
 350 756 l 1
 333 725 312 687 283 614 c 0
 236 493 208 381 208 264 c 0
 208 97 265 -45 343 -206 c 1
EndSplineSet
Validated: 1
EndChar

StartChar: parenright
Encoding: 41 41 10
Width: 354
Flags: MW
HStem: 753 10.5
VStem: 146 153<189.5 374.5>
LayerCount: 2
Fore
SplineSet
11 753 m 1
 17 762 l 1
 109 765 l 1
 117 759 l 1
 186 661 299 500 299 270 c 0
 299 109 233 -58 111 -213 c 1
 102 -217 l 1
 9 -218 l 1
 4 -209 l 1
 54 -117 146 80 146 282 c 0
 146 467 71 629 11 753 c 1
EndSplineSet
Validated: 1
EndChar

StartChar: asterisk
Encoding: 42 42 11
Width: 458
Flags: MW
HStem: 688 20G<87 87> 692 20G<368 368> 759 7
VStem: 29 400<510 622>
LayerCount: 2
Fore
SplineSet
426 517 m 1x70
 429 510 l 1
 381 422 l 1
 373 420 l 1
 263 502 l 1
 288 372 l 1
 282 366 l 1
 179 363 l 1
 174 368 l 1
 190 497 l 1
 143 461 138 458 89 418 c 1
 82 419 l 1
 30 505 l 1
 32 512 l 1
 154 564 l 1
 32 615 l 1
 29 622 l 1
 54 661 59 669 79 707 c 1
 87 708 l 1
 131 674 135 671 193 630 c 1xb0
 172 759 l 1
 178 765 l 1
 278 767 l 1
 283 761 l 1
 265 633 l 1
 368 712 l 1
 376 711 l 1
 396 673 402 664 426 625 c 1
 425 618 l 1
 303 563 l 1
 426 517 l 1x70
EndSplineSet
Validated: 1
EndChar

StartChar: plus
Encoding: 43 43 12
Width: 667
Flags: MW
HStem: 0 21G<283 386 283 283> 240 102<42 283 42 283 386 625>
VStem: 283 103<0 240 0 240 342 583>
LayerCount: 2
Fore
SplineSet
386 240 m 1
 386 0 l 1
 283 0 l 1
 283 240 l 1
 42 240 l 1
 42 342 l 1
 283 342 l 1
 283 583 l 1
 386 583 l 1
 386 342 l 1
 625 342 l 1
 625 240 l 1
 386 240 l 1
EndSplineSet
Validated: 1
EndChar

StartChar: comma
Encoding: 44 44 13
Width: 250
Flags: MW
HStem: -119 274<0 227>
VStem: -4 235
LayerCount: 2
Fore
SplineSet
227 155 m 1
 231 148 l 1
 187 51 174 19 123 -110 c 1
 116 -115 l 1
 0 -119 l 1
 -4 -112 l 1
 29 2 35 29 53 143 c 1
 59 149 l 1
 141 150 157 151 227 155 c 1
EndSplineSet
Validated: 1
EndChar

StartChar: hyphen
Encoding: 45 45 14
AltUni2: 0000ad.ffffffff.0
Width: 375
Flags: MW
HStem: 221 124<166 205.5>
VStem: 34 307<225 342>
LayerCount: 2
Fore
SplineSet
336 347 m 1
 341 342 l 1
 334 226 l 1
 328 220 l 1
 279 220 230 221 181 221 c 0
 128 221 95 220 39 219 c 1
 34 225 l 1
 40 340 l 1
 47 346 l 1
 94 346 142 345 190 345 c 0
 249 345 288 346 336 347 c 1
EndSplineSet
Validated: 1
EndChar

StartChar: period
Encoding: 46 46 15
Width: 250
Flags: MW
HStem: -3 155.5
VStem: 40 170
LayerCount: 2
Fore
SplineSet
204 154 m 1
 209 148 l 1
 211 7 l 1
 206 1 l 1
 46 -3 l 1
 41 4 l 1
 39 143 l 1
 44 151 l 1
 204 154 l 1
EndSplineSet
Validated: 1
EndChar

StartChar: slash
Encoding: 47 47 16
Width: 479
Flags: MW
HStem: -145 8
VStem: -17 508
LayerCount: 2
Fore
SplineSet
114 -137 m 1
 107 -144 l 1
 -11 -146 l 1
 -17 -137 l 1
 186 322 271 513 362 758 c 1
 370 765 l 1
 487 765 l 1
 491 757 l 1
 229 152 193 69 114 -137 c 1
EndSplineSet
Validated: 1
EndChar

StartChar: zero
Encoding: 48 48 17
Width: 583
Flags: MW
HStem: -13 110<285.5 302 285.5 322.5> 580 111<266.5 334>
VStem: 35 171<310.5 388> 377 171
LayerCount: 2
Fore
SplineSet
548 351 m 0
 549 299 551 144 474 60 c 0
 423 4 353 -13 292 -13 c 0
 121 -13 35 92 35 329 c 0
 35 447 53 503 63 529 c 0
 115 670 234 691 294 691 c 0
 540 691 546 458 548 351 c 0
377 360 m 0
 377 442 373 580 295 580 c 0
 238 580 206 516 206 339 c 0
 206 282 212 199 227 156 c 0
 245 107 277 97 294 97 c 0
 310 97 345 104 361 163 c 0
 371 202 377 259 377 360 c 0
EndSplineSet
Validated: 33
EndChar

StartChar: one
Encoding: 49 49 18
Width: 583
Flags: MW
HStem: -3 7<209 214> 0 21G<381 381> 667 20G<385 385>
VStem: 215 165<330 349.5 206.5 422>
LayerCount: 2
Fore
SplineSet
387 7 m 1xb0
 381 0 l 1x70
 308 1 281 0 214 -3 c 1
 209 4 l 1
 212 139 215 265 215 395 c 0
 215 449 215 502 214 556 c 1
 122 546 l 1
 116 552 l 1
 123 653 l 1
 130 660 l 1
 379 693 l 1
 385 687 l 1
 383 552 380 417 380 282 c 0
 380 131 383 83 387 7 c 1xb0
EndSplineSet
Validated: 33
EndChar

StartChar: two
Encoding: 50 50 19
Width: 583
Flags: MW
HStem: 0 133 558 132<201 244.5>
VStem: 317 177<422.5 472>
LayerCount: 2
Fore
SplineSet
516 136 m 1
 521 129 l 1
 516 8 l 1
 509 0 l 1
 25 0 l 1
 20 10 l 1
 59 56 107 116 186 214 c 0
 277 327 317 391 317 453 c 0
 317 491 289 558 200 558 c 0
 124 558 77 521 46 495 c 1
 37 501 l 1
 44 634 l 1
 49 641 l 1
 110 668 160 690 242 690 c 0
 286 690 390 686 454 599 c 0
 482 562 494 514 494 471 c 0
 494 374 433 301 358 213 c 2
 288 130 l 1
 516 136 l 1
EndSplineSet
Validated: 1
EndChar

StartChar: three
Encoding: 51 51 20
Width: 583
Flags: MW
HStem: -14 118<177 227 171.5 327> 549 128 669 8<53 482 59 487>
VStem: 334 180<204.5 237.5>
LayerCount: 2
Fore
SplineSet
47 553 m 1xd0
 53 669 l 1
 59 677 l 1xd0
 482 677 l 1
 487 669 l 1xb0
 478 652 430 565 419 545 c 0
 388 488 374 462 353 421 c 1
 395 412 451 397 490 329 c 0
 508 299 514 265 514 230 c 0
 514 102 428 -14 226 -14 c 0
 128 -14 77 10 53 21 c 1
 48 29 l 1
 56 149 l 1
 64 153 l 1
 103 128 138 104 205 104 c 0
 249 104 280 115 304 139 c 0
 326 162 334 195 334 214 c 0
 334 261 309 328 206 328 c 0
 183 328 170 324 152 318 c 1
 142 329 l 1
 217 472 226 488 256 551 c 1
 52 547 l 1
 47 553 l 1xd0
EndSplineSet
Validated: 1
EndChar

StartChar: four
Encoding: 52 52 21
Width: 583
Flags: MW
HStem: -3 7<296 302> 0 21G<458 458> 145 7<34 300 34 39> 565 114 659 20G<459 459>
VStem: 298 165 304 162
LayerCount: 2
Fore
SplineSet
461 145 m 1xac
 465 7 l 1
 458 0 l 1x6c
 389 1 365 0 302 -3 c 1
 296 4 l 1
 300 145 l 1xac
 39 145 l 1
 34 152 l 1
 37 243 l 1
 187 543 203 576 245 669 c 1
 253 676 l 1
 459 679 l 1
 466 673 l 1
 460 464 460 411 461 261 c 1
 533 263 l 1
 538 257 l 1
 532 151 l 1
 526 144 l 1xaa
 461 145 l 1xac
176 261 m 1
 302 263 l 1
 306 430 l 1
 311 565 l 1
 283 495 274 474 245 411 c 2xb2
 176 261 l 1
EndSplineSet
Validated: 33
EndChar

StartChar: five
Encoding: 53 53 22
Width: 583
Flags: MW
HStem: -13 122<198 258 193 351> 337 125<182.5 359.5> 549 128
VStem: 350 176<190 254>
LayerCount: 2
Fore
SplineSet
233 552 m 1
 225 457 l 1
 249 460 265 462 285 462 c 0
 434 462 526 369 526 235 c 0
 526 138 469 -13 233 -13 c 0
 163 -13 125 -2 66 17 c 1
 61 25 l 1
 66 79 67 93 70 147 c 1
 79 151 l 1
 120 124 168 109 218 109 c 0
 298 109 350 157 350 223 c 0
 350 285 304 337 213 337 c 0
 152 337 116 320 84 305 c 1
 75 310 l 1
 89 491 92 533 98 669 c 1
 105 677 l 1
 486 677 l 1
 491 672 l 1
 482 552 l 1
 475 546 l 1
 233 552 l 1
EndSplineSet
Validated: 1
EndChar

StartChar: six
Encoding: 54 54 23
Width: 583
Flags: MW
HStem: -13 113<289 313.5 289 375> 321 128<308 328.5> 572 119<348.5 390.5 249.5 397.5>
VStem: 40 170<235 430> 394 158<156.5 238.5>
LayerCount: 2
Fore
SplineSet
493 547 m 1
 482 541 l 1
 460 553 426 572 369 572 c 0
 328 572 305 562 293 556 c 0
 227 521 216 455 207 402 c 1
 232 420 271 449 345 449 c 0
 456 449 552 367 552 221 c 0
 552 66 446 -13 304 -13 c 0
 42 -13 40 242 40 319 c 0
 40 541 135 691 364 691 c 0
 417 691 453 682 495 673 c 1
 500 665 l 1
 493 547 l 1
210 254 m 0
 210 216 211 181 225 154 c 0
 241 121 272 100 306 100 c 0
 321 100 394 105 394 208 c 0
 394 269 357 321 300 321 c 0
 229 321 210 256 210 254 c 0
EndSplineSet
Validated: 1
EndChar

StartChar: seven
Encoding: 55 55 24
Width: 583
Flags: MW
HStem: -3 8<128 134> 0 21G<319 319> 548 131 670 9<535 541>
VStem: 50 491<552 670>
LayerCount: 2
Fore
SplineSet
535 679 m 1xa8
 541 670 l 1
 464 456 384 224 348 91 c 0
 340 63 333 35 326 7 c 1
 319 0 l 1x58
 240 1 210 0 134 -3 c 1
 128 5 l 1
 151 64 311 468 341 550 c 1
 56 546 l 1
 50 552 l 1
 61 670 l 1
 67 677 l 1
 274 676 341 676 535 679 c 1xa8
EndSplineSet
Validated: 33
EndChar

StartChar: eight
Encoding: 56 56 25
Width: 583
Flags: MW
HStem: -13 114<265 313.5 265 315.5> 302 110<276 306> 586 104<277 303.5>
VStem: 41 171<177 233 177 253.5> 53 161<466 532 466 562> 365 161<506 506> 370 173
LayerCount: 2
Fore
SplineSet
433 366 m 1xec
 462 354 488 342 512 306 c 0
 538 266 543 220 543 194 c 0
 543 147 526 69 446 23 c 0
 402 -3 342 -13 289 -13 c 0
 155 -13 41 52 41 196 c 0xf2
 41 311 111 347 144 364 c 1
 114 380 53 412 53 504 c 0
 53 620 154 690 295 690 c 0
 480 690 526 581 526 506 c 0
 526 471 514 436 492 409 c 0
 472 385 453 376 433 366 c 1xec
365 506 m 0
 361 569 317 586 290 586 c 0
 264 586 214 566 214 498 c 0
 214 434 261 412 291 412 c 0
 334 412 368 448 365 506 c 0
370 203 m 0xf2
 369 282 319 302 293 302 c 0
 250 302 212 265 212 201 c 0
 212 153 236 101 294 101 c 0
 333 101 371 131 370 203 c 0xf2
EndSplineSet
Validated: 33
EndChar

StartChar: nine
Encoding: 57 57 26
Width: 583
Flags: MW
HStem: -14 119<195.5 227 185.5 323.5> 228 128<258 275.5> 579 111<265 290 197 296>
VStem: 31 158<434 480.5 434 525.5> 370 174
LayerCount: 2
Fore
SplineSet
90 130 m 1
 101 135 l 1
 122 125 157 105 214 105 c 0
 240 105 267 109 290 121 c 0
 357 156 369 223 377 275 c 1
 353 257 313 228 238 228 c 0
 136 228 31 299 31 460 c 0
 31 591 117 690 277 690 c 0
 303 690 330 687 355 681 c 0
 487 648 544 529 544 358 c 0
 544 110 426 -14 221 -14 c 0
 170 -14 133 -6 88 4 c 1
 83 11 l 1
 90 130 l 1
374 423 m 0
 375 432 372 474 370 487 c 0
 359 546 317 579 275 579 c 0
 255 579 216 571 198 524 c 0
 192 508 189 491 189 470 c 0
 189 398 233 356 283 356 c 0
 346 356 371 408 374 423 c 0
EndSplineSet
Validated: 33
EndChar

StartChar: colon
Encoding: 58 58 27
Width: 292
Flags: MW
HStem: -3 155.5 377 155
VStem: 80 171.5 244 7
LayerCount: 2
Fore
SplineSet
244 154 m 1xd0
 250 148 l 1
 252 7 l 1
 247 1 l 1
 87 -3 l 1
 82 4 l 1
 79 143 l 1
 84 151 l 1
 244 154 l 1xd0
246 532 m 1
 251 526 l 1
 252 384 l 1
 247 379 l 1
 85 375 l 1
 80 381 l 1
 80 521 l 1
 85 528 l 1xe0
 246 532 l 1
EndSplineSet
Validated: 1
EndChar

StartChar: semicolon
Encoding: 59 59 28
Width: 292
Flags: MW
HStem: 148 7<253 258> 376 156
VStem: 82 171<384 521 521 521>
LayerCount: 2
Fore
SplineSet
253 155 m 1
 258 148 l 1
 214 53 200 21 150 -110 c 1
 142 -115 l 1
 26 -119 l 1
 22 -112 l 1
 56 2 62 30 79 143 c 1
 85 149 l 1
 167 150 183 151 253 155 c 1
247 532 m 1
 253 526 l 1
 253 384 l 1
 248 378 l 1
 87 374 l 1
 82 380 l 1
 82 521 l 1
 87 527 l 1
 247 532 l 1
EndSplineSet
Validated: 1
EndChar

StartChar: less
Encoding: 60 60 29
Width: 667
Flags: MW
HStem: -3 21G<667 667> 352 21G<138 138> 689 20G<667 667>
VStem: 0 667<-3 404 -3 404>
LayerCount: 2
Fore
SplineSet
667 109 m 1
 667 -3 l 1
 0 300 l 1
 0 404 l 1
 667 709 l 1
 667 596 l 1
 138 352 l 1
 667 109 l 1
EndSplineSet
Validated: 1
EndChar

StartChar: equal
Encoding: 61 61 30
Width: 667
Flags: MW
HStem: 146 103<0 667 0 667> 334 103<0 667 0 667>
VStem: 0 667<146 249 146 249 334 437 146 437>
LayerCount: 2
Fore
SplineSet
667 249 m 1
 667 146 l 1
 0 146 l 1
 0 249 l 1
 667 249 l 1
667 437 m 1
 667 334 l 1
 0 334 l 1
 0 437 l 1
 667 437 l 1
EndSplineSet
Validated: 1
EndChar

StartChar: greater
Encoding: 62 62 31
Width: 667
Flags: MW
HStem: -3 21G<0 0> 352 21G<528 528> 689 20G<0 0>
VStem: 0 667<-3 300 109 300 300 709 300 709>
LayerCount: 2
Fore
SplineSet
667 300 m 1
 0 -3 l 1
 0 109 l 1
 528 352 l 1
 0 596 l 1
 0 709 l 1
 667 404 l 1
 667 300 l 1
EndSplineSet
Validated: 1
EndChar

StartChar: question
Encoding: 63 63 32
Width: 458
Flags: MW
HStem: -3 155.5 231 21G<131 131> 235 21G<240.5 274> 646 125<164.5 181.5>
VStem: 113.5 170.5 260 168<533 578>
LayerCount: 2
Fore
SplineSet
278 154 m 1xb8
 283 148 l 1
 285 7 l 1
 280 1 l 1
 120 -3 l 1
 115 4 l 1
 112 143 l 1
 118 151 l 1
 278 154 l 1xb8
280 244 m 1
 274 235 l 1xb8
 207 235 193 234 131 231 c 1
 126 238 l 1
 133 287 138 300 174 354 c 2
 209 404 l 2
 231 438 260 482 260 541 c 0
 260 615 209 646 154 646 c 0
 95 646 58 620 29 599 c 1
 20 605 l 1
 25 730 l 1
 31 738 l 1
 86 756 130 771 199 771 c 0
 259 771 295 760 320 748 c 0
 416 704 428 610 428 572 c 0
 428 494 391 436 362 392 c 2xd4
 326 338 l 2
 294 293 290 287 280 244 c 1
EndSplineSet
Validated: 1
EndChar

StartChar: at
Encoding: 64 64 33
Width: 896
Flags: MW
HStem: -124 67<383.5 518 383.5 532.5> 68 72<610 641 610 652> 69 76<382.5 399> 444 76<416.5 475> 646 66<420.5 575>
VStem: 69 69<125.5 348.5 125.5 365.5> 236 91<204.5 281 204.5 306.5> 506 85 756 71<343.5 499.5 330.5 505>
LayerCount: 2
Fore
SplineSet
783 89 m 1xdf80
 823 38 l 1
 731 -51 610 -124 455 -124 c 0
 295 -124 69 -35 69 236 c 0
 69 495 271 712 526 712 c 0
 731 712 827 575 827 424 c 0
 827 237 712 68 592 68 c 0
 552 68 527 90 517 107 c 0xdf80
 509 121 507 132 506 145 c 1
 469 98 427 69 371 69 c 0xbf80
 305 69 236 116 236 234 c 0
 236 379 331 520 450 520 c 0
 524 520 549 472 561 448 c 1
 573 499 l 1
 652 499 l 1
 619 345 l 2
 609 298 591 215 591 175 c 0
 591 151 604 140 616 140 c 0
 666 140 756 269 756 418 c 0
 756 592 628 646 522 646 c 0
 319 646 138 461 138 236 c 0
 138 15 314 -57 453 -57 c 0
 583 -57 697 4 783 89 c 1xdf80
532 349 m 0
 534 414 493 444 457 444 c 0
 376 444 327 324 327 238 c 0
 327 171 366 145 399 145 c 0xbf80
 466 145 531 242 532 349 c 0
EndSplineSet
Validated: 33
EndChar

StartChar: A
Encoding: 65 65 34
Width: 667
Flags: MW
HStem: -3 21G<484 484> 0 21G<6 162 6 6 658 658> 188 121<253 405 253 434 218 405> 595 111<241 338> 686 20G<241 294.5> 689 20G<464 464>
VStem: 2 661<7 8>
LayerCount: 2
Fore
SplineSet
464 709 m 1x66
 471 703 l 1
 528 483 542 436 663 8 c 1
 658 0 l 1x66
 577 1 557 0 484 -3 c 1
 477 3 l 1xa6
 434 188 l 1
 218 188 l 1
 169 6 l 1
 162 0 l 1
 6 0 l 1
 2 7 l 1
 149 429 181 530 234 700 c 1
 241 706 l 1x6a
 348 706 368 706 464 709 c 1x66
253 309 m 1
 405 309 l 1
 368 465 l 1
 338 595 l 1x72
 303 478 l 1
 253 309 l 1
EndSplineSet
Validated: 33
EndChar

StartChar: B
Encoding: 66 66 35
Width: 646
Flags: MW
HStem: 0 112<239 239 239 246> 304 119<239 259> 599 111<321 332> 700 8
VStem: 68 171<112 423 423 498> 408 175<529.5 547.5> 428 185<189 223>
LayerCount: 2
Fore
SplineSet
246 0 m 2xda
 72 0 l 1
 65 4 l 1
 67 146 68 287 68 429 c 0
 68 567 67 604 63 700 c 1
 69 706 l 1
 209 708 l 2
 243 709 304 710 338 710 c 0
 436 710 501 698 543 653 c 0
 575 617 583 573 583 541 c 0
 583 518 578 494 567 471 c 0xdc
 541 418 501 400 467 386 c 1
 488 382 510 378 529 368 c 0
 586 340 613 281 613 217 c 0
 613 161 595 95 529 48 c 0
 454 -4 339 -2 246 0 c 2xda
239 304 m 1
 239 112 l 1
 282 111 336 111 366 121 c 0
 403 134 428 162 428 207 c 0
 428 239 417 271 388 289 c 0xea
 359 306 315 306 239 304 c 1
239 598 m 1
 239 423 l 1
 279 423 332 423 357 434 c 0
 369 440 408 462 408 515 c 0xec
 408 580 359 599 305 599 c 0
 288 599 260 598 239 598 c 1
EndSplineSet
Validated: 33
EndChar

StartChar: C
Encoding: 67 67 36
Width: 604
Flags: MW
HStem: -15 138<365 445> 587 134<339.5 435 261.5 458.5> 659 20G<580 580>
VStem: 42 186<279 393 279 433.5>
LayerCount: 2
Fore
SplineSet
579 179 m 1xd0
 586 175 l 1
 579 26 l 1
 574 20 l 1
 542 7 487 -15 403 -15 c 0
 159 -15 42 154 42 346 c 0
 42 521 132 721 391 721 c 0xd0
 479 721 540 698 576 684 c 1
 580 679 l 1xb0
 571 541 l 1
 562 539 l 1
 537 558 496 587 421 587 c 0
 258 587 228 436 228 350 c 0
 228 208 308 123 422 123 c 0
 505 123 556 161 579 179 c 1xd0
EndSplineSet
Validated: 1
EndChar

StartChar: D
Encoding: 68 68 37
Width: 708
Flags: MW
HStem: -1 130<254 270 243 323> 580 131<292 332.5> 700 7
VStem: 67 173<368 381.5> 482 184<349.5 419 349.5 473.5>
LayerCount: 2
Fore
SplineSet
188 0 m 2xd8
 70 0 l 1
 64 4 l 1
 66 86 67 145 67 243 c 0
 67 520 63 604 59 700 c 1
 65 706 l 1xb8
 171 707 l 2
 217 709 263 711 309 711 c 0
 423 711 552 707 620 583 c 0
 645 538 666 466 666 372 c 0
 666 327 660 247 633 181 c 0
 560 3 379 -1 267 -1 c 0
 241 -1 214 -1 188 0 c 2xd8
243 129 m 1
 297 129 366 129 411 166 c 0
 435 186 482 242 482 367 c 0
 482 580 363 580 302 580 c 0
 282 580 261 579 241 578 c 1xd8
 240 524 240 470 240 416 c 0
 240 320 241 227 243 129 c 1
EndSplineSet
Validated: 1
EndChar

StartChar: E
Encoding: 69 69 38
Width: 562
Flags: MW
HStem: 0 128<245 309 245 510> 303 123 583 123<243 299.5>
VStem: 70 173<303 303 424 432>
LayerCount: 2
Fore
SplineSet
519 135 m 1
 525 128 l 1
 518 6 l 1
 510 0 l 1
 70 0 l 1
 65 4 l 1
 68 109 70 172 70 298 c 0
 70 566 68 603 62 700 c 1
 68 706 l 1
 507 706 l 1
 512 702 l 1
 505 586 l 1
 500 580 l 1
 379 583 356 583 243 583 c 1
 243 424 l 1
 485 428 l 1
 490 422 l 1
 484 309 l 1
 477 303 l 1
 243 303 l 1
 245 128 l 1
 373 128 401 129 519 135 c 1
EndSplineSet
Validated: 1
EndChar

StartChar: F
Encoding: 70 70 39
Width: 521
Flags: MW
HStem: 0 21G<204 248> 288 125 574.5 134.5
VStem: 69 174<409 435.5>
LayerCount: 2
Fore
SplineSet
461 288 m 1
 242 288 l 1
 245 156 246 121 253 6 c 1
 248 0 l 1
 160 0 143 0 70 -3 c 1
 65 2 l 1
 67 117 69 232 69 347 c 0
 69 524 65 603 59 701 c 1
 65 707 l 1
 281 706 334 706 499 709 c 1
 505 704 l 1
 494 580 l 1
 488 573 l 1
 243 576 l 1
 243 409 l 1
 471 417 l 1
 476 411 l 1
 468 294 l 1
 461 288 l 1
EndSplineSet
Validated: 33
EndChar

StartChar: G
Encoding: 71 71 40
Width: 708
Flags: MW
HStem: -15 137<386 424 332.5 468.5> 346 7.5 349 21G<657 657> 589 132<375 463 354 476>
VStem: 42 185<307.5 377.5> 477 178<152 346> 606 8<528 531>
LayerCount: 2
Fore
SplineSet
655 198 m 2xbc
 655 175 l 2
 655 129 657 83 658 37 c 1
 653 29 l 1xbc
 583 6 520 -15 417 -15 c 0
 355 -15 312 -6 283 2 c 0
 244 13 171 37 112 113 c 0
 67 171 42 250 42 344 c 0
 42 411 57 492 93 555 c 0
 172 689 297 721 411 721 c 0
 515 721 582 693 624 675 c 1
 629 669 l 1
 621 609 619 593 614 531 c 1
 606 528 l 1xba
 559 559 514 589 438 589 c 0
 312 589 227 503 227 345 c 0
 227 270 255 122 410 122 c 0
 438 122 458 127 485 133 c 1
 487 224 486 248 477 346 c 1
 482 352 l 1xdc
 652 355 l 1
 657 349 l 1
 656 298 655 248 655 198 c 2xbc
EndSplineSet
Validated: 33
EndChar

StartChar: H
Encoding: 72 72 41
Width: 729
Flags: MW
HStem: -3 21G<70 70 488 488> 0 21G<249 249 668 668> 314 124<346.5 374.5 334.5 386> 686 20G<64 107.5 482 524> 689 20G<243 243 659 659>
VStem: 69 178 483 179
LayerCount: 2
Fore
SplineSet
659 709 m 1x6e
 664 703 l 1
 663 626 662 579 662 509 c 0
 662 341 665 174 673 6 c 1
 668 0 l 1x6e
 583 1 563 0 488 -3 c 1
 483 3 l 1xae
 488 144 488 177 486 312 c 1
 446 313 406 314 366 314 c 0
 327 314 290 313 246 311 c 1
 247 166 248 130 254 6 c 1
 249 0 l 1x6e
 161 1 143 0 70 -3 c 1
 65 3 l 1
 67 87 69 136 69 226 c 0
 69 474 63 597 58 700 c 1
 64 706 l 1xb6
 151 706 166 706 243 709 c 1
 248 703 l 1x6e
 246 439 l 1
 281 439 317 438 352 438 c 0
 397 438 441 439 485 440 c 1
 484 558 484 587 477 700 c 1
 482 706 l 1x76
 566 706 579 706 659 709 c 1x6e
EndSplineSet
Validated: 33
EndChar

StartChar: I
Encoding: 73 73 42
Width: 313
Flags: MW
HStem: -3 21G<68 68> 0 21G<204.5 246> 686 20G<64 64> 700 9
VStem: 69 176<227 358 216.5 413.5>
LayerCount: 2
Fore
SplineSet
245 709 m 1x58
 250 703 l 1
 247 565 245 427 245 289 c 0
 245 144 247 98 252 6 c 1
 246 0 l 1x58
 163 0 143 0 68 -3 c 1
 63 3 l 1
 67 107 69 168 69 286 c 0
 69 541 66 592 60 700 c 1
 64 706 l 1xa8
 136 705 159 705 245 709 c 1x58
EndSplineSet
Validated: 33
EndChar

StartChar: J
Encoding: 74 74 43
Width: 354
Flags: MW
HStem: -6 133<58.5 78.5 32.5 183> 686 20G<113 154.5> 689 20G<289 289>
VStem: 117 177<305 347 347 362.5>
LayerCount: 2
Fore
SplineSet
3 -2 m 1xb0
 -2 5 l 1
 -2 128 l 1
 4 134 l 1
 17 130 25 127 40 127 c 0
 117 127 117 198 117 290 c 0
 117 435 113 558 108 700 c 1
 113 706 l 1xd0
 196 706 212 706 289 709 c 1
 294 703 l 1
 294 347 l 1
 294 305 l 2
 295 280 296 255 296 230 c 0
 296 130 296 -6 70 -6 c 0
 47 -6 28 -4 3 -2 c 1xb0
EndSplineSet
Validated: 1
EndChar

StartChar: K
Encoding: 75 75 44
Width: 646
Flags: MW
HStem: -4 21G<461 461> -3 21G<70 70> 0 21G<207.5 243> 356 21G 686 20G<64 64 446 446> 700 9
VStem: 69 172.5
LayerCount: 2
Fore
SplineSet
634 709 m 1x36
 637 699 l 1
 560 613 532 577 409 402 c 1
 469 298 576 129 668 14 c 1
 664 3 l 1
 461 -4 l 1
 454 1 l 1x96
 416 71 395 111 308 251 c 0
 270 312 264 320 240 356 c 1
 241 182 242 146 248 6 c 1
 243 0 l 1x36
 172 0 148 0 70 -3 c 1
 65 3 l 1
 67 101 69 155 69 260 c 0
 69 517 65 591 59 700 c 1
 64 706 l 1x5a
 146 705 160 706 239 709 c 1
 244 703 l 1x36
 239 396 l 1
 308 490 330 525 438 700 c 1
 446 706 l 1x3a
 534 705 551 706 634 709 c 1x36
EndSplineSet
Validated: 33
EndChar

StartChar: L
Encoding: 76 76 45
Width: 521
Flags: MW
HStem: -3 21G<70 70> 0 129<244 482> 686 20G<67 67> 689 20G<245 245>
VStem: 66 178
LayerCount: 2
Fore
SplineSet
490 137 m 1x58
 495 132 l 1
 487 6 l 1
 482 0 l 1x58
 302 0 266 0 70 -3 c 1
 65 3 l 1
 65 161 66 319 66 477 c 0
 66 596 65 620 61 700 c 1
 67 706 l 1xa8
 136 705 159 705 245 709 c 1
 251 703 l 1
 243 464 242 396 244 129 c 1
 264 129 l 2
 294 129 381 131 490 137 c 1x58
EndSplineSet
Validated: 33
EndChar

StartChar: M
Encoding: 77 77 46
Width: 917
Flags: MW
HStem: -3 21G<55 55 370 370 686 686> 0 21G<196 196 519 519 859 859> 580 126<92 215> 686 20G<92 148 595 650.5> 689 20G<329 329 827 827>
VStem: 196 7.5 679 154<396 703 575 703> 681 183<6 6 6 243>
LayerCount: 2
Fore
SplineSet
827 709 m 1x4e
 833 703 l 1
 833 644 834 632 839 539 c 0x4e
 842 476 844 413 847 350 c 0
 851 235 858 120 864 6 c 1
 859 0 l 1x4d
 782 1 755 0 686 -3 c 1
 681 3 l 1x8e
 681 243 l 1
 679 396 l 1
 679 575 l 1
 623 365 l 1
 583 219 l 1
 525 6 l 1
 519 0 l 1x66
 449 1 432 0 370 -3 c 1
 364 3 l 1x8e
 297 261 l 1
 259 403 l 1
 215 580 l 1
 211 391 l 1
 205 197 l 1
 202 6 l 1
 196 0 l 1x66
 138 1 119 0 55 -3 c 1
 50 3 l 1
 72 324 76 401 86 700 c 1
 92 706 l 1x96
 204 706 222 706 329 709 c 1
 334 703 l 1x4e
 384 511 l 1
 412 398 l 1
 456 219 l 1
 503 393 l 1
 543 538 l 1
 589 700 l 1
 595 706 l 1x56
 706 706 723 706 827 709 c 1x4e
EndSplineSet
Validated: 33
EndChar

StartChar: N
Encoding: 78 78 47
Width: 729
Flags: MW
HStem: -3 21G<71 71 530 530> 0 21G<188 217 635.5 662> 686 20G<66 66 519 519> 700 9
VStem: 69 137 527 138
LayerCount: 2
Fore
SplineSet
661 709 m 1x5c
 667 703 l 1
 666 591 665 480 665 368 c 0
 665 248 666 150 667 5 c 1
 662 0 l 1x5c
 609 0 591 0 530 -3 c 1
 523 2 l 1x9c
 434 132 l 1
 334 279 l 2
 266 378 250 404 203 482 c 1
 209 348 l 1
 212 225 l 1
 222 6 l 1
 217 0 l 1x5c
 159 0 138 0 71 -3 c 1
 66 3 l 1
 67 100 69 198 69 296 c 0
 69 430 66 545 61 700 c 1
 66 706 l 1xac
 139 705 152 705 231 709 c 1
 238 704 l 1x5c
 263 664 278 642 353 528 c 2
 444 395 l 2
 495 319 500 311 529 262 c 1
 525 427 l 1
 521 565 l 1
 514 700 l 1
 519 706 l 1x6c
 581 705 598 706 661 709 c 1x5c
EndSplineSet
Validated: 33
EndChar

StartChar: O
Encoding: 79 79 48
Width: 750
Flags: MW
HStem: -15 127<349.5 413.5> 596 125<368.5 397>
VStem: 42 187<319 366> 521 187
LayerCount: 2
Fore
SplineSet
633 614 m 0
 658 583 708 512 708 355 c 0
 708 270 688 134 589 52 c 0
 530 3 452 -15 375 -15 c 0
 324 -15 220 -5 144 66 c 0
 50 153 42 281 42 349 c 0
 42 383 45 417 51 451 c 0
 59 493 81 609 203 679 c 0
 257 710 320 721 382 721 c 0
 452 721 522 704 573 670 c 0
 596 655 616 636 633 614 c 0
475 550 m 0
 451 579 416 596 378 596 c 0
 359 596 332 592 305 576 c 0
 258 546 229 484 229 364 c 0
 229 274 238 112 377 112 c 0
 493 112 525 220 521 370 c 0
 520 395 518 431 510 469 c 0
 504 498 495 527 475 550 c 0
EndSplineSet
Validated: 33
EndChar

StartChar: P
Encoding: 80 80 49
Width: 604
Flags: MW
HStem: -3 21G<68 68> 0 21G<238 238> 242 123<239 239> 588 122<293 304> 700 8
VStem: 68 171<191 365 365 425.5> 416 179<476 511.5 455 512>
LayerCount: 2
Fore
SplineSet
194 708 m 1x6c
 282 710 l 2
 357 710 442 710 502 675 c 0
 585 628 595 533 595 490 c 0
 595 420 571 363 543 329 c 0
 471 241 351 241 239 242 c 1
 239 140 239 115 243 6 c 1
 238 0 l 1x6e
 158 1 142 0 68 -3 c 1
 62 3 l 1xac
 65 125 68 246 68 368 c 0
 68 483 65 570 61 700 c 1
 67 706 l 1
 194 708 l 1x6c
239 587 m 1x76
 239 365 l 1
 299 365 336 367 363 382 c 0
 416 411 416 469 416 483 c 0
 416 541 392 586 304 588 c 0
 282 588 261 588 239 587 c 1x76
EndSplineSet
Validated: 33
EndChar

StartChar: Q
Encoding: 81 81 50
Width: 750
Flags: MW
HStem: -12 21G<330 330> 595 126<341.5 404.5>
VStem: 43 188<327.5 378 327.5 467.5> 522 187<322.5 347>
LayerCount: 2
Fore
SplineSet
691 -173 m 1
 682 -175 l 1
 443 -61 417 -49 330 -12 c 1
 323 -11 l 2
 276 -4 228 6 174 41 c 0
 51 121 43 294 43 345 c 0
 43 590 179 721 380 721 c 0
 469 721 553 694 606 645 c 0
 683 574 709 458 709 362 c 0
 709 283 696 204 656 137 c 0
 617 69 574 46 537 27 c 1
 623 -6 642 -12 740 -43 c 1
 743 -51 l 1
 691 -173 l 1
522 347 m 0
 523 425 512 499 484 540 c 0
 464 569 434 595 375 595 c 0
 308 595 257 548 239 457 c 0
 233 425 231 394 231 362 c 0
 231 293 237 226 269 175 c 0
 295 132 335 114 378 114 c 0
 503 114 522 242 522 347 c 0
EndSplineSet
Validated: 33
EndChar

StartChar: R
Encoding: 82 82 51
Width: 625
Flags: MW
HStem: -5 21G<440 440> -3 21G<70 70> 0 14 274 117 587 121<257 300.5>
VStem: 68 171<177.5 586> 397 177<485 526 440.5 543>
LayerCount: 2
Fore
SplineSet
286 275 m 1x3c
 237 273 l 1
 238 154 239 122 247 6 c 1
 241 0 l 1x3e
 159 1 143 0 70 -3 c 1
 64 3 l 1x5c
 67 86 68 131 68 224 c 0
 68 496 64 600 60 701 c 1
 65 707 l 1
 187 707 l 1
 257 708 l 2
 374 710 428 709 480 682 c 0
 562 639 574 548 574 504 c 0
 574 377 483 335 438 315 c 1
 463 271 479 244 511 193 c 0
 583 78 594 63 632 14 c 1
 626 2 l 1x3e
 595 2 563 1 532 0 c 0
 501 -1 471 -3 440 -5 c 1
 432 0 l 1x9c
 368 131 353 161 286 275 c 1x3c
239 586 m 1
 239 391 l 1
 289 392 325 394 353 411 c 0
 390 434 397 471 397 499 c 0
 397 587 320 587 281 587 c 0
 267 587 253 587 239 586 c 1
EndSplineSet
Validated: 33
EndChar

StartChar: S
Encoding: 83 83 52
Width: 562
Flags: MW
HStem: -15 126<203.5 256> 598 123<283 349.5 207 354> 657 20G<491 491>
VStem: 48 173<505.5 543.5 505.5 561.5> 353 174<175.5 220.5>
LayerCount: 2
Fore
SplineSet
349 430 m 2xd8
 375 420 l 2
 399 409 425 397 452 377 c 0
 505 336 527 275 527 218 c 0
 527 133 491 57 407 16 c 0
 347 -12 271 -15 241 -15 c 0
 166 -15 107 2 84 10 c 0
 73 13 62 18 51 22 c 1
 45 30 l 1
 52 171 l 1
 62 174 l 1
 91 151 142 111 233 111 c 0
 320 111 353 156 353 194 c 0
 353 247 300 272 231 301 c 2
 198 316 l 2
 142 343 48 387 48 508 c 0
 48 615 113 721 301 721 c 0xd8
 398 721 443 702 486 684 c 1
 491 677 l 1xb8
 483 546 l 1
 474 542 l 1
 437 567 392 598 316 598 c 0
 250 598 221 559 221 528 c 0
 221 483 265 465 349 430 c 2xd8
EndSplineSet
Validated: 1
EndChar

StartChar: T
Encoding: 84 84 53
Width: 521
Flags: MW
HStem: 1 21G<305.5 347> 574 133<504 504>
VStem: 171 175<357.5 576>
LayerCount: 2
Fore
SplineSet
504 574 m 1
 349 578 l 1
 347 514 346 483 346 428 c 0
 346 287 348 147 353 7 c 1
 347 1 l 1
 264 1 244 0 170 -3 c 1
 164 3 l 1
 172 251 172 314 171 576 c 1
 8 572 l 1
 3 578 l 1
 10 701 l 1
 17 707 l 1
 512 707 l 1
 517 704 l 1
 510 579 l 1
 504 574 l 1
EndSplineSet
Validated: 33
EndChar

StartChar: U
Encoding: 85 85 54
Width: 688
Flags: MW
HStem: -15 125<345.5 371> 686 20G<61 61 480 480> 689 20G<237 237 630 630>
VStem: 60 179<299 486.5 373 486.5> 484 148<304 392.5>
LayerCount: 2
Fore
SplineSet
630 709 m 1xb8
 635 703 l 1xb8
 632 406 l 1
 632 304 l 2
 630 177 626 119 573 63 c 0
 499 -15 389 -15 353 -15 c 0
 219 -15 142 35 104 89 c 0
 69 137 63 191 60 299 c 2
 60 373 l 2
 59 529 59 557 55 700 c 1
 61 706 l 1xd8
 129 705 152 705 237 709 c 1
 242 703 l 1xb8
 240 604 239 527 239 446 c 0
 239 393 239 340 241 287 c 0
 243 224 249 189 264 163 c 0
 286 128 325 110 366 110 c 0
 399 110 432 121 454 146 c 0
 481 178 484 226 484 331 c 0
 484 454 479 577 474 700 c 1
 480 706 l 1xd8
 537 705 557 705 630 709 c 1xb8
EndSplineSet
Validated: 33
EndChar

StartChar: V
Encoding: 86 86 55
Width: 583
Flags: MW
HStem: -3 21G<184 184> -3 152<184 304> 0 21G<397 397> 686 20G<437 467> 687 20G<-8 31> 694 20G<171 171>
VStem: -13 610<701 704>
LayerCount: 2
Fore
SplineSet
403 7 m 1x26
 397 0 l 1x26
 293 1 271 0 184 -3 c 1
 178 3 l 1
 168 44 158 85 148 126 c 0
 114 258 54 470 -13 701 c 1
 -8 707 l 1x8a
 70 707 88 708 171 714 c 1
 177 709 l 1x26
 198 612 205 578 230 475 c 2
 251 385 l 1
 304 149 l 1
 347 334 l 1
 379 465 l 2
 407 576 412 602 431 700 c 1
 437 706 l 1
 497 706 517 706 592 709 c 1
 597 704 l 1x52
 461 240 446 188 403 7 c 1x26
EndSplineSet
Validated: 33
EndChar

StartChar: W
Encoding: 87 87 56
Width: 938
Flags: MW
HStem: -3 21G<140 140 547 547> -3 125 0 21G<366 366 782 782> 686 20G<585 585 789 822.5> 689 20G<941 941> 693 20G<579 579> 695 20G<169 169>
VStem: -9 955<700 703>
LayerCount: 2
Fore
SplineSet
787 6 m 1x23
 782 0 l 1x23
 676 1 643 0 547 -3 c 1
 542 3 l 1x83
 521 140 l 1
 496 296 l 2
 478 404 475 429 463 527 c 1
 427 313 l 1
 394 130 l 1
 373 6 l 1
 366 0 l 1x23
 268 1 241 1 140 -3 c 1
 134 3 l 1
 80 293 64 369 -9 700 c 1
 -4 707 l 1
 69 709 83 709 169 715 c 1
 175 710 l 1x83
 208 512 l 1
 234 366 l 2
 255 245 259 216 271 129 c 1
 296 267 l 1
 335 472 l 1
 375 702 l 1
 381 708 l 1
 579 713 l 1
 585 706 l 1x25
 610 552 l 1
 639 384 l 2
 659 268 664 234 679 122 c 1
 711 294 l 1
 740 447 l 2
 762 562 767 597 783 700 c 1
 789 706 l 1x51
 856 706 870 706 941 709 c 1
 946 703 l 1x29
 840 264 824 188 787 6 c 1x23
EndSplineSet
Validated: 33
EndChar

StartChar: X
Encoding: 88 88 57
Width: 604
Flags: MW
HStem: -3 21G<16 16 401 401> 0 21G<141.5 182> 687 20G<21 21 416 416> 694 20G<210 210> 702 8<583 587>
VStem: 11 583<4 15>
LayerCount: 2
Fore
SplineSet
594 15 m 1x8c
 590 6 l 1
 401 -3 l 1
 394 3 l 1x8c
 352 97 341 120 292 221 c 1
 189 6 l 1
 182 0 l 1x4c
 101 0 84 0 16 -3 c 1
 11 4 l 1
 149 234 152 240 217 357 c 1
 181 423 178 427 158 462 c 0
 114 537 67 615 18 698 c 1
 21 707 l 1
 104 708 121 709 210 714 c 1
 216 709 l 1x94
 264 603 269 593 317 496 c 1
 345 559 358 587 408 701 c 1
 416 707 l 1x64
 481 706 503 706 583 710 c 1
 587 702 l 1
 522 597 508 573 482 527 c 0
 451 473 419 419 388 366 c 1
 487 186 527 123 594 15 c 1x8c
EndSplineSet
Validated: 33
EndChar

StartChar: Y
Encoding: 89 89 58
Width: 604
Flags: MW
HStem: -3 21G<218 218> 0 21G<359.5 395> 686 20G<-8 -8 456 486.5> 689 20G<612 612> 693 20G<182 182>
VStem: 220 175<264 296 296 296>
LayerCount: 2
Fore
SplineSet
401 6 m 1x4c
 395 0 l 1x4c
 324 0 302 0 218 -3 c 1
 213 3 l 1
 219 121 220 165 220 264 c 2
 220 296 l 1
 205 322 191 348 177 374 c 0
 151 420 18 646 -11 698 c 1
 -8 706 l 1
 76 707 97 708 182 713 c 1
 189 708 l 1x8c
 219 644 233 614 251 578 c 0
 261 559 312 462 323 440 c 1
 365 522 392 575 450 700 c 1
 456 706 l 1x64
 517 706 537 706 612 709 c 1
 616 702 l 1x54
 395 300 l 1
 395 172 396 136 401 6 c 1x4c
EndSplineSet
Validated: 1
EndChar

StartChar: Z
Encoding: 90 90 59
Width: 562
Flags: MW
HStem: 0 135<22 527> 128 7<527 533> 576 130
VStem: 16 519
LayerCount: 2
Fore
SplineSet
524 6 m 1xb0
 517 0 l 1
 22 0 l 1
 16 6 l 1
 36 46 96 172 192 371 c 2
 248 491 l 1
 290 578 l 1
 43 574 l 1
 37 580 l 1
 46 700 l 1
 52 706 l 1
 530 706 l 1
 535 701 l 1
 260 129 l 1xb0
 368 130 399 130 527 135 c 1
 533 128 l 1x70
 524 6 l 1xb0
EndSplineSet
Validated: 1
EndChar

StartChar: bracketleft
Encoding: 91 91 60
Width: 333
Flags: MW
HStem: -218 7<79 85> 668.5 96
VStem: 82 143<303.5 383.5> 323 8
LayerCount: 2
Fore
SplineSet
328 -210 m 1
 321 -216 l 1
 223 -215 191 -215 85 -218 c 1
 79 -211 l 1
 82 -91 82 -51 82 309 c 0
 82 458 80 554 75 756 c 1
 81 763 l 1
 327 766 l 1
 333 759 l 1
 329 674 l 1
 323 667 l 1
 230 670 l 1
 227 570 225 511 225 380 c 0
 225 227 228 32 230 -122 c 1
 328 -120 l 1
 333 -126 l 1
 328 -210 l 1
EndSplineSet
Validated: 33
EndChar

StartChar: backslash
Encoding: 92 92 61
Width: 479
Flags: MW
HStem: -146 911<-8 491>
VStem: -12 508
LayerCount: 2
Fore
SplineSet
496 -137 m 1
 491 -146 l 1
 435 -145 429 -144 374 -144 c 1
 365 -137 l 1
 309 8 250 151 188 294 c 0
 158 364 128 434 97 505 c 0
 23 679 15 698 -12 756 c 1
 -8 765 l 1
 31 765 71 764 110 764 c 1
 117 758 l 1
 162 639 211 508 389 105 c 0
 404 71 484 -109 496 -137 c 1
EndSplineSet
Validated: 1
EndChar

StartChar: bracketright
Encoding: 93 93 62
Width: 333
Flags: MW
HStem: -216 96 758 7<250 256>
VStem: 2 8 109 143<181 250>
LayerCount: 2
Fore
SplineSet
5 757 m 1
 12 763 l 1
 118 762 152 763 250 765 c 1
 256 758 l 1
 252 630 252 593 252 257 c 0
 252 105 254 -6 259 -208 c 1
 253 -215 l 1
 7 -217 l 1
 0 -211 l 1
 4 -126 l 1
 10 -119 l 1
 105 -121 l 1
 107 -25 109 37 109 170 c 0
 109 330 106 514 104 669 c 1
 6 667 l 1
 0 673 l 1
 5 757 l 1
EndSplineSet
Validated: 33
EndChar

StartChar: asciicircum
Encoding: 94 94 63
Width: 729
Flags: MW
HStem: 686 20G<323 414 414 414>
VStem: 128 473<323 323>
LayerCount: 2
Fore
SplineSet
414 706 m 1
 601 323 l 1
 483 323 l 1
 367 569 l 1
 245 323 l 1
 128 323 l 1
 323 706 l 1
 414 706 l 1
EndSplineSet
Validated: 1
EndChar

StartChar: underscore
Encoding: 95 95 64
Width: 500
Flags: MW
HStem: -125 50<-10 510 -10 510>
VStem: -10 520<-125 -75 -125 -75>
LayerCount: 2
Fore
SplineSet
510 -75 m 1
 510 -125 l 1
 -10 -125 l 1
 -10 -75 l 1
 510 -75 l 1
EndSplineSet
Validated: 1
EndChar

StartChar: quoteleft
Encoding: 8216 8216 65
Width: 250
Flags: MW
HStem: 504 261<10 239> 506.5 257.5
VStem: 6 237
LayerCount: 2
Fore
SplineSet
10 504 m 1x60
 6 510 l 1
 28 555 41 582 59 620 c 0
 67 640 109 736 119 757 c 1
 126 763 l 1
 239 765 l 1
 243 758 l 1
 204 638 198 611 178 515 c 1
 172 509 l 1
 10 504 l 1x60
EndSplineSet
Validated: 1
EndChar

StartChar: a
Encoding: 97 97 66
Width: 562
Flags: MW
HStem: -12 125<153 275.5> -3 116<241 347> 0 21G<506 506> 427 114<249 278.5>
VStem: 27 166<153 186.5> 340 164<177 224 177 260 177 260>
LayerCount: 2
Fore
SplineSet
505 298 m 2x3c
 504 224 l 2
 504 130 504 105 511 7 c 1
 506 0 l 1x3c
 441 1 419 0 347 -3 c 1
 341 4 l 1x5c
 341 41 l 1
 320 24 277 -12 202 -12 c 0x9c
 104 -12 27 57 27 164 c 0
 27 209 46 266 102 301 c 0
 162 338 218 349 338 365 c 1
 338 380 335 398 325 408 c 0
 312 421 297 427 260 427 c 0
 193 427 128 401 93 387 c 1
 85 391 l 1
 90 500 l 1
 96 508 l 1
 153 525 206 541 292 541 c 0
 420 541 460 501 480 469 c 0
 506 427 506 388 505 298 c 2x3c
340 139 m 1x9c
 340 260 l 1
 272 251 193 240 193 174 c 0
 193 132 223 113 259 113 c 0
 292 113 319 127 340 139 c 1x9c
EndSplineSet
Validated: 33
EndChar

StartChar: b
Encoding: 98 98 67
Width: 604
Flags: MW
HStem: -2 111<132 228 132 228> 423 119<320 326> 772 20G 778 20G<222 222>
VStem: 61 166 397 172<274 318>
LayerCount: 2
Fore
SplineSet
132 -2 m 1xdc
 66 -3 l 1
 59 4 l 1
 60 190 61 360 61 446 c 0
 61 647 58 681 50 765 c 1
 56 772 l 1
 222 798 l 1
 230 792 l 1xec
 224 502 l 1
 252 520 287 542 353 542 c 0
 489 542 569 434 569 295 c 0
 569 253 562 163 491 87 c 0
 415 6 312 -2 152 -2 c 2
 132 -2 l 1xdc
228 403 m 1
 228 109 l 1
 262 110 305 111 338 134 c 0
 365 153 397 200 397 272 c 0
 397 364 359 423 293 423 c 0
 267 423 248 413 228 403 c 1
EndSplineSet
Validated: 1
EndChar

StartChar: c
Encoding: 99 99 68
Width: 479
Flags: MW
HStem: -9 121<290.5 346.5> 423 119<291.5 345 198.5 362>
VStem: 35 176<236 302.5 236 313> 438 10<387 390>
LayerCount: 2
Fore
SplineSet
451 144 m 1
 459 139 l 1
 455 19 l 1
 449 13 l 1
 407 1 373 -9 320 -9 c 0
 95 -9 35 147 35 262 c 0
 35 364 81 542 316 542 c 0
 374 542 412 530 456 516 c 1
 461 510 l 1
 453 457 452 443 448 390 c 1
 438 387 l 1
 408 407 384 423 340 423 c 0
 243 423 211 339 211 266 c 0
 211 206 234 112 347 112 c 0
 398 112 424 128 451 144 c 1
EndSplineSet
Validated: 1
EndChar

StartChar: d
Encoding: 100 100 69
Width: 604
Flags: MW
HStem: -12 121<260.5 282.5> -3 21G<382 382> 0 109 416 117 772 20G 778 20G<544 544>
VStem: 36 176<243 288.5> 380 163
LayerCount: 2
Fore
SplineSet
550 6 m 1x57
 545 0 l 1x37
 470 0 451 0 382 -3 c 1
 377 3 l 1x57
 379 42 l 1
 355 21 318 -12 247 -12 c 0
 214 -12 160 -4 116 32 c 0
 57 81 36 159 36 237 c 0
 36 340 65 423 135 477 c 0
 211 537 305 535 380 533 c 1
 381 647 380 672 374 766 c 1
 379 772 l 1
 544 798 l 1
 551 792 l 1x9b
 547 660 543 551 543 287 c 0
 543 156 546 96 550 6 c 1x57
380 413 m 1
 366 415 357 416 346 416 c 0
 234 416 212 330 212 253 c 0
 212 233 212 109 309 109 c 0
 337 109 357 121 377 133 c 1
 380 254 381 280 380 413 c 1
EndSplineSet
Validated: 33
EndChar

StartChar: e
Encoding: 101 101 70
Width: 562
Flags: MW
HStem: -12 117<318 367.5> 227 102 435 107<282 305.5>
VStem: 36 165<221 327 221 352.5> 368 162<234 342.5>
LayerCount: 2
Fore
SplineSet
504 148 m 1
 511 145 l 1
 504 32 l 1
 498 24 l 1
 445 3 409 -12 326 -12 c 0
 254 -12 118 0 60 135 c 0
 44 170 36 219 36 266 c 0
 36 439 140 542 297 542 c 0
 320 542 343 540 368 533 c 0
 402 525 479 501 514 383 c 0
 528 333 529 283 530 234 c 1
 524 227 l 1
 201 221 l 1
 205 201 208 181 223 160 c 0
 247 124 288 105 348 105 c 0
 421 105 466 128 504 148 c 1
201 327 m 1
 368 331 l 1
 368 354 367 378 353 400 c 0
 342 418 322 435 289 435 c 0
 275 435 261 432 249 424 c 0
 211 400 204 358 201 327 c 1
EndSplineSet
Validated: 1
EndChar

StartChar: f
Encoding: 102 102 71
Width: 354
Flags: MW
HStem: -3 21G<85 85> 1 21G<216.5 254> 413 117 415 116 784 10
VStem: 83 167 85 175<-3 7>
LayerCount: 2
Fore
SplineSet
260 7 m 1x6a
 254 1 l 1x6a
 179 1 153 0 85 -3 c 1
 79 4 l 1
 85 182 85 227 85 416 c 1
 9 414 l 1
 3 420 l 1x9a
 13 526 l 1
 19 531 l 1x6a
 84 530 l 1
 83 590 l 2
 83 640 82 712 144 758 c 0
 184 788 236 794 287 794 c 0
 310 794 333 793 357 791 c 1
 362 784 l 1
 353 671 l 1
 346 667 l 1
 336 668 326 670 316 670 c 0
 251 670 250 614 250 553 c 2
 249 530 l 1
 340 530 l 1
 345 524 l 1
 336 418 l 1
 329 411 l 1x6c
 250 415 l 1
 249 238 250 189 260 7 c 1x6a
EndSplineSet
Validated: 33
EndChar

StartChar: g
Encoding: 103 103 72
Width: 542
Flags: MW
HStem: -249 92<239.5 305 235 350.5> -14 21G<202 202> 169 92<244 269> 425 108 437 94<241.5 326>
VStem: 26 147<-97.5 -63.5 -97.5 -61.5> 31 162<351.5 380 351.5 383.5> 326 158 363 163<-108.5 -85.5>
LayerCount: 2
Fore
SplineSet
244 169 m 1xf280
 228 134 l 1
 267 120 278 117 327 109 c 2
 351 105 l 1
 416 90 526 66 526 -60 c 0
 526 -157 442 -249 259 -249 c 0
 220 -249 144 -247 88 -207 c 0
 51 -180 26 -140 26 -94 c 0
 26 -29 73 9 103 32 c 1
 61 62 l 1
 61 71 l 1xf480
 84 112 99 139 127 193 c 1
 102 207 82 218 60 249 c 0
 42 274 31 306 31 346 c 0
 31 421 73 464 95 481 c 0
 160 535 255 533 326 531 c 2
 372 530 l 2
 435 529 456 530 533 533 c 1
 539 528 l 1
 532 428 l 1
 526 423 l 1xf280
 457 427 l 1
 470 408 484 388 484 340 c 0xf3
 484 243 408 200 356 182 c 0
 308 166 276 168 244 169 c 1xf280
326 349 m 0xeb
 327 393 306 437 260 437 c 0
 223 437 193 405 193 355 c 0
 193 348 193 324 202 303 c 0
 219 263 254 261 262 261 c 0
 276 261 325 268 326 349 c 0xeb
241 -24 m 2
 202 -14 l 1
 190 -28 173 -47 173 -80 c 0
 173 -115 198 -157 272 -157 c 0
 338 -157 363 -126 363 -96 c 0
 363 -75 353 -64 343 -57 c 0xf480
 331 -47 330 -47 241 -24 c 2
EndSplineSet
Validated: 33
EndChar

StartChar: h
Encoding: 104 104 73
Width: 604
Flags: MW
HStem: -3 21G<65 65 379 379> 1 21G<194.5 235 505.5 544> 409 133<292 419> 522 20G<360.5 419> 771 20G 778 20G<224 224>
VStem: 64 168 375 168<85.5 296>
LayerCount: 2
Fore
SplineSet
550 7 m 1x57
 544 1 l 1x57
 467 1 451 1 379 -3 c 1
 374 4 l 1x97
 374 37 375 69 375 102 c 0
 375 139 374 281 372 312 c 0
 368 352 364 409 309 409 c 0
 275 409 251 392 232 379 c 1
 233 202 234 157 241 7 c 1
 235 1 l 1x67
 154 1 139 1 65 -3 c 1
 60 4 l 1
 62 102 64 161 64 260 c 0
 64 341 63 422 61 503 c 0
 59 632 57 668 48 765 c 1
 53 771 l 1
 224 798 l 1
 230 791 l 1x9b
 227 483 l 1
 267 507 324 542 397 542 c 0
 441 542 483 529 512 488 c 0
 541 446 542 391 543 296 c 2
 543 221 l 2
 545 117 546 89 550 7 c 1x57
EndSplineSet
Validated: 1
EndChar

StartChar: i
Encoding: 105 105 74
Width: 292
Flags: MW
HStem: -3 7<55 61> 0 21G<234 234> 517 20G<235 235> 525 20G<228 228> 763 20G
VStem: 56 170.5 61 171<212 323.5 212 327>
LayerCount: 2
Fore
SplineSet
241 7 m 1x9a
 234 0 l 1x5a
 153 1 133 0 61 -3 c 1
 55 4 l 1
 58 86 61 147 61 256 c 0
 61 398 58 433 50 509 c 1
 56 515 l 1
 228 545 l 1
 235 537 l 1xaa
 234 452 232 366 232 281 c 0
 232 143 236 84 241 7 c 1x9a
225 641 m 1x9c
 220 634 l 1
 149 625 130 623 62 611 c 1
 55 617 l 1
 56 636 56 656 56 675 c 0
 56 699 55 720 53 756 c 1
 59 763 l 1
 222 783 l 1
 228 777 l 1
 225 641 l 1x9c
EndSplineSet
Validated: 33
EndChar

StartChar: j
Encoding: 106 106 75
Width: 292
Flags: MW
HStem: -251 21G<1 1> 516 20G<233 233> 525 20G<225 225> 762 20G
VStem: 49 181<277.5 509> 55.5 173.5
LayerCount: 2
Fore
SplineSet
225 545 m 1xb8
 233 536 l 1xd8
 232 459 230 385 230 310 c 0
 230 245 231 180 233 115 c 2
 234 45 l 2
 236 -34 235 -91 194 -146 c 0
 135 -223 39 -243 1 -251 c 1
 -6 -247 l 1
 -32 -143 l 1
 -27 -135 l 1
 55 -118 65 -71 65 9 c 0
 65 38 63 156 62 190 c 0
 61 276 57 405 49 509 c 1
 55 515 l 1
 136 527 151 530 225 545 c 1xb8
229 638 m 1xb4
 223 633 l 1
 160 626 138 623 64 613 c 1
 57 618 l 1
 54 755 l 1
 61 762 l 1
 223 782 l 1
 229 775 l 1
 229 638 l 1xb4
EndSplineSet
Validated: 33
EndChar

StartChar: k
Encoding: 107 107 76
Width: 562
Flags: MW
HStem: -3 21G<68 68 387 387> 0 21G<192 230> 522 10<536 541> 772 20G 778 20G<228 228>
VStem: 60 169
LayerCount: 2
Fore
SplineSet
574 13 m 1x6c
 567 4 l 1
 387 -3 l 1
 378 3 l 1xac
 327 109 316 131 229 291 c 1
 230 176 l 1
 236 7 l 1
 230 0 l 1x6c
 154 0 135 0 68 -3 c 1
 61 4 l 1
 62 166 62 328 60 490 c 0
 58 621 55 668 48 765 c 1
 54 772 l 1
 228 798 l 1
 236 792 l 1xb4
 231 641 230 601 229 414 c 2
 229 303 l 1
 275 372 285 388 363 523 c 1
 373 530 l 1
 536 532 l 1
 541 522 l 1
 470 431 463 421 394 327 c 1
 470 190 480 172 574 13 c 1x6c
EndSplineSet
Validated: 33
EndChar

StartChar: l
Encoding: 108 108 77
Width: 292
Flags: MW
HStem: -3 7<57 63> 0 21G<230 230> 771 20G 778 20G<224 224>
VStem: 63 163<217 590.5>
LayerCount: 2
Fore
SplineSet
236 7 m 1x98
 230 0 l 1x58
 157 1 130 0 63 -3 c 1
 57 4 l 1
 61 103 63 163 63 271 c 0
 63 330 63 389 62 448 c 0
 60 610 59 643 49 765 c 1
 53 771 l 1
 224 798 l 1
 231 791 l 1xa8
 227 683 226 638 226 543 c 0
 226 227 231 122 236 7 c 1x98
EndSplineSet
Validated: 33
EndChar

StartChar: m
Encoding: 109 109 78
Width: 896
Flags: MW
HStem: -3 21G<368 368> -2 21G<66 66 668 668> 1 21G<193.5 235 499.5 534 800 835> 409 133<288.5 428> 414 128 516 20G 525 20G<224 224>
VStem: 62 170 365 167<251 288 251 295> 665 170<217 226.5>
CounterMasks: 1 01c0
LayerCount: 2
Fore
SplineSet
841 7 m 1x23c0
 835 1 l 1x23c0
 765 1 743 1 668 -2 c 1
 662 4 l 1x43c0
 663 34 664 183 665 217 c 0
 665 236 666 255 666 274 c 0
 666 360 657 414 600 414 c 0
 570 414 548 400 531 389 c 1
 532 288 l 1
 532 251 l 2
 533 130 534 102 540 7 c 1
 534 1 l 1x29c0
 465 1 444 1 368 -3 c 1
 362 4 l 1x83c0
 364 85 365 107 365 252 c 0
 365 338 363 409 301 409 c 0
 276 409 253 396 232 381 c 1
 233 207 234 161 241 7 c 1
 235 1 l 1x31c0
 152 1 130 0 66 -2 c 1
 61 4 l 1
 61 61 62 119 62 176 c 0
 62 374 56 429 48 509 c 1
 54 516 l 1
 124 526 146 530 224 545 c 1
 233 536 l 1x45c0
 233 480 l 1
 279 512 322 542 388 542 c 0
 468 542 493 500 507 477 c 1
 547 505 602 542 684 542 c 0
 700 542 769 542 808 485 c 0x29c0
 837 443 836 381 835 314 c 2
 835 239 l 2
 835 126 836 100 841 7 c 1x23c0
EndSplineSet
Validated: 33
EndChar

StartChar: n
Encoding: 110 110 79
Width: 604
Flags: MW
HStem: -2 21G<67 67 380 380> 1 21G<194 234 503 543> 410 132<293 410> 518 20G<234 234> 522 20G<361.5 410> 525 20G<224 224>
VStem: 63 169 224 9 375 168<1 126>
LayerCount: 2
Fore
SplineSet
550 7 m 1x4680
 543 1 l 1x4680
 463 1 446 0 380 -2 c 1
 374 4 l 1x8680
 374 38 375 73 375 107 c 0
 375 145 374 282 372 315 c 0
 369 351 364 410 309 410 c 0
 277 410 253 393 232 379 c 1
 233 200 234 161 240 7 c 1
 234 1 l 1x6280
 154 1 139 1 67 -2 c 1
 61 4 l 1
 62 68 63 132 63 196 c 0
 63 359 57 422 49 509 c 1
 55 516 l 1x9280
 130 526 147 529 224 545 c 1
 234 538 l 1x5180
 232 483 l 1
 278 510 331 542 392 542 c 0
 428 542 485 534 516 482 c 0x4980
 541 441 542 395 543 299 c 2
 543 221 l 2
 545 123 545 95 550 7 c 1x4680
EndSplineSet
Validated: 1
EndChar

StartChar: o
Encoding: 111 111 80
Width: 604
Flags: MW
HStem: -12 106<289 343.5 289 406> 438 103<287 317>
VStem: 35 175<232 279.5 216.5 356> 396 173<226 285.5 191 294>
LayerCount: 2
Fore
SplineSet
569 266 m 0
 569 116 512 -12 300 -12 c 0
 157 -12 108 42 82 81 c 0
 45 135 35 200 35 264 c 0
 35 448 133 541 307 541 c 0
 333 541 385 539 429 522 c 0
 569 467 569 305 569 266 c 0
396 267 m 0
 396 321 391 378 367 407 c 0
 354 423 331 438 303 438 c 0
 271 438 245 420 230 393 c 0
 210 358 210 294 210 265 c 0
 210 168 229 134 246 117 c 0
 258 106 276 94 302 94 c 0
 385 94 396 185 396 267 c 0
EndSplineSet
Validated: 1
EndChar

StartChar: p
Encoding: 112 112 81
Width: 604
Flags: MW
HStem: -247 21G<230 230> -4 111<228 229> 419 123<275.5 416> 515 20G
VStem: 61 167<107 199> 218 7 394 175<253 287>
LayerCount: 2
Fore
SplineSet
226 535 m 1xd4
 224 495 l 1
 252 514 291 542 360 542 c 0xe6
 472 542 569 446 569 287 c 0
 569 219 548 134 484 74 c 0
 403 -2 302 -3 229 -4 c 1
 236 -242 l 1
 230 -247 l 1
 154 -246 133 -247 62 -250 c 1
 56 -245 l 1
 59 -132 61 -64 61 55 c 0
 61 343 57 389 46 508 c 1
 52 515 l 1xda
 124 524 145 528 218 544 c 1
 226 535 l 1xd4
228 399 m 1xea
 228 107 l 1
 263 108 303 110 335 132 c 0
 375 160 394 212 394 270 c 0
 394 304 389 355 358 389 c 0
 333 417 303 419 288 419 c 0
 263 419 250 412 228 399 c 1xea
EndSplineSet
Validated: 33
EndChar

StartChar: q
Encoding: 113 113 82
Width: 604
Flags: MW
HStem: -247 21G<548 548> -12 120<264 287.5> 416 115
VStem: 35 176<250.5 281> 376.5 167.5
LayerCount: 2
Fore
SplineSet
542 531 m 1
 549 525 l 1
 546 438 544 380 544 264 c 0
 544 95 545 -73 553 -242 c 1
 548 -247 l 1
 472 -246 456 -247 382 -250 c 1
 376 -245 l 1
 379 -121 379 -101 379 25 c 1
 351 8 318 -12 257 -12 c 0
 107 -12 35 105 35 243 c 0
 35 319 57 425 146 482 c 0
 228 533 305 533 542 531 c 1
378 128 m 1
 375 415 l 1
 365 416 355 416 346 416 c 0
 234 416 211 325 211 264 c 0
 211 237 211 108 317 108 c 0
 343 108 358 116 378 128 c 1
EndSplineSet
Validated: 33
EndChar

StartChar: r
Encoding: 114 114 83
Width: 375
Flags: MW
HStem: -3 21G<66 66> 0 21G<236 236> 517 20G<234 234> 534 8
VStem: 63 168<235.5 292.5 235.5 319.5>
LayerCount: 2
Fore
SplineSet
349 371 m 1x58
 340 367 l 1
 326 375 316 381 299 381 c 0
 231 381 231 315 231 270 c 0
 231 201 237 88 241 7 c 1
 236 0 l 1x58
 156 1 140 0 66 -3 c 1
 60 3 l 1
 62 86 63 168 63 250 c 0
 63 389 60 434 54 509 c 1
 60 515 l 1
 133 526 152 529 226 545 c 1
 234 537 l 1xa8
 231 445 l 1
 263 519 309 542 350 542 c 0
 357 542 364 541 371 541 c 1
 377 534 l 1
 349 371 l 1x58
EndSplineSet
Validated: 33
EndChar

StartChar: s
Encoding: 115 115 84
Width: 479
Flags: MW
HStem: -12 104<185 227 185 244> 441 101<248 297.5 240.5 309.5>
VStem: 37 414<31 222> 39 170<382 395> 278 173<131.5 222>
LayerCount: 2
Fore
SplineSet
270 345 m 2xd8
 319 327 l 2
 374 306 451 277 451 167 c 0
 451 160 451 153 450 145 c 0
 432 2 282 -12 206 -12 c 0
 133 -12 91 4 42 22 c 1
 37 31 l 1
 41 81 42 92 44 144 c 1
 53 148 l 1
 68 136 76 129 93 120 c 0
 130 101 171 92 199 92 c 0
 255 92 278 119 278 144 c 0
 278 180 234 195 207 204 c 2
 169 218 l 2
 122 236 39 268 39 375 c 0
 39 415 53 445 66 463 c 0
 118 538 216 542 265 542 c 0
 330 542 371 530 418 517 c 1
 423 511 l 1
 413 402 l 1
 404 399 l 1
 379 415 340 441 279 441 c 0
 217 441 209 408 209 396 c 0
 209 368 236 357 270 345 c 2xd8
EndSplineSet
Validated: 1
EndChar

StartChar: t
Encoding: 116 116 85
Width: 354
Flags: MW
HStem: -11 117<148 302.5> 413 117 414 117
VStem: 71.5 164.5 72.5 166
LayerCount: 2
Fore
SplineSet
340 115 m 1xd0
 348 111 l 1
 338 8 l 1
 331 1 l 1
 296 -5 265 -11 226 -11 c 0
 70 -11 68 88 68 180 c 0
 68 206 69 231 70 256 c 2
 73 415 l 1
 10 413 l 1
 4 419 l 1xd0
 13 526 l 1
 19 531 l 1xb0
 73 529 l 1xa8
 72 654 l 1
 76 661 l 1
 147 679 165 684 233 704 c 1
 240 698 l 1
 237 530 l 1xc8
 337 530 l 1
 343 524 l 1
 333 417 l 1
 327 411 l 1
 237 415 l 1
 235 274 l 2
 234 234 234 179 237 153 c 0
 239 138 243 106 294 106 c 0
 311 106 323 110 340 115 c 1xd0
EndSplineSet
Validated: 33
EndChar

StartChar: u
Encoding: 117 117 86
Width: 604
Flags: MW
HStem: -12 126<265 266.5> -3 21G<385 385> 0 114 515 20G<225 225 540 540> 527 8<225 232>
VStem: 60 171 377 167<217.5 240>
LayerCount: 2
Fore
SplineSet
540 535 m 1x56
 547 527 l 1
 545 433 544 339 544 245 c 0
 544 115 546 77 551 6 c 1
 545 0 l 1x2e
 480 0 458 0 385 -3 c 1
 378 3 l 1x56
 379 48 l 1
 343 20 302 -12 231 -12 c 0
 181 -12 133 4 100 41 c 0
 64 83 59 129 60 238 c 2
 60 308 l 2
 60 409 59 437 53 521 c 1
 60 527 l 1
 225 535 l 1
 232 527 l 1
 230 325 l 2
 229 300 229 274 229 249 c 0
 229 190 229 114 301 114 c 0
 328 114 349 129 376 147 c 1x8e
 377 187 377 203 377 232 c 0
 377 248 377 408 370 521 c 1
 377 527 l 1
 540 535 l 1x56
EndSplineSet
Validated: 33
EndChar

StartChar: v
Encoding: 118 118 87
Width: 500
Flags: MW
HStem: -3 21G<167 167> 0 21G<330 330> 516 20G<173 173> 526 7<502 507>
VStem: -6 513<517 526>
LayerCount: 2
Fore
SplineSet
336 8 m 1x58
 330 0 l 1x58
 258 1 232 0 167 -3 c 1
 160 4 l 1
 138 86 127 123 -6 517 c 1
 -2 525 l 1
 74 526 94 527 173 536 c 1
 180 530 l 1xa8
 194 464 198 445 223 352 c 2
 242 275 l 1
 267 167 l 1
 318 364 l 2
 338 442 341 456 355 523 c 1
 362 530 l 1
 502 533 l 1
 507 526 l 1
 479 444 435 314 408 233 c 0
 387 170 368 108 336 8 c 1x58
EndSplineSet
Validated: 33
EndChar

StartChar: w
Encoding: 119 119 88
Width: 812
Flags: MW
HStem: -3 21G<138 138 488 488> -3 160<138 245> 0 21G<324 324 672 672> 515 20 525 8
VStem: -6 825<515 525>
LayerCount: 2
Fore
SplineSet
678 7 m 1x2c
 672 0 l 1x2c
 592 1 562 0 488 -3 c 1
 481 4 l 1x8c
 439 221 l 1
 424 295 l 1
 409 371 l 1
 384 250 l 1
 356 129 l 1
 330 7 l 1
 324 0 l 1x2c
 232 1 207 0 138 -3 c 1
 131 3 l 1
 103 126 88 185 -6 515 c 1
 0 523 l 1
 162 535 l 1
 168 530 l 1x94
 202 364 l 1
 226 256 l 1
 245 157 l 1
 264 249 l 1
 288 359 l 1
 321 523 l 1
 328 530 l 1
 520 533 l 1
 526 526 l 1
 561 353 l 1
 583 249 l 1
 600 160 l 1
 619 252 l 1x4c
 647 373 l 1
 676 523 l 1
 683 530 l 1
 813 533 l 1
 819 525 l 1
 808 484 797 442 785 401 c 0
 725 186 718 162 678 7 c 1x2c
EndSplineSet
Validated: 33
EndChar

StartChar: x
Encoding: 120 120 89
Width: 521
Flags: MW
HStem: -4 21G<328 328> -1 21G<10 10> 512 20 520 9<351 499>
VStem: 6 506<6 15>
LayerCount: 2
Fore
SplineSet
512 15 m 1x98
 508 6 l 1
 438 3 413 3 328 -4 c 1
 319 1 l 1x98
 290 62 281 80 243 148 c 1
 228 123 222 113 209 85 c 0
 195 59 182 31 169 6 c 1
 161 0 l 1
 10 -1 l 1
 6 6 l 1
 91 129 107 153 178 265 c 1
 72 430 60 448 15 512 c 1
 21 520 l 1
 106 524 124 526 201 532 c 1
 208 526 l 1x68
 218 504 250 443 265 412 c 0
 269 404 273 397 277 389 c 1
 303 438 310 452 343 522 c 1
 351 529 l 1
 495 529 l 1
 499 520 l 1
 461 465 390 356 342 283 c 1
 358 257 364 247 389 207 c 0
 407 179 493 46 512 15 c 1x98
EndSplineSet
Validated: 1
EndChar

StartChar: y
Encoding: 121 121 90
Width: 500
Flags: MW
HStem: -246 21G<157 182.5> 513 20G<507 507> 515 20G<171 171>
VStem: -11 522<519 525>
LayerCount: 2
Fore
SplineSet
507 533 m 1xd0
 511 525 l 1xd0
 497 486 482 447 467 407 c 0
 335 59 308 -25 253 -241 c 1
 246 -247 l 1
 221 -247 195 -246 170 -246 c 0
 144 -246 116 -247 91 -248 c 1
 86 -240 l 1
 131 -141 139 -123 180 -19 c 1
 118 173 25 424 -11 519 c 1
 -6 526 l 1
 76 528 93 529 171 535 c 1
 179 529 l 1xb0
 219 377 l 1
 248 271 l 1
 267 200 l 1
 289 275 l 1
 315 361 l 2
 339 439 343 454 360 523 c 1
 368 530 l 1
 507 533 l 1xd0
EndSplineSet
Validated: 1
EndChar

StartChar: z
Encoding: 122 122 91
Width: 479
Flags: MW
HStem: 0 115.5 415 116
VStem: 19 437
LayerCount: 2
Fore
SplineSet
444 4 m 1
 436 0 l 1
 23 0 l 1
 19 7 l 1
 153 269 168 299 223 416 c 1
 45 414 l 1
 40 420 l 1
 50 524 l 1
 55 531 l 1
 451 531 l 1
 456 522 l 1
 426 461 388 386 353 319 c 0
 303 219 286 182 255 112 c 1
 448 119 l 1
 454 114 l 1
 444 4 l 1
EndSplineSet
Validated: 1
EndChar

StartChar: braceleft
Encoding: 123 123 92
Width: 354
Flags: MW
HStem: -218 64<356 356> 702 64<356 356>
VStem: 109 143<-8 14 14 46 -16.5 84 -16.5 113 487.5 502 502 534>
LayerCount: 2
Fore
SplineSet
35 245 m 1
 35 303 l 1
 59 310 79 316 96 351 c 0
 108 377 109 406 109 464 c 2
 109 556 l 2
 109 651 115 689 149 724 c 0
 183 758 219 765 356 766 c 1
 356 702 l 1
 328 695 292 687 270 651 c 0
 254 627 252 595 252 534 c 2
 252 502 l 2
 252 473 252 443 251 414 c 0
 247 313 209 290 156 274 c 1
 209 258 247 235 251 134 c 0
 252 105 252 75 252 46 c 2
 252 14 l 2
 252 -47 254 -79 270 -103 c 0
 292 -139 328 -147 356 -154 c 1
 356 -218 l 1
 219 -217 183 -210 149 -176 c 0
 115 -141 109 -103 109 -8 c 2
 109 84 l 2
 109 142 108 171 96 197 c 0
 79 232 59 238 35 245 c 1
EndSplineSet
Validated: 1
EndChar

StartChar: bar
Encoding: 124 124 93
Width: 229
Flags: MW
HStem: -250 21G<63 166 63 63>
VStem: 63 103<-250 750 -250 750>
LayerCount: 2
Fore
SplineSet
166 750 m 1
 166 -250 l 1
 63 -250 l 1
 63 750 l 1
 166 750 l 1
EndSplineSet
Validated: 1
EndChar

StartChar: braceright
Encoding: 125 125 94
Width: 354
Flags: MW
HStem: -218 64<-2 -2> 702 64<-2 -2>
VStem: 102 143<14 46 46 60.5 502 534 534 556>
LayerCount: 2
Fore
SplineSet
319 303 m 1
 319 245 l 1
 295 238 275 232 258 197 c 0
 246 171 245 142 245 84 c 2
 245 -8 l 2
 245 -103 239 -141 205 -176 c 0
 171 -210 135 -217 -2 -218 c 1
 -2 -154 l 1
 26 -147 62 -139 84 -103 c 0
 100 -79 102 -47 102 14 c 2
 102 46 l 2
 102 75 102 105 103 134 c 0
 107 235 145 258 198 274 c 1
 145 290 107 313 103 414 c 0
 102 443 102 473 102 502 c 2
 102 534 l 2
 102 595 100 627 84 651 c 0
 62 687 26 695 -2 702 c 1
 -2 766 l 1
 135 765 171 758 205 724 c 0
 239 689 245 651 245 556 c 2
 245 464 l 2
 245 406 246 377 258 351 c 0
 275 316 295 310 319 303 c 1
EndSplineSet
Validated: 1
EndChar

StartChar: asciitilde
Encoding: 126 126 95
Width: 729
Flags: MW
HStem: 207 108<459.5 492.5 459.5 505> 276 108<240 273>
VStem: 113 503<288 295>
LayerCount: 2
Fore
SplineSet
570 377 m 1xa0
 616 288 l 1
 592 262 541 207 469 207 c 0
 434 207 406 220 366 239 c 2xa0
 337 253 l 2
 309 266 286 276 260 276 c 0
 220 276 204 258 161 208 c 1
 113 295 l 1
 128 317 173 384 258 384 c 0
 295 384 322 372 365 352 c 2x60
 399 336 l 2
 420 327 447 315 472 315 c 0
 513 315 545 347 570 377 c 1xa0
EndSplineSet
Validated: 1
EndChar

StartChar: exclamdown
Encoding: 161 161 96
Width: 292
Flags: MW
HStem: -3 21G<38 38> 618 151.5
VStem: 41 169<625 763 763 763>
LayerCount: 2
Fore
SplineSet
47 615 m 1
 41 620 l 1
 41 763 l 1
 46 768 l 1
 205 771 l 1
 210 764 l 1
 210 625 l 1
 203 618 l 1
 137 618 119 618 47 615 c 1
56 512 m 1
 63 521 l 1
 184 526 l 1
 190 519 l 1
 196 352 202 176 220 19 c 1
 214 12 l 1
 38 -3 l 1
 31 3 l 1
 42 172 54 346 56 512 c 1
EndSplineSet
Validated: 1
EndChar

StartChar: cent
Encoding: 162 162 97
Width: 500
Flags: MW
HStem: -9 117<316.5 320.5> 0 21G 408 131<297 297> 510 20G
VStem: 35 160<224.5 273 224.5 347.5>
LayerCount: 2
Fore
SplineSet
436 146 m 1x98
 446 140 l 1
 441 89 440 76 439 26 c 1
 432 18 l 1
 390 -1 344 -9 297 -9 c 0
 290 -9 282 -9 267 -8 c 1
 258 -43 256 -53 250 -85 c 1
 244 -91 l 1
 214 -90 206 -90 177 -91 c 1
 172 -85 l 1xa8
 184 -46 191 -21 198 0 c 1
 66 35 35 159 35 251 c 0
 35 444 151 539 295 539 c 0
 305 539 314 539 329 538 c 1
 336 571 337 574 342 605 c 1
 349 611 l 1
 384 611 388 611 415 612 c 1
 420 605 l 1x68
 410 575 407 563 399 530 c 1
 421 527 427 526 452 519 c 1
 457 512 l 1
 449 458 447 443 442 385 c 1
 433 381 l 1
 402 396 394 399 368 404 c 1
 296 112 l 1
 303 110 310 108 323 108 c 0
 378 108 413 131 436 146 c 1x98
231 147 m 1
 297 408 l 1
 281 407 243 403 217 356 c 0
 202 329 195 288 195 258 c 0
 195 191 221 160 231 147 c 1
EndSplineSet
Validated: 33
EndChar

StartChar: sterling
Encoding: 163 163 98
Width: 521
Flags: MW
HStem: 0 111<226 279.5 226 477> 295.5 96.5 297 98 567 119<312.5 361.5 312.5 390>
VStem: 21 9 82 165<394 477.5> 87 159<296 298>
LayerCount: 2
Fore
SplineSet
483 114 m 1xbc
 488 109 l 1
 483 8 l 1
 477 0 l 1
 46 0 l 1
 39 10 l 1
 59 69 82 139 87 296 c 1xda
 24 295 l 1
 19 301 l 1
 23 387 l 1
 30 393 l 1
 85 391 l 1
 84 416 82 444 82 467 c 0xdc
 82 488 83 547 111 592 c 0
 168 686 295 686 330 686 c 0
 393 686 434 676 485 662 c 1
 489 655 l 1
 481 549 l 1
 472 544 l 1
 441 556 414 567 366 567 c 0
 248 567 247 483 247 425 c 2
 247 394 l 1xbc
 427 396 l 1
 433 390 l 1
 426 302 l 1
 420 296 l 1
 246 298 l 1
 243 212 241 191 226 111 c 1xba
 333 111 366 111 483 114 c 1xbc
EndSplineSet
Validated: 1
EndChar

StartChar: fraction
Encoding: 8260 8260 99
AltUni2: 002215.ffffffff.0
Width: 125
Flags: MW
HStem: -2 9<-127 -121> 688 20G<248 248>
VStem: -127 379
LayerCount: 2
Fore
SplineSet
-40 7 m 1
 -47 0 l 1
 -121 -2 l 1
 -127 7 l 1
 -60 151 -52 169 81 485 c 0
 138 622 145 638 167 699 c 1
 175 706 l 1
 248 708 l 1
 252 699 l 1
 136 445 -16 74 -40 7 c 1
EndSplineSet
Validated: 1
EndChar

StartChar: yen
Encoding: 165 165 100
Width: 583
Flags: MW
HStem: 1 21G<341.5 378> 149 96<142 215 205 214 379 428 428 453 379 379> 321 7<77 94> 322 96<396 477> 656 20G<435 468.5> 659 20G<580 580> 662 20G<180 180>
VStem: 211.5 167.5 215 163<245 284 284 284> 506 11
LayerCount: 2
Fore
SplineSet
512 154 m 1xd2c0
 506 148 l 1
 480 149 477 149 453 149 c 2
 379 149 l 1
 380 84 381 55 384 6 c 1
 378 1 l 1
 305 1 289 1 214 -2 c 1
 209 3 l 1
 211 52 213 100 214 149 c 1
 161 149 l 2xd340
 123 149 108 149 83 148 c 1
 77 156 l 1
 81 190 82 199 83 240 c 1
 89 246 l 1
 107 246 195 245 215 245 c 1
 215 284 l 1
 205 303 204 305 194 322 c 1
 114 321 105 321 83 321 c 1
 77 328 l 1
 81 363 82 371 83 412 c 1
 89 419 l 1
 98 419 132 419 141 418 c 1
 100 492 90 509 0 668 c 1
 3 675 l 1
 83 677 99 677 180 682 c 1
 186 678 l 1xe2c0
 203 641 222 599 248 546 c 0
 257 528 302 441 311 421 c 1
 356 510 412 632 429 670 c 1
 435 676 l 1xd8c0
 502 676 516 676 580 679 c 1
 584 672 l 1xd4c0
 546 602 486 489 448 418 c 1
 477 418 l 2
 491 418 494 419 511 420 c 1
 517 414 l 1
 514 374 514 365 512 327 c 1
 506 321 l 1
 499 321 432 322 396 322 c 1
 394 317 380 292 378 287 c 2
 378 245 l 1
 428 245 l 1
 461 245 l 2
 484 245 495 246 511 247 c 1
 517 241 l 1
 514 201 514 193 512 154 c 1xd2c0
EndSplineSet
Validated: 1
EndChar

StartChar: florin
Encoding: 402 402 101
Width: 458
Flags: MW
HStem: -197 124<45 56.5 22 111> 308 111<105 132> 412 8<383 388> 565 124<336 348 277.5 371>
VStem: -21 8<-71 -66> 135 160.5 406 8<558 563>
LayerCount: 2
Fore
SplineSet
99 73 m 1xbe
 122 308 l 1
 88 308 78 307 46 306 c 1
 40 312 l 1
 47 357 49 368 55 414 c 1
 62 421 l 1
 78 420 98 420 132 419 c 1
 138 474 l 2xde
 145 536 148 567 159 595 c 0
 183 656 233 689 322 689 c 0
 374 689 408 681 428 676 c 1
 433 667 l 1
 424 622 421 608 414 563 c 1
 406 558 l 1
 397 560 380 565 362 565 c 0
 310 565 307 533 297 454 c 2
 294 418 l 1
 332 419 344 419 383 420 c 1
 388 412 l 1
 381 371 380 365 372 312 c 1
 365 305 l 1
 324 306 310 306 284 306 c 1
 255 18 l 2
 247 -49 244 -77 234 -103 c 0
 208 -169 151 -197 71 -197 c 0
 19 -197 -13 -189 -35 -184 c 1
 -40 -175 l 1
 -31 -130 -29 -116 -21 -71 c 1
 -13 -66 l 1
 -4 -68 13 -73 31 -73 c 0
 82 -73 86 -41 95 37 c 2
 99 73 l 1xbe
EndSplineSet
Validated: 1
EndChar

StartChar: section
Encoding: 167 167 102
Width: 542
Flags: MW
HStem: -153 116<203.5 251.5 199.5 317.5> 610 114<289.5 323.5 274 337> 669 20G<464 464>
VStem: 29 130<234.5 336> 71 162<545 576.5 545 579.5> 315 162<0.5 33.5> 377 134<249 351.5>
LayerCount: 2
Fore
SplineSet
349 478 m 2xb4
 380 463 l 2
 433 439 511 402 511 301 c 0
 511 279 507 257 498 236 c 0xb2
 479 190 454 168 423 142 c 1
 450 113 477 84 477 25 c 0
 477 -73 397 -153 238 -153 c 0
 169 -153 123 -138 70 -120 c 1
 65 -112 l 1
 73 -2 l 1
 82 3 l 1
 123 -16 170 -37 229 -37 c 0
 274 -37 315 -17 315 18 c 0
 315 49 289 61 231 88 c 2
 194 105 l 2
 119 139 29 181 29 288 c 0
 29 311 34 348 54 383 c 0xb4
 75 417 97 433 120 447 c 1
 95 472 71 495 71 557 c 0
 71 602 90 645 125 675 c 0
 182 724 260 724 288 724 c 0xcc
 359 724 406 711 458 696 c 1
 464 689 l 1xb4
 454 582 l 1
 445 577 l 1
 418 588 366 610 308 610 c 0
 271 610 233 593 233 560 c 0
 233 530 266 515 306 498 c 0xcc
 320 491 334 485 349 478 c 2xb4
244 239 m 2
 331 197 l 1
 347 209 377 231 377 267 c 0
 377 307 344 323 279 354 c 2
 251 366 l 1
 204 389 l 1
 182 371 159 352 159 320 c 0
 159 283 186 269 244 239 c 2
EndSplineSet
Validated: 1
EndChar

StartChar: currency
Encoding: 164 164 103
Width: 667
Flags: MW
HStem: 62 100<293 371> 516 100<297.5 372.5 297.5 377.5>
VStem: 56 102<301.5 377.5> 508 102
LayerCount: 2
Fore
SplineSet
642 569 m 1
 563 492 l 1
 588 451 610 415 610 342 c 0
 610 257 582 216 562 185 c 1
 641 106 l 1
 563 29 l 1
 485 108 l 1
 444 84 408 62 334 62 c 0
 252 62 206 92 180 109 c 1
 101 31 l 1
 24 108 l 1
 104 186 l 1
 77 229 56 263 56 340 c 0
 56 415 77 449 103 492 c 1
 26 570 l 1
 102 646 l 1
 180 569 l 1
 222 594 259 616 336 616 c 0
 409 616 444 594 486 569 c 1
 564 646 l 1
 642 569 l 1
508 339 m 0
 509 448 421 516 334 516 c 0
 242 516 158 449 158 338 c 0
 158 234 241 162 333 162 c 0
 430 162 507 235 508 339 c 0
EndSplineSet
Validated: 33
EndChar

StartChar: quotesingle
Encoding: 39 39 104
Width: 208
Flags: MW
HStem: 421 328<94 118 91 122.5>
VStem: 43 122<680 711> 43 123
LayerCount: 2
Fore
SplineSet
165 680 m 2xc0
 118 421 l 1
 91 421 l 1
 44 668 l 2
 43 676 43 683 43 690 c 0
 43 732 80 749 108 749 c 0
 137 749 153 731 157 726 c 0
 168 711 166 694 165 680 c 2xc0
EndSplineSet
Validated: 33
EndChar

StartChar: quotedblleft
Encoding: 8220 8220 105
Width: 479
Flags: MW
HStem: 503 262 505.5 258
VStem: 12 449<509 758>
LayerCount: 2
Fore
SplineSet
16 503 m 1x60
 12 509 l 1
 46 579 68 628 125 757 c 1
 132 763 l 1
 248 764 l 1
 251 757 l 1
 217 653 209 625 185 514 c 1
 180 508 l 1
 16 503 l 1x60
228 504 m 1
 224 510 l 1
 241 544 253 570 276 621 c 0
 285 640 327 736 337 757 c 1
 344 763 l 1
 457 765 l 1
 461 758 l 1
 425 645 417 617 396 515 c 1
 390 509 l 1
 228 504 l 1
EndSplineSet
Validated: 1
EndChar

StartChar: guillemotleft
Encoding: 171 171 106
Width: 521
Flags: MW
HStem: 471 7.5
VStem: 31 431<276 472 286 472>
LayerCount: 2
Fore
SplineSet
132 471 m 1
 139 477 l 1
 258 480 l 1
 263 471 l 1
 244 439 170 298 163 284 c 1
 194 223 201 211 263 103 c 1
 258 92 l 1
 142 87 l 1
 134 92 l 1
 113 135 108 144 64 218 c 2
 31 276 l 1
 31 286 l 1
 80 372 96 401 132 471 c 1
325 470 m 1
 332 475 l 1
 457 480 l 1
 462 472 l 1
 453 455 409 375 399 357 c 0
 374 312 371 307 360 283 c 1
 365 274 369 264 374 255 c 0
 395 212 435 144 458 102 c 1
 454 92 l 1
 338 87 l 1
 330 91 l 1
 305 141 257 226 227 278 c 1
 227 289 l 1
 288 396 299 419 325 470 c 1
EndSplineSet
Validated: 1
EndChar

StartChar: guilsinglleft
Encoding: 8249 8249 107
Width: 333
Flags: MW
HStem: 87 393<148 263>
VStem: 37 232<276 471 286 471>
LayerCount: 2
Fore
SplineSet
138 471 m 1
 145 477 l 1
 200 477 206 478 263 480 c 1
 269 471 l 1
 265 465 187 322 169 284 c 1
 192 238 200 225 268 103 c 1
 264 92 l 1
 213 90 197 90 148 87 c 1
 140 92 l 1
 128 117 120 133 96 175 c 0
 86 191 37 276 37 276 c 1
 37 286 l 1
 57 321 109 413 138 471 c 1
EndSplineSet
Validated: 1
EndChar

StartChar: guilsinglright
Encoding: 8250 8250 108
Width: 333
Flags: MW
HStem: 87 393<70 185>
VStem: 65 232<96 291 281 464>
LayerCount: 2
Fore
SplineSet
195 96 m 1
 189 90 l 1
 134 90 127 89 70 87 c 1
 65 96 l 1
 68 102 146 245 164 283 c 1
 141 330 133 343 65 464 c 1
 69 475 l 1
 120 477 137 477 185 480 c 1
 193 475 l 1
 205 451 213 434 238 393 c 0
 247 376 297 291 297 291 c 1
 297 281 l 1
 276 246 225 154 195 96 c 1
EndSplineSet
Validated: 1
EndChar

StartChar: fi
Encoding: 64257 64257 109
Width: 646
Flags: MW
HStem: -3 7<79 85> 0 21G<254 254> 1 21G<550 588> 415 115<250 250> 510 20G<85 85 250 340 340 340> 517 20G<589 589> 525 20G<583 583> 763 20G<576 576> 784 10
VStem: 84 176 410 169<515 672 641 687.5> 415 171<221 328>
LayerCount: 2
Fore
SplineSet
260 7 m 1x90d0
 254 0 l 1x44d0
 181 1 154 0 85 -3 c 1
 79 4 l 1
 83 73 83 98 84 228 c 0
 85 348 85 361 85 416 c 1
 9 414 l 1
 3 420 l 1
 8 465 10 480 13 526 c 1
 19 532 l 1
 85 530 l 1
 84 590 l 2
 84 601 83 613 84 625 c 0
 85 662 91 743 185 779 c 0
 217 792 252 794 286 794 c 0
 315 794 331 793 357 791 c 1
 362 784 l 1
 357 731 356 719 353 671 c 1
 346 667 l 1
 323 669 321 669 315 669 c 0
 297 669 268 666 255 625 c 0
 251 611 251 604 250 553 c 2
 250 530 l 1x90d0
 279 529 295 529 340 530 c 1
 345 524 l 1x82d0
 340 477 338 460 336 418 c 1
 329 411 l 1
 296 414 289 414 250 415 c 1
 248 285 251 143 260 7 c 1x90d0
595 7 m 1
 588 1 l 1x30d0
 512 1 485 0 415 -3 c 1
 409 4 l 1
 412 70 415 143 415 252 c 0
 415 404 410 454 404 509 c 1
 410 515 l 1x88d0
 488 528 503 530 583 545 c 1
 589 537 l 1
 588 470 586 411 586 313 c 0
 586 129 591 56 595 7 c 1
579 641 m 1x9160
 574 634 l 1
 509 626 489 624 415 611 c 1
 409 617 l 1
 410 674 l 2
 410 701 409 722 407 756 c 1
 413 762 l 1
 485 771 496 772 576 783 c 1
 582 777 l 1
 579 714 579 703 579 641 c 1x9160
EndSplineSet
Validated: 33
EndChar

StartChar: fl
Encoding: 64258 64258 110
Width: 646
Flags: MW
HStem: -3 7<79 85> 0 21G<254 254> 1 21G<551 584> 415 115<250 250> 764 20G 771 20G 784 10
VStem: 83 167<530 595.5> 84 176 417 163
LayerCount: 2
Fore
SplineSet
260 7 m 1x92c0
 254 0 l 1x54c0
 181 1 154 0 85 -3 c 1
 79 4 l 1
 83 73 83 98 84 228 c 0
 85 348 85 361 85 416 c 1
 9 414 l 1
 3 420 l 1
 8 465 10 480 13 526 c 1
 19 532 l 1x92c0
 84 530 l 1
 83 590 l 2
 83 601 83 613 84 625 c 0
 85 662 91 743 185 779 c 0
 217 792 252 794 286 794 c 0
 315 794 331 793 357 791 c 1
 362 784 l 1
 357 731 356 719 353 671 c 1
 346 667 l 1
 323 669 321 669 315 669 c 0
 297 669 268 666 255 625 c 0
 251 611 251 604 250 553 c 2
 250 530 l 1
 279 529 294 529 340 530 c 1
 345 524 l 1
 340 477 338 460 336 418 c 1
 329 411 l 1x9340
 296 414 289 414 250 415 c 1
 248 285 251 143 260 7 c 1x92c0
590 7 m 1
 584 1 l 1x32c0
 518 1 496 1 417 -3 c 1
 411 4 l 1
 414 54 417 120 417 264 c 0
 417 379 417 493 413 607 c 0
 411 682 407 720 403 764 c 1
 408 771 l 1x98c0
 480 781 496 783 579 797 c 1
 585 791 l 1
 582 710 580 633 580 537 c 0
 580 472 581 407 582 342 c 0
 583 204 584 118 590 7 c 1
EndSplineSet
Validated: 33
EndChar

StartChar: endash
Encoding: 8211 8211 111
Width: 583
Flags: MW
HStem: 220 125 227 21G<34 34>
VStem: 34 515<227 340>
LayerCount: 2
Fore
SplineSet
543 347 m 1xa0
 549 340 l 1
 539 224 l 1
 533 217 l 1xa0
 322 221 269 221 39 220 c 1
 34 227 l 1x60
 44 340 l 1
 51 347 l 1
 129 346 210 345 287 345 c 0
 373 345 458 346 543 347 c 1xa0
EndSplineSet
Validated: 33
EndChar

StartChar: dagger
Encoding: 8224 8224 112
Width: 542
Flags: MW
HStem: 402.5 117.5 512 7 757 7.5
VStem: 26 9 196 152 506 9.5
LayerCount: 2
Fore
SplineSet
513 407 m 1xac
 506 400 l 1
 349 402 l 1
 349 333 348 264 348 195 c 0
 348 60 350 -21 355 -172 c 1
 349 -180 l 1
 196 -183 l 1
 190 -176 l 1
 193 -118 193 -100 194 -19 c 0
 195 121 195 262 196 403 c 1
 30 402 l 1
 24 409 l 1
 28 513 l 1
 35 521 l 1
 197 519 l 1
 198 629 197 654 192 756 c 1
 199 764 l 1
 347 765 l 1
 352 757 l 1
 348 657 348 629 349 518 c 1xbc
 512 520 l 1
 518 512 l 1x6c
 513 407 l 1xac
EndSplineSet
Validated: 33
EndChar

StartChar: daggerdbl
Encoding: 8225 8225 113
Width: 542
Flags: MW
HStem: -182 7<189 195> 61 116<156.5 196> 432 116<196 196> 522 20G<517 517> 757 8<347 353>
VStem: 24 11 192 7 197 150<177 321.5 275 321.5> 505 7<59 65>
LayerCount: 2
Fore
SplineSet
512 436 m 1xde80
 505 430 l 1
 416 431 406 431 349 431 c 1
 349 421 348 410 348 399 c 0
 348 368 347 337 347 306 c 0
 347 287 348 197 348 177 c 1
 410 177 436 177 512 178 c 1
 517 171 l 1
 515 137 514 111 512 65 c 1
 505 59 l 1
 416 60 406 60 348 60 c 1
 348 -14 349 -88 354 -171 c 1
 348 -179 l 1
 273 -180 264 -180 195 -182 c 1
 189 -175 l 1
 194 -96 196 -18 196 61 c 1
 116 61 103 61 29 60 c 1
 23 67 l 1
 24 82 27 155 28 171 c 1
 34 179 l 1
 108 178 116 177 197 177 c 1
 197 275 l 2
 197 297 196 407 196 432 c 1xed80
 116 432 103 432 30 431 c 1
 24 438 l 1
 24 453 27 526 28 543 c 1
 35 550 l 1
 108 549 117 549 197 548 c 1
 198 567 198 667 192 755 c 1
 199 764 l 1
 263 763 278 763 347 765 c 1
 353 757 l 1
 348 684 348 566 349 548 c 1xee80
 410 548 437 548 512 549 c 1
 517 542 l 1
 516 508 514 482 512 436 c 1xde80
EndSplineSet
Validated: 33
EndChar

StartChar: periodcentered
Encoding: 183 183 114
AltUni2: 002219.ffffffff.0
Width: 250
Flags: MW
HStem: 206.5 153 351 8.5
VStem: 40 170
LayerCount: 2
Fore
SplineSet
204 361 m 1x60
 209 355 l 1x60
 211 214 l 1
 206 209 l 1
 46 204 l 1
 41 211 l 1xa0
 39 351 l 1
 44 358 l 1
 204 361 l 1x60
EndSplineSet
Validated: 1
EndChar

StartChar: paragraph
Encoding: 182 182 115
Width: 667
Flags: MW
HStem: 640 66<312 443 312 312 514 549 514 514>
VStem: 241 71<-167 306 306 306> 443 71<-167 640 -167 640>
LayerCount: 2
Fore
SplineSet
309 706 m 2
 549 706 l 1
 549 640 l 1
 514 640 l 1
 514 -167 l 1
 443 -167 l 1
 443 640 l 1
 312 640 l 1
 312 -167 l 1
 241 -167 l 1
 241 306 l 1
 204 315 165 324 129 367 c 0
 98 403 85 451 85 499 c 0
 85 572 114 614 130 633 c 0
 187 704 262 705 309 706 c 2
EndSplineSet
Validated: 1
EndChar

StartChar: bullet
Encoding: 8226 8226 116
Width: 333
Flags: MW
HStem: 210 285<127.5 209.5 127.5 213>
VStem: 24 285<316 353 314.5 391.5>
LayerCount: 2
Fore
SplineSet
309 353 m 0
 309 276 256 210 170 210 c 0
 82 210 24 279 24 353 c 0
 24 430 87 495 168 495 c 0
 251 495 310 432 309 353 c 0
EndSplineSet
Validated: 33
EndChar

StartChar: quotesinglbase
Encoding: 8218 8218 117
Width: 250
Flags: MW
HStem: -106 261<-2 227> -105 257.5
VStem: -6 237
LayerCount: 2
Fore
SplineSet
227 155 m 1x60
 231 148 l 1
 210 106 202 90 174 28 c 0
 155 -13 136 -56 117 -98 c 1
 111 -104 l 1
 -2 -106 l 1
 -6 -100 l 1
 31 17 38 42 59 143 c 1
 65 150 l 1
 227 155 l 1x60
EndSplineSet
Validated: 1
EndChar

StartChar: quotedblbase
Encoding: 8222 8222 118
Width: 479
Flags: MW
HStem: -105 257.5
VStem: 18 449<-99 149>
LayerCount: 2
Fore
SplineSet
463 155 m 1
 467 149 l 1
 438 87 429 69 354 -99 c 1
 348 -104 l 1
 232 -106 l 1
 228 -99 l 1
 263 10 271 37 294 144 c 1
 299 150 l 1
 463 155 l 1
251 155 m 1
 255 149 l 1
 223 84 212 59 194 19 c 0
 175 -23 150 -80 142 -98 c 1
 135 -104 l 1
 22 -106 l 1
 18 -99 l 1
 57 21 64 50 84 144 c 1
 89 150 l 1
 251 155 l 1
EndSplineSet
Validated: 1
EndChar

StartChar: quotedblright
Encoding: 8221 8221 119
Width: 479
Flags: MW
HStem: 503 262<22 251> 505 257.5
VStem: 18 449<510 759>
LayerCount: 2
Fore
SplineSet
463 765 m 1x60
 467 759 l 1
 438 699 430 680 354 511 c 1
 348 506 l 1
 232 504 l 1
 228 511 l 1
 263 620 271 647 294 754 c 1
 299 760 l 1
 463 765 l 1x60
251 765 m 1
 255 758 l 1
 223 693 212 669 194 629 c 0
 155 541 151 532 142 511 c 1
 135 506 l 1
 22 503 l 1
 18 510 l 1
 57 630 64 659 84 753 c 1
 89 759 l 1
 251 765 l 1
EndSplineSet
Validated: 1
EndChar

StartChar: guillemotright
Encoding: 187 187 120
Width: 521
Flags: MW
HStem: 464 13.5
VStem: 59 431<96 291>
LayerCount: 2
Fore
SplineSet
389 96 m 1
 382 90 l 1
 263 87 l 1
 258 96 l 1
 272 120 341 248 357 283 c 1
 327 343 279 429 258 464 c 1
 263 475 l 1
 379 480 l 1
 386 475 l 1
 401 447 414 422 429 395 c 0
 438 380 481 308 490 291 c 1
 490 281 l 1
 461 230 411 141 389 96 c 1
196 97 m 1
 189 92 l 1
 64 87 l 1
 59 96 l 1
 84 139 146 253 160 283 c 1
 143 322 135 336 63 465 c 1
 67 475 l 1
 183 480 l 1
 190 476 l 1
 211 436 219 421 294 289 c 1
 294 278 l 1
 230 166 216 138 196 97 c 1
EndSplineSet
Validated: 1
EndChar

StartChar: ellipsis
Encoding: 8230 8230 121
Width: 1000
Flags: MW
HStem: -6 136<152.5 185 149 187 484 518.5 817 851.5>
VStem: 99 136<44 63 44 82.5> 432 136<46.5 63 46.5 81.5> 765 136<46.5 63 46.5 81.5>
CounterMasks: 1 70
LayerCount: 2
Fore
SplineSet
901 63 m 0
 901 30 877 -6 833 -6 c 0
 801 -6 765 19 765 61 c 0
 765 102 796 130 834 130 c 0
 869 130 900 104 901 63 c 0
568 63 m 0
 568 30 544 -6 500 -6 c 0
 468 -6 432 19 432 61 c 0
 432 102 463 130 501 130 c 0
 536 130 567 104 568 63 c 0
235 63 m 0
 235 25 206 -6 168 -6 c 0
 137 -6 99 16 99 62 c 0
 99 103 132 130 166 130 c 0
 204 130 234 103 235 63 c 0
EndSplineSet
Validated: 1
EndChar

StartChar: perthousand
Encoding: 8240 8240 122
Width: 1312
Flags: MW
HStem: -8 78<701.5 737 701.5 801 1097 1133> 0 7 227 78<180.5 216 180.5 280.5> 372 78<711.5 747 1107.5 1143> 608 78<190.5 226> 659 20G<651 651>
VStem: 22 117<417 463 401.5 473> 257 117 543 117<181 227 165.5 237.5> 778 117 939 117<181 227 165.5 237.5> 1174 117
LayerCount: 2
Fore
SplineSet
374 464 m 0x2b
 375 380 366 227 195 227 c 0
 29 227 22 384 22 450 c 0
 22 496 25 549 47 594 c 0
 87 678 167 686 202 686 c 0
 372 686 373 522 374 464 c 0x2b
257 470 m 0
 256 532 252 608 200 608 c 0
 181 608 167 597 158 581 c 0
 139 546 139 469 139 457 c 0
 139 346 161 305 200 305 c 0
 232 305 259 328 257 470 c 0
895 229 m 0x90c0
 896 143 886 -8 716 -8 c 0
 550 -8 543 147 543 215 c 0
 543 260 546 313 568 358 c 0
 608 442 688 450 723 450 c 0
 893 450 894 287 895 229 c 0x90c0
778 234 m 0
 777 296 773 372 721 372 c 0
 702 372 688 361 679 345 c 0
 660 310 660 233 660 221 c 0
 660 110 682 70 721 70 c 0
 753 70 780 93 778 234 c 0
1291 229 m 0x9030
 1292 143 1282 -8 1112 -8 c 0
 946 -8 939 147 939 215 c 0
 939 260 942 313 964 358 c 0
 1004 442 1084 450 1119 450 c 0
 1289 450 1290 287 1291 229 c 0x9030
1174 234 m 0
 1173 296 1169 372 1117 372 c 0
 1098 372 1084 361 1075 345 c 0
 1056 310 1056 233 1056 221 c 0
 1056 110 1077 70 1117 70 c 0
 1149 70 1176 93 1174 234 c 0
375 7 m 1x45
 368 0 l 1
 325 0 320 0 268 -1 c 1
 262 7 l 1
 311 113 358 221 404 328 c 0
 452 442 500 555 544 670 c 1
 552 677 l 1
 605 678 611 678 651 679 c 1
 655 670 l 1
 601 551 525 385 375 7 c 1x45
EndSplineSet
Validated: 33
EndChar

StartChar: questiondown
Encoding: 191 191 123
Width: 458
Flags: MW
HStem: -3 124<281 293.5> 530 7<327 332> 616.5 152.5
VStem: 30 168<185.5 235> 174 170.5
LayerCount: 2
Fore
SplineSet
180 615 m 1xe8
 175 620 l 1
 173 761 l 1
 178 767 l 1
 338 771 l 1
 343 765 l 1
 346 625 l 1
 341 618 l 1
 180 615 l 1xe8
178 524 m 1
 184 532 l 1
 250 533 265 533 327 537 c 1
 332 530 l 1
 328 485 320 466 284 414 c 2
 249 364 l 2
 226 329 198 286 198 228 c 0
 198 143 261 121 301 121 c 0
 363 121 401 148 429 169 c 1
 438 163 l 1
 433 37 l 1
 427 29 l 1
 370 11 329 -3 258 -3 c 0
 211 -3 172 3 139 18 c 0
 53 58 30 140 30 195 c 0
 30 275 68 333 96 376 c 2xf0
 132 429 l 2
 163 474 167 479 178 524 c 1
EndSplineSet
Validated: 1
EndChar

StartChar: grave
Encoding: 96 96 124
Width: 292
Flags: MW
HStem: 763 8<34 192>
VStem: 34 223<601 763>
LayerCount: 2
Fore
SplineSet
192 771 m 1
 198 767 l 1
 217 700 223 680 257 601 c 1
 252 594 l 1
 144 594 l 1
 137 598 l 1
 94 670 82 691 34 763 c 1
 38 771 l 1
 192 771 l 1
EndSplineSet
Validated: 1
EndChar

StartChar: acute
Encoding: 180 180 125
Width: 292
Flags: MW
HStem: 592 179
VStem: 32 227<598 765>
LayerCount: 2
Fore
SplineSet
256 772 m 1
 259 765 l 1
 227 716 182 647 151 596 c 1
 144 592 l 1
 36 592 l 1
 32 598 l 1
 62 667 70 687 93 765 c 1
 98 770 l 1
 256 772 l 1
EndSplineSet
Validated: 1
EndChar

StartChar: circumflex
Encoding: 710 710 126
Width: 292
Flags: MW
HStem: 594 178<58 87 -27 240>
VStem: -30 353<600 602>
LayerCount: 2
Fore
SplineSet
240 772 m 1
 246 767 l 1
 278 695 284 679 323 602 c 1
 320 596 l 1
 185 592 l 1
 179 597 l 1
 137 702 l 1
 93 599 l 1
 87 594 l 1
 -27 594 l 1
 -30 600 l 1
 14 682 23 702 52 767 c 1
 58 772 l 1
 240 772 l 1
EndSplineSet
Validated: 1
EndChar

StartChar: tilde
Encoding: 732 732 127
Width: 292
Flags: MW
HStem: 596 117<213 242 213 242> 636 116<47.5 76.5> 693 20G<213 242>
VStem: 311 7<643 758>
LayerCount: 2
Fore
SplineSet
311 758 m 1x30
 318 755 l 1
 318 643 l 1
 314 635 l 1
 291 617 264 596 220 596 c 0
 198 596 183 602 163 609 c 2x90
 133 620 l 2
 110 628 88 636 65 636 c 0
 30 636 2 617 -20 602 c 1
 -26 605 l 1
 -25 710 l 1
 -21 718 l 1
 1 735 21 752 67 752 c 0
 87 752 101 748 120 742 c 2x50
 159 728 l 2
 181 721 202 713 224 713 c 0
 260 713 289 739 311 758 c 1x30
EndSplineSet
Validated: 1
EndChar

StartChar: macron
Encoding: 175 175 128
AltUni2: 0002c9.ffffffff.0
Width: 292
Flags: MW
HStem: 616 97<156 168> 689 20G<323 323>
VStem: -31 354<621 709>
LayerCount: 2
Fore
SplineSet
318 715 m 1xa0
 323 709 l 1x60
 319 669 319 663 316 622 c 1
 310 615 l 1
 257 616 251 616 85 616 c 0
 63 616 17 616 -26 615 c 1
 -31 621 l 1
 -27 661 -26 676 -24 708 c 1
 -18 714 l 1
 52 713 121 713 191 713 c 0
 251 713 284 714 318 715 c 1xa0
EndSplineSet
Validated: 1
EndChar

StartChar: breve
Encoding: 728 728 129
Width: 292
Flags: MW
HStem: 597 103<122.5 156.5>
VStem: -19 116<731.5 759>
LayerCount: 2
Fore
SplineSet
306 762 m 1
 311 758 l 1
 309 734 306 699 283 663 c 0
 241 599 176 597 137 597 c 0
 -14 597 -19 714 -19 749 c 1
 -14 756 l 1
 38 757 49 759 91 763 c 1
 97 759 l 1
 97 739 99 700 146 700 c 0
 193 700 197 742 198 752 c 1
 204 757 l 1
 253 758 266 759 306 762 c 1
EndSplineSet
Validated: 1
EndChar

StartChar: dotaccent
Encoding: 729 729 130
Width: 292
Flags: MW
HStem: 595 141<76 216>
VStem: 73 147<594 740>
LayerCount: 2
Fore
SplineSet
215 744 m 1
 220 740 l 1
 220 680 220 665 221 601 c 1
 216 595 l 1
 152 593 140 592 79 588 c 1
 73 594 l 1
 73 658 73 666 71 730 c 1
 76 736 l 1
 143 739 149 740 215 744 c 1
EndSplineSet
Validated: 1
EndChar

StartChar: dieresis
Encoding: 168 168 131
Width: 292
Flags: MW
HStem: 592 147.5
VStem: -38.5 149.5 185 148
LayerCount: 2
Fore
SplineSet
328 744 m 1
 333 739 l 1
 333 601 l 1
 328 595 l 1
 192 587 l 1
 186 593 l 1
 184 730 l 1
 189 736 l 1
 328 744 l 1
106 743 m 1
 111 737 l 1
 111 602 l 1
 105 596 l 1
 -32 588 l 1
 -37 594 l 1
 -40 730 l 1
 -35 736 l 1
 106 743 l 1
EndSplineSet
Validated: 1
EndChar

StartChar: ring
Encoding: 730 730 132
Width: 292
Flags: MW
HStem: 575 57<135.5 155.5 135.5 181> 753 59<138 147.5>
VStem: 18 87<671.5 718 671.5 718> 183 90<698 698>
LayerCount: 2
Fore
SplineSet
273 698 m 0
 276 620 221 575 141 575 c 0
 61 575 18 627 18 689 c 0
 18 747 56 812 148 812 c 0
 244 812 271 748 273 698 c 0
183 698 m 0
 181 753 150 753 145 753 c 0
 131 753 105 743 105 693 c 0
 105 650 126 632 145 632 c 0
 166 632 185 653 183 698 c 0
EndSplineSet
Validated: 33
EndChar

StartChar: cedilla
Encoding: 184 184 133
Width: 292
Flags: MW
HStem: -185 150<126 188 58 234>
VStem: 55 182<-180 -41>
LayerCount: 2
Fore
SplineSet
234 -35 m 1
 237 -41 l 1
 218 -96 212 -114 194 -180 c 1
 188 -185 l 1
 58 -185 l 1
 55 -180 l 1
 121 -39 l 1
 126 -35 l 1
 234 -35 l 1
EndSplineSet
Validated: 1
EndChar

StartChar: hungarumlaut
Encoding: 733 733 134
Width: 292
Flags: MW
HStem: 592 178<-4 34.5 -4 42 -66 34.5 -4 140 202 240.5>
VStem: -70 433<598 765>
LayerCount: 2
Fore
SplineSet
153 772 m 1
 157 765 l 1
 112 696 97 674 49 596 c 1
 42 592 l 1
 -66 592 l 1
 -70 598 l 1
 -45 652 -26 708 -10 765 c 1
 -4 770 l 1
 73 770 85 770 153 772 c 1
359 772 m 1
 363 765 l 1
 318 696 303 674 255 596 c 1
 248 592 l 1
 140 592 l 1
 136 598 l 1
 161 652 180 708 196 765 c 1
 202 770 l 1
 279 770 291 770 359 772 c 1
EndSplineSet
Validated: 1
EndChar

StartChar: ogonek
Encoding: 731 731 135
Width: 292
Flags: MW
HStem: -191 83<111.5 196.5> -1 21G<224 224>
VStem: 35 103<-126.5 -63> 35 221<-89 -89 -89 -85>
LayerCount: 2
Fore
SplineSet
181 22 m 1xd0
 224 -1 l 1
 207 -5 190 -9 171 -21 c 0
 146 -36 138 -56 138 -70 c 0
 138 -91 155 -108 183 -108 c 0
 210 -108 230 -96 249 -85 c 1
 256 -89 l 1
 254 -116 253 -125 251 -160 c 1
 246 -167 l 1
 208 -186 174 -191 147 -191 c 0
 76 -191 35 -152 35 -101 c 0
 35 -69 53 -36 79 -18 c 0xe0
 99 -3 129 6 181 22 c 1xd0
EndSplineSet
Validated: 1
EndChar

StartChar: caron
Encoding: 711 711 136
Width: 292
Flags: MW
HStem: 593 178<52 320 206 234>
VStem: -30 353<763 766>
LayerCount: 2
Fore
SplineSet
52 593 m 1
 47 598 l 1
 13 675 6 690 -30 763 c 1
 -27 769 l 1
 108 773 l 1
 113 768 l 1
 156 663 l 1
 200 766 l 1
 206 771 l 1
 320 771 l 1
 323 766 l 1
 275 675 266 655 241 598 c 1
 234 593 l 1
 52 593 l 1
EndSplineSet
Validated: 1
EndChar

StartChar: emdash
Encoding: 8212 8212 137
Width: 771
Flags: MW
HStem: 221 124<327 382> 228 21G<35 35>
VStem: 35 702<228 342>
LayerCount: 2
Fore
SplineSet
729 349 m 1xa0
 737 342 l 1
 732 289 730 266 727 227 c 1
 721 220 l 1
 615 221 511 221 382 221 c 2xa0
 41 221 l 1
 35 228 l 1x60
 40 277 41 292 45 341 c 1
 53 348 l 1
 152 345 212 345 442 345 c 0
 611 345 658 347 729 349 c 1xa0
EndSplineSet
Validated: 1
EndChar

StartChar: AE
Encoding: 198 198 138
Width: 917
Flags: MW
HStem: -3 21G<6 6> 0 127<605 605 605 865> 195 122<292 434 248 435> 300 121 576 130 689 20G<289 317 866 866>
VStem: 435 170<0 127>
LayerCount: 2
Fore
SplineSet
879 129 m 1x5a
 872 6 l 1
 865 0 l 1
 435 0 l 1
 429 5 l 1x6a
 433 90 433 112 434 195 c 1
 248 195 l 1
 220 115 214 96 186 6 c 1
 179 0 l 1
 6 -3 l 1
 2 5 l 1
 41 100 121 297 173 426 c 0
 227 559 242 598 281 705 c 1
 289 709 l 1xa6
 345 709 415 708 484 707 c 0
 552 707 619 706 665 706 c 0x5a
 748 706 788 707 866 709 c 1
 871 703 l 1x56
 864 581 l 1
 858 575 l 1
 606 577 l 1
 604 421 l 1
 718 421 752 422 839 426 c 1
 845 420 l 1
 838 306 l 1
 831 300 l 1
 726 302 704 302 603 301 c 1
 605 127 l 1
 744 129 767 130 873 135 c 1
 879 129 l 1x5a
292 317 m 1
 435 317 l 1
 439 439 440 462 439 577 c 1
 389 577 l 1
 292 317 l 1
EndSplineSet
Validated: 33
EndChar

StartChar: ordfeminine
Encoding: 170 170 139
Width: 375
Flags: MW
HStem: 351 85<101.5 182.5> 359 21G<279 306 279 279 306 333> 633 79<165 197.5>
VStem: 21 112<460.5 488 460.5 515.5> 223 110<486.5 505>
LayerCount: 2
Fore
SplineSet
334 553 m 2x78
 333 505 l 2
 333 468 333 437 336 389 c 0
 336 385 338 365 338 364 c 2
 333 359 l 1
 306 359 l 1
 279 359 l 2
 271 358 236 357 229 357 c 1
 224 362 l 1x78
 224 382 l 1
 210 371 182 351 137 351 c 0xb8
 66 351 21 402 21 465 c 0
 21 566 126 587 221 598 c 1
 220 613 220 633 175 633 c 0
 146 633 112 625 85 615 c 0
 82 614 65 607 65 607 c 1
 58 611 l 1
 58 621 61 673 61 684 c 1
 66 689 l 1
 91 698 134 712 196 712 c 0
 338 712 336 631 334 553 c 2x78
223 452 m 1xb8
 223 526 l 1
 158 519 133 503 133 473 c 0
 133 448 151 436 173 436 c 0
 192 436 208 444 223 452 c 1xb8
EndSplineSet
Validated: 33
EndChar

StartChar: Lslash
Encoding: 321 321 140
Width: 521
Flags: MW
HStem: -3 133 0 21G<483 483> 524 20G<414 414> 686 20G<67 108.5> 690 20G<246 246>
VStem: 1 9<195 219> 68 178
LayerCount: 2
Fore
SplineSet
491 138 m 1xae
 496 132 l 1xae
 492 74 491 67 488 7 c 1
 483 0 l 1x6e
 287 1 251 1 71 -3 c 1
 65 3 l 1
 67 79 67 101 68 239 c 1
 43 220 37 216 10 195 c 1
 1 200 l 1
 1 238 1 251 0 294 c 1
 5 300 l 1
 36 317 45 323 68 338 c 1
 68 538 67 586 61 701 c 1
 67 706 l 1
 150 706 164 706 246 710 c 1
 252 704 l 1xb6
 250 669 249 602 246 445 c 1
 261 455 275 464 290 473 c 0
 329 498 368 523 405 550 c 1
 414 544 l 1
 411 502 411 497 411 449 c 1
 406 442 l 1
 384 427 271 356 246 340 c 1
 244 251 243 204 244 130 c 1
 263 130 l 2
 288 130 399 133 491 138 c 1xae
EndSplineSet
Validated: 33
EndChar

StartChar: Oslash
Encoding: 216 216 141
Width: 750
Flags: MW
HStem: -16 127<368.5 437 336 452> 526 20G<488 488> 603 118<359.5 404> 660 20G<733 733>
VStem: 41 182<346 394 346 417.5> 523 184<364.5 378.5>
LayerCount: 2
Fore
SplineSet
733 680 m 1xdc
 733 673 l 1
 721 662 665 606 652 594 c 1xdc
 673 557 707 495 707 374 c 0
 707 355 706 335 705 316 c 0
 700 263 687 176 635 104 c 0
 595 49 526 -16 378 -16 c 0
 359 -16 269 -14 202 22 c 0
 175 36 159 51 143 65 c 1
 130 51 109 28 70 -16 c 1
 62 -16 l 1
 1 43 l 1
 1 51 l 1
 32 83 66 115 88 136 c 1
 69 170 41 220 41 346 c 0
 41 489 82 573 138 631 c 0
 226 720 343 721 376 721 c 0
 506 721 561 679 591 656 c 1
 602 667 653 724 664 737 c 1
 671 738 l 1xec
 733 680 l 1xdc
517 455 m 1
 252 182 l 1
 267 159 297 111 375 111 c 0
 499 111 513 237 518 276 c 0
 521 304 523 332 523 361 c 0
 523 396 520 422 517 455 c 1
228 278 m 1
 488 546 l 1
 467 576 433 603 375 603 c 0
 335 603 303 587 284 570 c 0xec
 233 523 223 428 223 360 c 0
 223 332 225 309 228 278 c 1
EndSplineSet
Validated: 1
EndChar

StartChar: OE
Encoding: 338 338 142
Width: 958
Flags: MW
HStem: -4 135<404 430 404 452> 0 130<646 908 646 673> 302 124.5 577 129 580 126<402.5 635> 580 128<345 435>
VStem: 42 188<327 373 327 387.5> 471 173<578 578>
LayerCount: 2
Fore
SplineSet
886 424 m 1x71
 879 307 l 1
 872 302 l 1
 644 302 l 1
 646 130 l 1
 781 131 808 132 916 138 c 1
 921 132 l 1
 913 6 l 1
 908 0 l 1
 673 0 l 1x71
 452 -4 l 2
 353 -4 265 -1 193 39 c 0
 153 61 107 103 78 162 c 0
 50 220 42 293 42 343 c 0
 42 432 62 539 131 612 c 0
 211 697 300 708 390 708 c 0
 415 708 439 707 464 706 c 2
 635 706 l 1xb3
 907 709 l 1
 913 703 l 1x65
 905 581 l 1
 899 576 l 1
 644 578 l 1
 644 424 l 1
 881 429 l 1
 886 424 l 1x71
247 238 m 0xab
 287 132 385 131 423 131 c 0
 437 131 452 132 466 132 c 1
 472 328 473 369 471 578 c 1
 457 579 443 580 427 580 c 0
 378 580 289 575 249 469 c 0
 239 444 230 401 230 345 c 0
 230 309 234 272 247 238 c 0xab
EndSplineSet
Validated: 33
EndChar

StartChar: ordmasculine
Encoding: 186 186 143
Width: 396
Flags: MW
HStem: 350 73<186 221.5 172 259> 640 72<170 225.5>
VStem: 23 117<507 552 507 598.5> 256 116<531 554>
LayerCount: 2
Fore
SplineSet
372 531 m 0
 373 420 321 350 197 350 c 0
 175 350 126 351 89 375 c 0
 40 407 23 469 23 528 c 0
 23 669 105 712 203 712 c 0
 330 712 372 633 372 531 c 0
256 533 m 0
 256 575 252 640 199 640 c 0
 141 640 140 572 140 532 c 0
 140 482 146 423 198 423 c 0
 245 423 256 471 256 533 c 0
EndSplineSet
Validated: 33
EndChar

StartChar: ae
Encoding: 230 230 144
Width: 854
Flags: MW
HStem: -12 123<229.5 271> -11 115<573.5 670.5> 230 102<322 333 297.5 334> 435 107<236.5 288>
VStem: 30 156<155.5 195> 333 158<331 358> 666 154<237 333>
LayerCount: 2
Fore
SplineSet
783 24 m 1x7e
 777 17 l 1
 750 10 723 3 696 -2 c 0
 664 -8 632 -11 599 -11 c 0
 548 -11 496 -4 451 21 c 0x7e
 428 34 417 45 403 59 c 1
 370 31 320 -12 222 -12 c 0xbe
 64 -12 30 104 30 158 c 0
 30 232 69 267 86 281 c 0
 147 332 262 332 333 332 c 1
 333 384 332 435 244 435 c 0
 229 435 213 433 198 430 c 0
 144 421 119 410 81 393 c 1
 74 397 l 1
 80 499 l 1
 86 505 l 1
 128 520 190 542 278 542 c 0
 362 542 388 520 428 485 c 1
 466 514 503 542 591 542 c 0
 634 542 684 532 723 507 c 0
 812 450 818 344 820 237 c 1
 813 230 l 1
 493 230 l 1
 499 194 505 155 548 126 c 0
 581 105 623 104 637 104 c 0
 704 104 744 123 787 142 c 1
 794 137 l 1
 788 78 l 1
 783 24 l 1x7e
491 331 m 1
 666 333 l 1
 664 353 663 379 649 399 c 0
 646 404 626 434 580 434 c 0
 569 434 558 432 547 427 c 0
 500 406 494 362 491 331 c 1
349 151 m 1xbe
 338 184 336 193 334 230 c 1
 310 230 298 230 283 229 c 0
 261 229 186 227 186 167 c 0
 186 144 203 111 256 111 c 0
 303 111 326 131 349 151 c 1xbe
EndSplineSet
Validated: 1
EndChar

StartChar: dotlessi
Encoding: 305 305 145
Width: 292
Flags: MW
HStem: -3 7<55 61> 0 21G<234 234> 517 20G<235 235> 525 20G<228 228>
VStem: 61 171<212 323.5 212 327>
LayerCount: 2
Fore
SplineSet
241 7 m 1x98
 234 0 l 1x58
 153 1 133 0 61 -3 c 1
 55 4 l 1
 58 86 61 147 61 256 c 0
 61 398 58 433 50 509 c 1
 56 515 l 1
 228 545 l 1
 235 537 l 1xa8
 234 452 232 366 232 281 c 0
 232 143 236 84 241 7 c 1x98
EndSplineSet
Validated: 33
EndChar

StartChar: lslash
Encoding: 322 322 146
Width: 292
Flags: MW
HStem: -3 21G<63 63> 0 21G<197 230> 771 20G 778 20G<224 224>
VStem: 61 165 62 167
LayerCount: 2
Fore
SplineSet
236 7 m 1x54
 230 0 l 1x54
 164 0 142 0 63 -3 c 1
 57 4 l 1
 60 82 61 105 62 321 c 1
 35 305 30 301 8 287 c 1
 0 293 l 1
 3 338 3 345 3 385 c 1
 8 393 l 1x94
 33 407 38 410 61 426 c 1
 62 622 55 699 48 765 c 1
 53 771 l 1
 125 781 141 784 224 798 c 1
 230 791 l 1
 227 704 226 615 226 527 c 1
 255 545 260 548 284 565 c 1
 291 559 l 1
 287 516 287 506 286 462 c 1
 281 454 l 1x68
 255 439 247 434 227 420 c 1
 227 395 228 270 229 241 c 0
 230 125 233 61 236 7 c 1x54
EndSplineSet
Validated: 33
EndChar

StartChar: oslash
Encoding: 248 248 147
Width: 604
Flags: MW
HStem: -12 106<283 342> -8 21G<35 43 35 35> 437 104<255.5 331> 525 20G<552 559 559 559>
VStem: 35 176<229 229 229 286> 395 174<235.5 268>
LayerCount: 2
Fore
SplineSet
-3 42 m 1x6c
 68 103 l 1
 47 149 35 177 35 258 c 0
 35 314 39 411 113 478 c 0
 138 500 197 541 307 541 c 0
 416 541 459 509 491 485 c 1xac
 512 506 516 510 552 545 c 1
 559 545 l 1
 598 502 l 1
 598 495 l 1
 530 434 l 1
 545 407 569 363 569 263 c 0
 569 208 564 112 492 46 c 0
 447 5 382 -12 302 -12 c 0
 181 -12 142 20 106 50 c 1x9c
 43 -8 l 1
 35 -8 l 1
 -3 34 l 1
 -3 42 l 1x6c
393 314 m 1
 223 158 l 1
 237 118 263 94 303 94 c 0
 390 94 395 205 395 259 c 0
 395 277 394 296 393 314 c 1
211 229 m 1
 379 383 l 1
 373 398 356 437 306 437 c 0
 205 437 209 316 211 229 c 1
EndSplineSet
Validated: 33
EndChar

StartChar: oe
Encoding: 339 339 148
Width: 917
Flags: MW
HStem: -12 108<255.5 317 255.5 347> -12 119<638 704.5> 227 105<549 724> 435 107<632 646.5> 436 105<296.5 315.5>
VStem: 35 172<252 286> 392 159<267 332> 724 159<235 332>
LayerCount: 2
Fore
SplineSet
852 145 m 1x75
 858 140 l 1x77
 848 30 l 1
 841 23 l 1
 789 -1 733 -12 676 -12 c 0
 553 -12 514 23 475 58 c 1
 448 32 403 -12 291 -12 c 0
 116 -12 35 98 35 255 c 0
 35 317 47 382 72 425 c 0
 124 514 216 541 304 541 c 0xac
 411 541 453 498 476 475 c 1
 508 504 549 542 643 542 c 0
 703 542 764 527 807 486 c 0
 875 422 880 328 883 235 c 1
 877 230 l 1
 549 227 l 1
 558 183 572 107 704 107 c 0
 770 107 808 125 852 145 c 1x75
551 332 m 1
 724 332 l 1
 722 364 719 404 679 426 c 0
 667 432 653 435 640 435 c 0
 624 435 608 431 594 422 c 0
 558 398 554 362 551 332 c 1
392 267 m 0
 392 290 393 351 371 391 c 0
 356 419 331 436 300 436 c 0
 293 436 286 435 279 433 c 0
 243 422 207 390 207 278 c 0
 207 226 210 96 301 96 c 0
 333 96 354 116 363 127 c 0xae
 379 148 391 184 392 267 c 0
EndSplineSet
Validated: 33
EndChar

StartChar: germandbls
Encoding: 223 223 149
Width: 625
Flags: MW
HStem: -7 112<365.5 378 339.5 453> -3 21G<65 65> 0 21G<190 230> 684 107<291.5 333>
VStem: 62 169<300 546> 289 10<11 121 115 121> 390 154<596.5 623> 431 173<157.5 189.5>
LayerCount: 2
Fore
SplineSet
237 6 m 1x3e
 230 0 l 1x3e
 150 0 133 0 65 -3 c 1
 59 3 l 1
 62 169 62 222 62 378 c 2
 60 495 l 2
 60 556 60 623 81 672 c 0
 121 760 224 791 323 791 c 0
 426 791 464 764 480 752 c 0
 535 712 544 652 544 623 c 0
 544 570 520 534 493 493 c 2
 476 469 l 2
 465 456 455 444 455 429 c 0
 455 414 465 399 498 365 c 2x5e
 527 336 l 2
 556 306 604 255 604 176 c 0
 604 84 524 -7 382 -7 c 0
 349 -7 325 -2 297 4 c 1
 289 11 l 1
 289 115 l 1
 299 121 l 1
 314 113 328 105 351 105 c 0
 405 105 431 143 431 172 c 0
 431 207 396 242 369 269 c 2
 343 297 l 2x9d
 321 320 292 349 292 382 c 0
 292 409 308 429 322 447 c 2
 344 474 l 2
 369 508 390 537 390 588 c 0
 390 658 351 684 315 684 c 0
 268 684 247 643 241 623 c 0
 236 607 231 573 231 519 c 0
 231 347 233 178 237 6 c 1x3e
EndSplineSet
Validated: 1
EndChar

StartChar: onesuperior
Encoding: 185 185 150
Width: 396
Flags: MW
HStem: 234 21G<146 146> 662 20G<262 262> 667 20G<255 255>
VStem: 145 113
LayerCount: 2
Fore
SplineSet
263 242 m 1xb0
 256 236 l 1
 209 236 197 236 146 234 c 1
 141 240 l 1
 144 334 146 477 145 592 c 1
 123 590 110 589 88 586 c 1
 82 592 l 1
 84 624 84 628 86 660 c 1
 92 666 l 1xb0
 170 675 197 679 255 687 c 1
 262 682 l 1xd0
 260 640 258 554 258 430 c 0
 258 316 260 286 263 242 c 1xb0
EndSplineSet
Validated: 33
EndChar

StartChar: logicalnot
Encoding: 172 172 151
Width: 667
Flags: MW
HStem: 0 21G<564 564 564 667> 242 103<0 564 0 564>
VStem: 564 103<0 242 242 242 0 345>
LayerCount: 2
Fore
SplineSet
564 0 m 1
 564 242 l 1
 0 242 l 1
 0 345 l 1
 564 345 l 1
 667 345 l 1
 667 0 l 1
 564 0 l 1
EndSplineSet
Validated: 1
EndChar

StartChar: mu
Encoding: 181 181 152
AltUni2: 0003bc.ffffffff.0
Width: 604
Flags: MW
HStem: -248 21G<230 230> -3 21G<384 384> 0 118<283.5 326> 527 9<224 232>
VStem: 62 174 224 8 377 166<204 257.5>
LayerCount: 2
Fore
SplineSet
224 536 m 1xb6
 232 527 l 1xb6
 232 475 231 422 230 370 c 0
 229 291 228 282 228 265 c 0
 228 191 228 118 302 118 c 0
 377 118 377 183 377 215 c 0
 377 300 375 438 370 521 c 1
 376 528 l 1
 455 531 473 532 539 536 c 1
 546 527 l 1
 545 445 543 389 543 279 c 0
 543 129 546 66 550 7 c 1
 544 0 l 1xba
 468 0 453 0 384 -3 c 1
 377 3 l 1xda
 378 41 l 1
 370 28 351 0 301 0 c 0
 266 0 243 13 228 41 c 1
 230 -49 l 2
 231 -113 232 -143 236 -242 c 1
 230 -248 l 1
 153 -247 137 -247 64 -250 c 1
 58 -245 l 1
 64 -80 63 3 62 163 c 2
 62 308 l 2
 60 448 60 464 55 521 c 1
 61 528 l 1xba
 139 530 154 531 224 536 c 1xb6
EndSplineSet
Validated: 33
EndChar

StartChar: trademark
Encoding: 8482 8482 153
Width: 687
Flags: MW
HStem: 648 58<8 113 8 286 184 286 184 184>
VStem: 113 71<374 648 374 648> 314 67 587.5 67.5
LayerCount: 2
Fore
SplineSet
655 706 m 1
 655 374 l 1
 586 374 l 1
 589 565 l 1
 593 633 l 1
 578 578 l 1
 516 374 l 1
 453 374 l 1
 389 579 l 1
 374 632 l 1
 379 565 l 1
 383 374 l 1
 314 374 l 1
 314 706 l 1
 406 706 l 1
 486 455 l 1
 562 706 l 1
 655 706 l 1
184 648 m 1
 184 374 l 1
 113 374 l 1
 113 648 l 1
 8 648 l 1
 8 706 l 1
 286 706 l 1
 286 648 l 1
 184 648 l 1
EndSplineSet
Validated: 1
EndChar

StartChar: Eth
Encoding: 208 208 154
Width: 708
Flags: MW
HStem: -2 131<244 248.5> 318 96<7 67> 324 93<242 384 242 242> 581 130<301.5 322> 700 8
VStem: 0 7<318 408> 68 174<291.5 321> 482 184<343.5 392>
LayerCount: 2
Fore
SplineSet
189 -2 m 2xaf
 71 -3 l 1
 65 3 l 1
 68 135 68 185 68 321 c 1
 41 320 35 320 7 318 c 1
 0 323 l 1
 1 358 1 365 0 408 c 1
 7 414 l 1
 36 413 42 413 67 414 c 1
 67 489 67 583 60 700 c 1
 66 706 l 1xcf
 171 708 l 2
 237 710 280 711 323 711 c 0
 388 711 448 710 500 688 c 0xb7
 555 665 601 619 629 566 c 0
 659 508 666 441 666 372 c 0
 666 315 661 259 642 205 c 0
 589 55 478 19 394 6 c 0
 344 -2 308 -2 189 -2 c 2xaf
384 324 m 1xb7
 242 324 l 1
 242 259 243 194 244 129 c 1
 312 129 377 129 426 181 c 0
 469 227 482 310 482 369 c 0
 482 415 474 491 437 534 c 0
 395 581 335 581 309 581 c 0
 284 581 264 580 241 579 c 1
 241 533 242 487 242 467 c 2
 242 417 l 1
 314 418 321 418 388 421 c 1
 394 415 l 1
 391 377 391 371 390 331 c 1
 384 324 l 1xb7
EndSplineSet
Validated: 33
EndChar

StartChar: onehalf
Encoding: 189 189 155
Width: 917
Flags: MW
HStem: -1 92 88 7<872 877> 234 21G<146 146> 358 92<658.5 689> 658 20G<604 604> 661 20G<262 262> 667 20G<255 255>
VStem: 145 113 737 123<283.5 305>
LayerCount: 2
Fore
SplineSet
263 242 m 1xb3
 256 236 l 1
 209 236 197 236 146 234 c 1
 141 240 l 1
 144 334 146 477 145 592 c 1
 123 590 110 588 88 586 c 1
 82 592 l 1
 84 624 84 628 86 660 c 1
 92 666 l 1xb380
 170 675 197 679 255 687 c 1
 262 681 l 1xb5
 260 640 258 554 258 430 c 0
 258 316 260 286 263 242 c 1xb3
872 95 m 1
 877 88 l 1x79
 875 50 875 44 874 8 c 1
 868 0 l 1
 821 0 590 -1 538 -1 c 1
 533 11 l 1
 557 37 561 42 599 86 c 0
 689 189 737 244 737 291 c 0
 737 319 718 358 660 358 c 0
 605 358 569 329 554 317 c 1
 544 323 l 1
 546 357 547 373 548 411 c 1
 553 418 l 1
 586 433 628 450 689 450 c 0
 803 450 860 382 860 306 c 0
 860 261 840 228 818 198 c 0
 802 178 794 169 722 91 c 1
 791 92 808 92 872 95 c 1
328 7 m 1
 321 0 l 1
 278 0 273 0 221 -1 c 1
 215 7 l 1xb3
 281 150 294 180 357 328 c 0
 453 557 464 582 497 670 c 1
 505 676 l 1
 558 677 564 677 604 678 c 1
 609 669 l 1
 556 560 503 432 452 312 c 0
 397 179 362 93 328 7 c 1
EndSplineSet
Validated: 33
EndChar

StartChar: plusminus
Encoding: 177 177 156
Width: 667
Flags: MW
HStem: 0 103<41 625 41 625> 374 103<41 283 41 283 386 625>
VStem: 283 103<148 374 148 374 477 702>
LayerCount: 2
Fore
SplineSet
386 374 m 1
 386 148 l 1
 283 148 l 1
 283 374 l 1
 41 374 l 1
 41 477 l 1
 283 477 l 1
 283 702 l 1
 386 702 l 1
 386 477 l 1
 625 477 l 1
 625 374 l 1
 386 374 l 1
625 103 m 1
 625 0 l 1
 41 0 l 1
 41 103 l 1
 625 103 l 1
EndSplineSet
Validated: 1
EndChar

StartChar: Thorn
Encoding: 222 222 157
Width: 604
Flags: MW
HStem: -3 21G<68 68> 0 21G<241 241> 143 123 488 123 686 20G<64 105.5> 689 20G<240 240>
VStem: 68 172<366.5 383 366.5 423> 417 179<353 414.5 353 439>
LayerCount: 2
Fore
SplineSet
243 610 m 1x76
 282 611 l 2
 363 611 417 612 470 591 c 0
 588 544 596 439 596 390 c 0
 596 316 569 244 511 198 c 0
 436 140 328 141 243 143 c 1
 244 97 245 38 246 6 c 1
 241 0 l 1x77
 159 1 140 0 68 -3 c 1
 63 3 l 1
 66 80 68 159 68 287 c 0
 68 559 64 621 59 700 c 1
 64 706 l 1xba
 147 706 163 706 240 709 c 1
 244 704 l 1
 244 677 244 670 243 610 c 1x76
241 266 m 1
 261 266 l 2
 314 266 417 266 417 384 c 0
 417 494 327 491 241 488 c 1
 241 472 240 392 240 374 c 0
 240 359 241 283 241 266 c 1
EndSplineSet
Validated: 33
EndChar

StartChar: onequarter
Encoding: 188 188 158
Width: 917
Flags: MW
HStem: 0 7 93.5 82 234 21G<146 146> 350 21G 350 91 658 20G<633 633> 662 20G<262 262> 667 20G<255 255>
VStem: 145 113 733 107.5
LayerCount: 2
Fore
SplineSet
884 99 m 1xf1c0
 878 93 l 1
 839 93 l 1
 840 55 840 35 841 7 c 1
 835 1 l 1
 790 1 779 1 733 -1 c 1
 727 5 l 1
 728 33 729 56 731 94 c 1
 548 93 l 1
 542 100 l 1
 543 124 544 132 544 160 c 1
 555 180 l 2
 655 365 663 380 688 435 c 1
 696 441 l 1
 759 441 769 441 835 443 c 1
 842 437 l 1xeac0
 839 350 837 262 839 175 c 1
 864 175 866 176 883 176 c 1
 888 170 l 1
 886 136 886 133 884 99 c 1xf1c0
648 175 m 1
 731 176 l 1
 733 280 l 2
 733 286 736 348 736 350 c 1
 729 338 703 284 694 266 c 2
 648 175 l 1
263 242 m 1
 256 236 l 1
 209 236 197 236 146 234 c 1
 141 240 l 1
 144 334 146 478 145 592 c 1
 123 590 110 589 88 586 c 1
 82 592 l 1
 84 624 84 629 86 660 c 1
 92 666 l 1xf1c0
 170 675 197 679 255 687 c 1
 262 682 l 1
 260 641 258 554 258 430 c 0
 258 316 260 286 263 242 c 1
357 7 m 1
 350 0 l 1
 307 0 302 0 250 -1 c 1
 244 7 l 1
 311 150 324 180 386 328 c 0
 482 557 492 583 526 670 c 1
 534 676 l 1
 587 677 593 677 633 678 c 1
 637 669 l 1xf4c0
 585 560 532 432 481 312 c 0
 426 179 392 93 357 7 c 1
EndSplineSet
Validated: 33
EndChar

StartChar: divide
Encoding: 247 247 159
Width: 667
Flags: MW
HStem: 61 136<315 353.5 311 356.5> 239 103<0 666 0 666> 384 136<315 354.5 310.5 355.5>
VStem: 265 137<128 144 435 467>
CounterMasks: 1 e0
LayerCount: 2
Fore
SplineSet
402 128 m 0
 401 97 379 61 334 61 c 0
 296 61 265 89 265 128 c 0
 265 160 289 197 333 197 c 0
 374 197 402 165 402 128 c 0
402 451 m 0
 402 419 378 384 333 384 c 0
 297 384 265 412 265 452 c 0
 265 482 287 520 334 520 c 0
 375 520 402 487 402 451 c 0
666 342 m 1
 666 239 l 1
 0 239 l 1
 0 342 l 1
 666 342 l 1
EndSplineSet
Validated: 1
EndChar

StartChar: brokenbar
Encoding: 166 166 160
Width: 229
Flags: MW
HStem: 669 20G<63 166 166 166>
VStem: 63 103<-191 190 -191 190 308 689>
LayerCount: 2
Fore
SplineSet
63 -191 m 1
 63 190 l 1
 166 190 l 1
 166 -191 l 1
 63 -191 l 1
166 308 m 1
 63 308 l 1
 63 689 l 1
 166 689 l 1
 166 308 l 1
EndSplineSet
Validated: 1
EndChar

StartChar: degree
Encoding: 176 176 161
Width: 354
Flags: MW
HStem: 411 101<157.5 196.5 157.5 224.5> 654 101<157.5 196.5>
VStem: 5 101<563.5 602.5 563.5 630.5> 248 101<563.5 602.5>
LayerCount: 2
Fore
SplineSet
5 583 m 0
 5 678 82 755 177 755 c 0
 272 755 349 678 349 583 c 0
 349 488 272 411 177 411 c 0
 82 411 5 488 5 583 c 0
106 583 m 0
 106 544 138 512 177 512 c 0
 216 512 248 544 248 583 c 0
 248 622 216 654 177 654 c 0
 138 654 106 622 106 583 c 0
EndSplineSet
Validated: 1
EndChar

StartChar: thorn
Encoding: 254 254 162
Width: 604
Flags: MW
HStem: -247 21G<231 231> -4 111<229 229> 419 122<274 422> 771 20G 777 20G<222 222>
VStem: 62 166<334 480.5> 394 175<249.5 292.5>
LayerCount: 2
Fore
SplineSet
222 797 m 1xee
 230 791 l 1xf6
 227 659 226 619 224 495 c 1
 244 509 288 541 359 541 c 0
 485 541 569 432 569 288 c 0
 569 184 522 46 350 6 c 0
 300 -5 259 -4 229 -4 c 1
 231 -111 232 -136 236 -242 c 1
 231 -247 l 1
 151 -246 135 -247 62 -250 c 1
 57 -245 l 1
 60 -120 60 -73 61 144 c 0
 61 184 62 379 62 424 c 0
 62 537 62 653 50 764 c 1
 56 771 l 1
 137 783 145 785 222 797 c 1xee
229 107 m 1
 266 108 316 109 353 148 c 0
 384 180 394 227 394 272 c 0
 394 313 386 348 370 374 c 0
 344 414 308 419 289 419 c 0
 259 419 245 410 228 399 c 1
 228 269 228 237 229 107 c 1
EndSplineSet
Validated: 33
EndChar

StartChar: threequarters
Encoding: 190 190 163
Width: 917
Flags: MW
HStem: 0 7 93.5 82 227 83<119.5 171> 350 21G 350 91 586 7<30 35> 589 89
VStem: 229 123<360.5 398.5> 733 107.5
LayerCount: 2
Fore
SplineSet
330 678 m 1xf280
 335 669 l 1
 316 632 249 519 244 512 c 1
 327 499 352 438 352 386 c 0
 352 321 317 285 296 268 c 0
 248 231 188 227 154 227 c 0
 85 227 50 244 35 251 c 1
 31 257 l 1
 33 297 34 301 36 337 c 1
 45 342 l 1
 64 330 95 310 143 310 c 0
 203 310 229 343 229 378 c 0
 229 419 196 446 144 446 c 0
 125 446 115 443 102 439 c 1
 93 450 l 1
 113 479 153 539 178 589 c 1xeb80
 111 588 101 588 35 586 c 1
 30 593 l 1xf480
 32 624 32 632 33 670 c 1
 39 676 l 1
 101 675 276 676 330 678 c 1xf280
388 7 m 1
 381 0 l 1
 337 0 332 0 280 -1 c 1
 274 7 l 1
 341 150 354 180 416 328 c 0
 512 557 523 582 556 670 c 1
 564 676 l 1
 617 677 623 677 663 678 c 1
 667 669 l 1
 615 560 562 432 511 312 c 0
 456 179 422 93 388 7 c 1
884 99 m 1
 878 93 l 1
 839 93 l 1
 840 55 840 35 841 7 c 1
 835 1 l 1
 790 1 779 1 733 -1 c 1
 727 5 l 1
 728 33 729 56 731 94 c 1
 548 93 l 1
 542 100 l 1
 543 124 544 132 544 160 c 1
 555 180 l 2
 655 366 663 380 688 435 c 1
 696 441 l 1
 759 441 769 441 835 443 c 1
 842 437 l 1
 839 350 837 262 839 175 c 1
 864 175 866 176 883 176 c 1
 888 170 l 1
 886 136 886 133 884 99 c 1
649 175 m 1
 731 176 l 1
 733 280 l 2
 733 286 736 348 736 350 c 1
 729 338 703 284 694 266 c 2
 649 175 l 1
EndSplineSet
Validated: 33
EndChar

StartChar: twosuperior
Encoding: 178 178 164
Width: 396
Flags: MW
HStem: 234 92 323 7<351 356> 594 92<137.5 168>
VStem: 216 123<519.5 541>
LayerCount: 2
Fore
SplineSet
351 330 m 1xb0
 356 323 l 1x70
 354 285 354 279 353 243 c 1
 347 235 l 1
 300 235 69 234 17 234 c 1
 12 246 l 1
 36 272 40 277 78 321 c 0
 168 424 216 480 216 527 c 0
 216 555 197 594 139 594 c 0
 84 594 48 565 33 553 c 1
 23 559 l 1
 25 593 26 609 27 647 c 1
 32 654 l 1
 66 669 107 686 168 686 c 0
 282 686 339 618 339 542 c 0
 339 497 319 463 297 434 c 0
 281 413 273 404 201 326 c 1
 270 327 287 327 351 330 c 1xb0
EndSplineSet
Validated: 1
EndChar

StartChar: registered
Encoding: 174 174 165
Width: 833
Flags: MW
HStem: -3 32<327.5 508.5 327.5 516.5> 326 76<353 376 353 410> 510 73<353 353 353 396> 677 32<326.5 510.5>
VStem: 61 32<262 442 262 455.5> 258 95<130 326 130 402 402 510> 501 95<429.5 464.5> 741 32<352 352>
LayerCount: 2
Fore
SplineSet
258 583 m 1
 413 583 l 2
 459 582 490 582 519 572 c 0
 574 554 596 505 596 464 c 0
 596 385 526 363 510 357 c 1
 537 343 557 332 567 268 c 0
 576 212 582 170 604 130 c 1
 495 130 l 1
 481 158 476 192 471 228 c 0
 459 311 454 324 376 326 c 2
 353 326 l 1
 353 130 l 1
 258 130 l 1
 258 583 l 1
353 510 m 1
 353 402 l 1
 410 402 l 2
 445 402 501 401 501 458 c 0
 501 471 496 494 473 504 c 0
 458 510 452 510 396 510 c 2
 353 510 l 1
773 351 m 0
 772 154 617 -3 416 -3 c 0
 230 -3 61 142 61 353 c 0
 61 558 224 709 416 709 c 0
 623 709 774 546 773 351 c 0
741 352 m 0
 742 529 603 677 418 677 c 0
 235 677 93 531 93 353 c 0
 93 171 238 29 417 29 c 0
 600 29 740 173 741 352 c 0
EndSplineSet
Validated: 33
EndChar

StartChar: minus
Encoding: 8722 8722 166
Width: 667
Flags: MW
HStem: 242 103<0 667 0 667>
VStem: 0 667<242 345 242 345>
LayerCount: 2
Fore
SplineSet
667 345 m 1
 667 242 l 1
 0 242 l 1
 0 345 l 1
 667 345 l 1
EndSplineSet
Validated: 1
EndChar

StartChar: eth
Encoding: 240 240 167
Width: 604
Flags: MW
HStem: -11 110 443 96<295 307 276.5 351> 666 20G 700 20G 765 9<186 189> 778 20G<340 340>
VStem: 35 175<223.5 304 223.5 395.5> 397 172<243.5 295.5>
LayerCount: 2
Fore
SplineSet
547 667 m 1
 541 658 l 1
 523 655 511 653 473 645 c 1
 544 526 569 394 569 294 c 0
 569 193 544 101 469 43 c 0
 411 -2 344 -11 292 -11 c 0
 142 -11 35 79 35 265 c 0
 35 526 264 539 289 539 c 0
 325 539 344 532 360 526 c 1
 351 554 344 575 322 613 c 1
 322 613 192 586 161 577 c 2
 145 573 l 1
 135 577 l 1
 123 608 119 616 105 646 c 1
 109 653 l 1
 132 657 209 671 272 686 c 1
 233 733 205 752 186 765 c 1
 189 774 l 1xfb
 216 778 243 781 270 786 c 0
 294 790 317 794 340 798 c 1
 353 796 l 1
 390 761 404 745 423 720 c 1
 445 725 465 729 494 737 c 2
 507 741 l 1
 517 737 l 1
 530 704 532 700 547 667 c 1
306 99 m 0
 357 103 397 132 397 269 c 0
 397 322 396 443 306 443 c 0
 284 443 261 434 243 413 c 0
 217 382 210 335 210 273 c 0
 210 174 224 93 306 99 c 0
EndSplineSet
Validated: 33
EndChar

StartChar: multiply
Encoding: 215 215 168
Width: 667
Flags: MW
HStem: 26 532<142 142 142 525>
VStem: 68 531<100 100 100 484>
LayerCount: 2
Fore
SplineSet
599 100 m 1
 525 26 l 1
 333 218 l 1
 142 26 l 1
 68 100 l 1
 259 292 l 1
 68 484 l 1
 142 558 l 1
 333 366 l 1
 525 558 l 1
 599 484 l 1
 407 292 l 1
 599 100 l 1
EndSplineSet
Validated: 1
EndChar

StartChar: threesuperior
Encoding: 179 179 169
Width: 396
Flags: MW
HStem: 227 83<119.5 171> 586 7<30 35> 589 89
VStem: 229 123<360.5 398.5>
LayerCount: 2
Fore
SplineSet
330 678 m 1xb0
 335 669 l 1
 316 632 249 519 244 512 c 1
 327 499 352 438 352 386 c 0
 352 321 317 285 296 268 c 0
 248 231 188 227 154 227 c 0
 85 227 50 244 35 251 c 1
 31 257 l 1
 33 297 34 301 36 337 c 1
 45 342 l 1
 64 330 95 310 143 310 c 0
 203 310 229 343 229 378 c 0
 229 419 196 446 144 446 c 0
 125 446 115 443 102 439 c 1
 93 450 l 1
 113 479 153 539 178 589 c 1xb0
 111 588 101 588 35 586 c 1
 30 593 l 1xd0
 32 624 32 632 33 670 c 1
 39 676 l 1
 101 675 276 676 330 678 c 1xb0
EndSplineSet
Validated: 33
EndChar

StartChar: copyright
Encoding: 169 169 170
Width: 833
Flags: MW
HStem: -3 32<325.5 482.5> 112 97<387 459.5 387 480.5> 501 97<381.5 456.5> 677 32<328.5 513>
VStem: 61 32<264.5 443.5 264.5 453> 182 100<309.5 396.5 309.5 422.5> 741 32<352 352>
LayerCount: 2
Fore
SplineSet
773 352 m 0
 773 282 751 212 716 156 c 0
 659 67 549 -3 416 -3 c 0
 232 -3 61 142 61 353 c 0
 61 553 219 709 418 709 c 0
 616 709 773 556 773 352 c 0
741 352 m 0
 742 527 607 677 419 677 c 0
 238 677 93 535 93 352 c 0
 93 177 233 29 418 29 c 0
 590 29 739 162 741 352 c 0
546 265 m 1
 617 199 l 1
 591 171 536 112 425 112 c 0
 272 112 182 221 182 354 c 0
 182 491 279 598 425 598 c 0
 533 598 586 543 617 510 c 1
 546 442 l 1
 525 464 489 501 424 501 c 0
 339 501 282 438 282 355 c 0
 282 264 348 209 426 209 c 0
 493 209 527 245 546 265 c 1
EndSplineSet
Validated: 33
EndChar

StartChar: Aacute
Encoding: 193 193 171
Width: 667
Flags: MW
HStem: -3 21G<484 484> 0 21G<6 162 6 6 658 658> 188 121<253 405 253 434 218 405> 595 111<241 338> 686 20G<241 294.5> 689 20G<464 464> 747 160<323 370 269 489>
VStem: 2 661<7 8>
LayerCount: 2
Fore
SplineSet
464 709 m 1x67
 471 703 l 1
 528 483 542 436 663 8 c 1
 658 0 l 1x67
 577 1 557 0 484 -3 c 1
 477 3 l 1xa7
 434 188 l 1
 218 188 l 1
 169 6 l 1
 162 0 l 1
 6 0 l 1
 2 7 l 1
 149 429 181 530 234 700 c 1
 241 706 l 1x6b
 348 706 368 706 464 709 c 1x67
253 309 m 1
 405 309 l 1
 368 465 l 1
 338 595 l 1x73
 303 478 l 1
 253 309 l 1
489 907 m 1
 491 901 l 1
 456 856 429 821 376 751 c 1
 370 747 l 1
 269 747 l 1
 265 753 l 1
 296 827 301 844 318 902 c 1
 323 907 l 1
 489 907 l 1
EndSplineSet
Validated: 33
EndChar

StartChar: Acircumflex
Encoding: 194 194 172
Width: 667
Flags: MW
HStem: -3 21G<484 484> 0 21G<6 162 6 6 658 658> 188 121<253 405 253 434 218 405> 595 111<241 338> 686 20G<241 294.5> 689 20G<464 464> 747 160<240 272 154 426> 747.5 9.5
VStem: 2 661<7 8>
LayerCount: 2
Fore
SplineSet
464 709 m 1x6580
 471 703 l 1
 528 483 542 436 663 8 c 1
 658 0 l 1x6580
 577 1 557 0 484 -3 c 1
 477 3 l 1xa580
 434 188 l 1
 218 188 l 1
 169 6 l 1
 162 0 l 1
 6 0 l 1
 2 7 l 1
 149 429 181 530 234 700 c 1
 241 706 l 1x6980
 348 706 368 706 464 709 c 1x6580
253 309 m 1
 405 309 l 1
 368 465 l 1
 338 595 l 1x7180
 303 478 l 1
 253 309 l 1
426 907 m 1
 431 902 l 1
 458 848 473 820 513 757 c 1
 509 749 l 1
 374 746 l 1
 368 752 l 1x6580
 326 833 l 1
 311 808 300 791 278 753 c 1
 272 747 l 1
 154 747 l 1
 150 754 l 1x6680
 191 818 200 833 233 901 c 1
 240 907 l 1
 426 907 l 1
EndSplineSet
Validated: 33
EndChar

StartChar: Adieresis
Encoding: 196 196 173
Width: 667
Flags: MW
HStem: -3 21G<484 484> 0 21G<6 162 6 6 658 658> 188 121<253 405 253 434 218 405> 595 111<241 338> 686 20G<241 294.5> 689 20G<464 464> 755 140
VStem: 151 152 396 150
LayerCount: 2
Fore
SplineSet
464 709 m 1x6780
 471 703 l 1
 528 483 542 436 663 8 c 1
 658 0 l 1x6780
 577 1 557 0 484 -3 c 1
 477 3 l 1xa780
 434 188 l 1
 218 188 l 1
 169 6 l 1
 162 0 l 1
 6 0 l 1
 2 7 l 1
 149 429 181 530 234 700 c 1
 241 706 l 1x6b80
 348 706 368 706 464 709 c 1x6780
253 309 m 1
 405 309 l 1
 368 465 l 1
 338 595 l 1x7380
 303 478 l 1
 253 309 l 1
541 896 m 1
 547 890 l 1
 545 761 l 1
 540 755 l 1
 402 752 l 1
 396 758 l 1
 396 886 l 1
 401 893 l 1
 541 896 l 1
299 896 m 1
 304 890 l 1
 302 763 l 1
 296 756 l 1
 156 754 l 1
 151 760 l 1
 151 887 l 1
 157 894 l 1
 299 896 l 1
EndSplineSet
Validated: 33
EndChar

StartChar: Agrave
Encoding: 192 192 174
Width: 667
Flags: MW
HStem: -3 21G<484 484> 0 21G<6 162 6 6 658 658> 188 121<253 405 253 434 218 405> 595 111<241 338> 686 20G<241 294.5> 689 20G<464 464> 900 7<181 351>
VStem: 2 661<7 8>
LayerCount: 2
Fore
SplineSet
464 709 m 1x67
 471 703 l 1
 528 483 542 436 663 8 c 1
 658 0 l 1x67
 577 1 557 0 484 -3 c 1
 477 3 l 1xa7
 434 188 l 1
 218 188 l 1
 169 6 l 1
 162 0 l 1
 6 0 l 1
 2 7 l 1
 149 429 181 530 234 700 c 1
 241 706 l 1x6b
 348 706 368 706 464 709 c 1x67
253 309 m 1
 405 309 l 1
 368 465 l 1
 338 595 l 1x73
 303 478 l 1
 253 309 l 1
351 907 m 1
 357 903 l 1
 373 841 379 823 405 754 c 1
 401 748 l 1
 299 747 l 1
 292 752 l 1
 181 900 l 1
 185 907 l 1
 351 907 l 1
EndSplineSet
Validated: 33
EndChar

StartChar: Aring
Encoding: 197 197 175
Width: 667
Flags: MW
HStem: -3 21G<484 484> 0 21G<6 162 6 6 658 658> 188 121<253 405 253 434 218 405> 595 111<241 338> 686 20G<241 294.5> 689 20G<464 464> 730 57<339.5 359.5 339.5 385> 908 59<342 351.5>
VStem: 222 87<826.5 873 826.5 873> 387 90<853 853>
LayerCount: 2
Fore
SplineSet
464 709 m 1x67c0
 471 703 l 1
 528 483 542 436 663 8 c 1
 658 0 l 1x67c0
 577 1 557 0 484 -3 c 1
 477 3 l 1xa3c0
 434 188 l 1
 218 188 l 1
 169 6 l 1
 162 0 l 1
 6 0 l 1
 2 7 l 1
 149 429 181 530 234 700 c 1
 241 706 l 1x6bc0
 348 706 368 706 464 709 c 1x67c0
253 309 m 1
 405 309 l 1
 368 465 l 1
 338 595 l 1x73c0
 303 478 l 1
 253 309 l 1
477 853 m 0x63c0
 480 775 425 730 345 730 c 0
 265 730 222 782 222 844 c 0
 222 902 260 967 352 967 c 0
 448 967 475 903 477 853 c 0x63c0
387 853 m 0
 385 908 354 908 349 908 c 0
 335 908 309 898 309 848 c 0
 309 805 330 787 349 787 c 0
 370 787 389 808 387 853 c 0
EndSplineSet
Validated: 33
EndChar

StartChar: Atilde
Encoding: 195 195 176
Width: 667
Flags: MW
HStem: -3 21G<484 484> 0 21G<6 162 6 6 658 658> 188 121<253 405 253 434 218 405> 595 111<241 338> 686 20G<241 294.5> 689 20G<464 464> 750 117<397 426 397 426> 789 116<231.5 260.5>
VStem: 495 7<797 912>
LayerCount: 2
Fore
SplineSet
464 709 m 1x6480
 471 703 l 1
 528 483 542 436 663 8 c 1
 658 0 l 1x6480
 577 1 557 0 484 -3 c 1
 477 3 l 1xa480
 434 188 l 1
 218 188 l 1
 169 6 l 1
 162 0 l 1
 6 0 l 1
 2 7 l 1
 149 429 181 530 234 700 c 1
 241 706 l 1x6880
 348 706 368 706 464 709 c 1x6480
253 309 m 1
 405 309 l 1
 368 465 l 1
 338 595 l 1x7280
 303 478 l 1
 253 309 l 1
495 912 m 1
 502 909 l 1
 502 797 l 1
 498 789 l 1
 475 771 448 750 404 750 c 0
 382 750 367 756 347 763 c 2x6680
 317 774 l 2
 294 781 272 789 249 789 c 0
 214 789 186 770 164 756 c 1
 158 758 l 1
 159 864 l 1
 163 871 l 1
 185 888 205 905 251 905 c 0
 271 905 285 901 304 895 c 2x6580
 343 882 l 2
 365 874 386 867 408 867 c 0
 444 867 473 893 495 912 c 1
EndSplineSet
Validated: 33
EndChar

StartChar: Ccedilla
Encoding: 199 199 177
Width: 604
Flags: MW
HStem: -186 150<253 430 253 430> -15 137<366 445> 588 133<346.5 436 266.5 460.5> 659 20G<581 581>
VStem: 42 186<278.5 404 278.5 440> 563 8<539 542>
LayerCount: 2
Fore
SplineSet
430 -36 m 1xec
 433 -42 l 1
 414 -97 409 -112 389 -180 c 1
 383 -186 l 1
 326 -185 290 -186 253 -186 c 1
 250 -180 l 1
 282 -113 290 -97 316 -40 c 1
 322 -35 l 1
 376 -36 382 -36 430 -36 c 1xec
579 179 m 1x6c
 586 174 l 1
 582 106 582 97 579 26 c 1
 574 19 l 1
 542 6 489 -15 401 -15 c 0
 188 -15 42 121 42 345 c 0
 42 535 143 721 390 721 c 0x6c
 482 721 544 698 576 685 c 1
 581 679 l 1x5c
 575 612 575 604 571 542 c 1
 563 539 l 1
 544 553 499 588 422 588 c 0
 271 588 228 457 228 351 c 0
 228 206 310 122 422 122 c 0
 507 122 562 165 579 179 c 1x6c
EndSplineSet
Validated: 33
EndChar

StartChar: Eacute
Encoding: 201 201 178
Width: 562
Flags: MW
HStem: 0 128<245 309 245 510> 303 123 583 123<243 299.5> 747 160<271 318 217 437>
VStem: 70 173<303 303 424 432>
LayerCount: 2
Fore
SplineSet
519 135 m 1
 525 128 l 1
 518 6 l 1
 510 0 l 1
 70 0 l 1
 65 4 l 1
 68 109 70 172 70 298 c 0
 70 566 68 603 62 700 c 1
 68 706 l 1
 507 706 l 1
 512 702 l 1
 505 586 l 1
 500 580 l 1
 379 583 356 583 243 583 c 1
 243 424 l 1
 485 428 l 1
 490 422 l 1
 484 309 l 1
 477 303 l 1
 243 303 l 1
 245 128 l 1
 373 128 401 129 519 135 c 1
437 907 m 1
 439 901 l 1
 404 856 377 821 324 751 c 1
 318 747 l 1
 217 747 l 1
 213 753 l 1
 244 827 249 844 266 902 c 1
 271 907 l 1
 437 907 l 1
EndSplineSet
Validated: 1
EndChar

StartChar: Ecircumflex
Encoding: 202 202 179
Width: 562
Flags: MW
HStem: 0 128<245 309 245 510> 303 123 583 123<243 299.5> 747 160<188 220 102 374> 747.5 9.5
VStem: 70 173<303 303 424 432>
LayerCount: 2
Fore
SplineSet
519 135 m 1xec
 525 128 l 1
 518 6 l 1
 510 0 l 1
 70 0 l 1
 65 4 l 1
 68 109 70 172 70 298 c 0
 70 566 68 603 62 700 c 1
 68 706 l 1
 507 706 l 1
 512 702 l 1
 505 586 l 1
 500 580 l 1
 379 583 356 583 243 583 c 1
 243 424 l 1
 485 428 l 1
 490 422 l 1
 484 309 l 1
 477 303 l 1
 243 303 l 1
 245 128 l 1
 373 128 401 129 519 135 c 1xec
374 907 m 1
 379 902 l 1
 406 848 421 820 461 757 c 1
 457 749 l 1
 322 746 l 1
 316 752 l 1xec
 274 833 l 1
 259 808 248 791 226 753 c 1
 220 747 l 1
 102 747 l 1
 98 754 l 1xf4
 139 818 148 833 181 901 c 1
 188 907 l 1
 374 907 l 1
EndSplineSet
Validated: 1
EndChar

StartChar: Edieresis
Encoding: 203 203 180
Width: 562
Flags: MW
HStem: 0 128<245 309 245 510> 303 123 583 123<243 299.5> 755 140
VStem: 70 173<303 303 424 432> 86 152 331 150
LayerCount: 2
Fore
SplineSet
519 135 m 1xfa
 525 128 l 1
 518 6 l 1
 510 0 l 1
 70 0 l 1
 65 4 l 1
 68 109 70 172 70 298 c 0
 70 566 68 603 62 700 c 1
 68 706 l 1
 507 706 l 1
 512 702 l 1
 505 586 l 1
 500 580 l 1
 379 583 356 583 243 583 c 1
 243 424 l 1
 485 428 l 1
 490 422 l 1
 484 309 l 1
 477 303 l 1
 243 303 l 1
 245 128 l 1
 373 128 401 129 519 135 c 1xfa
476 896 m 1
 482 890 l 1
 480 761 l 1
 475 755 l 1
 337 752 l 1
 331 758 l 1
 331 886 l 1
 336 893 l 1
 476 896 l 1
234 896 m 1
 239 890 l 1
 237 763 l 1
 231 756 l 1
 91 754 l 1
 86 760 l 1
 86 887 l 1
 92 894 l 1xf6
 234 896 l 1
EndSplineSet
Validated: 1
EndChar

StartChar: Egrave
Encoding: 200 200 181
Width: 562
Flags: MW
HStem: 0 128<245 309 245 510> 303 123 583 123<243 299.5> 900 7<129 299>
VStem: 70 173<303 303 424 432>
LayerCount: 2
Fore
SplineSet
519 135 m 1
 525 128 l 1
 518 6 l 1
 510 0 l 1
 70 0 l 1
 65 4 l 1
 68 109 70 172 70 298 c 0
 70 566 68 603 62 700 c 1
 68 706 l 1
 507 706 l 1
 512 702 l 1
 505 586 l 1
 500 580 l 1
 379 583 356 583 243 583 c 1
 243 424 l 1
 485 428 l 1
 490 422 l 1
 484 309 l 1
 477 303 l 1
 243 303 l 1
 245 128 l 1
 373 128 401 129 519 135 c 1
299 907 m 1
 305 903 l 1
 321 841 327 823 353 754 c 1
 349 748 l 1
 247 747 l 1
 240 752 l 1
 129 900 l 1
 133 907 l 1
 299 907 l 1
EndSplineSet
Validated: 1
EndChar

StartChar: Iacute
Encoding: 205 205 182
Width: 313
Flags: MW
HStem: -3 21G<68 68> 0 21G<204.5 246> 686 20G<64 64> 700 9 747 160<146 193 92 312>
VStem: 69 176<227 358 216.5 413.5>
LayerCount: 2
Fore
SplineSet
245 709 m 1x5c
 250 703 l 1
 247 565 245 427 245 289 c 0
 245 144 247 98 252 6 c 1
 246 0 l 1x5c
 163 0 143 0 68 -3 c 1
 63 3 l 1
 67 107 69 168 69 286 c 0
 69 541 66 592 60 700 c 1
 64 706 l 1xac
 136 705 159 705 245 709 c 1x5c
312 907 m 1
 314 901 l 1
 279 856 252 821 199 751 c 1
 193 747 l 1
 92 747 l 1
 88 753 l 1
 119 827 124 844 141 902 c 1
 146 907 l 1
 312 907 l 1
EndSplineSet
Validated: 33
EndChar

StartChar: Icircumflex
Encoding: 206 206 183
Width: 313
Flags: MW
HStem: -3 21G<68 68> 0 21G<204.5 246> 686 20G<64 64> 700 9 747 160<63 95 -23 249> 747.5 9.5
VStem: 69 176<227 358 216.5 413.5>
LayerCount: 2
Fore
SplineSet
245 709 m 1x56
 250 703 l 1
 247 565 245 427 245 289 c 0
 245 144 247 98 252 6 c 1
 246 0 l 1x56
 163 0 143 0 68 -3 c 1
 63 3 l 1
 67 107 69 168 69 286 c 0
 69 541 66 592 60 700 c 1
 64 706 l 1xa6
 136 705 159 705 245 709 c 1x56
249 907 m 1
 254 902 l 1
 281 848 296 820 336 757 c 1
 332 749 l 1
 197 746 l 1
 191 752 l 1x56
 149 833 l 1
 134 808 123 791 101 753 c 1
 95 747 l 1
 -23 747 l 1
 -27 754 l 1x5a
 14 818 23 833 56 901 c 1
 63 907 l 1
 249 907 l 1
EndSplineSet
Validated: 33
EndChar

StartChar: Idieresis
Encoding: 207 207 184
Width: 313
Flags: MW
HStem: -3 21G<68 68> 0 21G<204.5 246> 686 20G<64 64> 700 9 755 140
VStem: -39 152 69 176<227 358 216.5 413.5> 206 150
LayerCount: 2
Fore
SplineSet
245 709 m 1x5a
 250 703 l 1
 247 565 245 427 245 289 c 0
 245 144 247 98 252 6 c 1
 246 0 l 1x5a
 163 0 143 0 68 -3 c 1
 63 3 l 1
 67 107 69 168 69 286 c 0
 69 541 66 592 60 700 c 1
 64 706 l 1xaa
 136 705 159 705 245 709 c 1x5a
351 896 m 1
 357 890 l 1
 355 761 l 1
 350 755 l 1
 212 752 l 1
 206 758 l 1
 206 886 l 1
 211 893 l 1x5d
 351 896 l 1
109 896 m 1
 114 890 l 1
 112 763 l 1
 106 756 l 1
 -34 754 l 1
 -39 760 l 1
 -39 887 l 1
 -33 894 l 1
 109 896 l 1
EndSplineSet
Validated: 33
EndChar

StartChar: Igrave
Encoding: 204 204 185
Width: 313
Flags: MW
HStem: -3 21G<68 68> 0 21G<204.5 246> 686 20G<64 64> 700 9 900 7<4 174>
VStem: 69 176<227 358 216.5 413.5>
LayerCount: 2
Fore
SplineSet
245 709 m 1x5c
 250 703 l 1
 247 565 245 427 245 289 c 0
 245 144 247 98 252 6 c 1
 246 0 l 1x5c
 163 0 143 0 68 -3 c 1
 63 3 l 1
 67 107 69 168 69 286 c 0
 69 541 66 592 60 700 c 1
 64 706 l 1xac
 136 705 159 705 245 709 c 1x5c
174 907 m 1
 180 903 l 1
 196 841 202 823 228 754 c 1
 224 748 l 1
 122 747 l 1
 115 752 l 1
 4 900 l 1
 8 907 l 1
 174 907 l 1
EndSplineSet
Validated: 33
EndChar

StartChar: Ntilde
Encoding: 209 209 186
Width: 729
Flags: MW
HStem: -3 21G<71 71 530 530> 0 21G<188 217 635.5 662> 686 20G<66 66 519 519> 700 9 750 117<429 458 429 458> 789 116<263.5 292.5>
VStem: 69 137 527 7<797 912> 527 138
LayerCount: 2
Fore
SplineSet
661 709 m 1x5680
 667 703 l 1
 666 591 665 480 665 368 c 0
 665 248 666 150 667 5 c 1
 662 0 l 1x5680
 609 0 591 0 530 -3 c 1
 523 2 l 1x9680
 434 132 l 1
 334 279 l 2
 266 378 250 404 203 482 c 1
 209 348 l 1
 212 225 l 1
 222 6 l 1
 217 0 l 1x5680
 159 0 138 0 71 -3 c 1
 66 3 l 1
 67 100 69 198 69 296 c 0
 69 430 66 545 61 700 c 1
 66 706 l 1xa680
 139 705 152 705 231 709 c 1
 238 704 l 1x5680
 263 664 278 642 353 528 c 2
 444 395 l 2
 495 319 500 311 529 262 c 1
 525 427 l 1
 521 565 l 1
 514 700 l 1
 519 706 l 1x6680
 581 705 598 706 661 709 c 1x5680
527 912 m 1x5b
 534 909 l 1
 534 797 l 1
 530 789 l 1
 507 771 480 750 436 750 c 0
 414 750 399 756 379 763 c 2x5b
 349 774 l 2
 326 781 304 789 281 789 c 0
 246 789 218 770 196 756 c 1
 190 758 l 1
 191 864 l 1
 195 871 l 1
 217 888 237 905 283 905 c 0
 303 905 317 901 336 895 c 2x5680
 375 882 l 2
 397 874 418 867 440 867 c 0
 476 867 505 893 527 912 c 1x5b
EndSplineSet
Validated: 33
EndChar

StartChar: Oacute
Encoding: 211 211 187
Width: 750
Flags: MW
HStem: -15 127<349.5 413.5> 596 125<368.5 397> 747 160<365 412 311 531>
VStem: 42 187<319 366> 521 187
LayerCount: 2
Fore
SplineSet
633 614 m 0
 658 583 708 512 708 355 c 0
 708 270 688 134 589 52 c 0
 530 3 452 -15 375 -15 c 0
 324 -15 220 -5 144 66 c 0
 50 153 42 281 42 349 c 0
 42 383 45 417 51 451 c 0
 59 493 81 609 203 679 c 0
 257 710 320 721 382 721 c 0
 452 721 522 704 573 670 c 0
 596 655 616 636 633 614 c 0
475 550 m 0
 451 579 416 596 378 596 c 0
 359 596 332 592 305 576 c 0
 258 546 229 484 229 364 c 0
 229 274 238 112 377 112 c 0
 493 112 525 220 521 370 c 0
 520 395 518 431 510 469 c 0
 504 498 495 527 475 550 c 0
531 907 m 1xf8
 533 901 l 1
 498 856 471 821 418 751 c 1
 412 747 l 1
 311 747 l 1
 307 753 l 1
 338 827 343 844 360 902 c 1
 365 907 l 1
 531 907 l 1xf8
EndSplineSet
Validated: 33
EndChar

StartChar: Ocircumflex
Encoding: 212 212 188
Width: 750
Flags: MW
HStem: -15 127<349.5 413.5> 596 125<368.5 397> 747 160<282 314 196 468> 747.5 9.5
VStem: 42 187<319 366> 521 187
LayerCount: 2
Fore
SplineSet
633 614 m 0xcc
 658 583 708 512 708 355 c 0
 708 270 688 134 589 52 c 0
 530 3 452 -15 375 -15 c 0
 324 -15 220 -5 144 66 c 0
 50 153 42 281 42 349 c 0
 42 383 45 417 51 451 c 0
 59 493 81 609 203 679 c 0
 257 710 320 721 382 721 c 0
 452 721 522 704 573 670 c 0
 596 655 616 636 633 614 c 0xcc
475 550 m 0
 451 579 416 596 378 596 c 0
 359 596 332 592 305 576 c 0
 258 546 229 484 229 364 c 0
 229 274 238 112 377 112 c 0
 493 112 525 220 521 370 c 0
 520 395 518 431 510 469 c 0
 504 498 495 527 475 550 c 0
468 907 m 1xdc
 473 902 l 1
 500 848 515 820 555 757 c 1
 551 749 l 1
 416 746 l 1
 410 752 l 1xdc
 368 833 l 1
 353 808 342 791 320 753 c 1
 314 747 l 1
 196 747 l 1
 192 754 l 1xec
 233 818 242 833 275 901 c 1
 282 907 l 1
 468 907 l 1xdc
EndSplineSet
Validated: 33
EndChar

StartChar: Odieresis
Encoding: 214 214 189
Width: 750
Flags: MW
HStem: -15 127<349.5 413.5> 596 125<368.5 397> 755 140
VStem: 42 187<319 366> 184 152 429 150 521 187
LayerCount: 2
Fore
SplineSet
633 614 m 0xf2
 658 583 708 512 708 355 c 0
 708 270 688 134 589 52 c 0
 530 3 452 -15 375 -15 c 0
 324 -15 220 -5 144 66 c 0
 50 153 42 281 42 349 c 0
 42 383 45 417 51 451 c 0
 59 493 81 609 203 679 c 0
 257 710 320 721 382 721 c 0
 452 721 522 704 573 670 c 0
 596 655 616 636 633 614 c 0xf2
475 550 m 0
 451 579 416 596 378 596 c 0
 359 596 332 592 305 576 c 0
 258 546 229 484 229 364 c 0
 229 274 238 112 377 112 c 0
 493 112 525 220 521 370 c 0
 520 395 518 431 510 469 c 0
 504 498 495 527 475 550 c 0
574 896 m 1
 580 890 l 1
 578 761 l 1
 573 755 l 1
 435 752 l 1
 429 758 l 1
 429 886 l 1
 434 893 l 1xec
 574 896 l 1
332 896 m 1
 337 890 l 1
 335 763 l 1
 329 756 l 1
 189 754 l 1
 184 760 l 1
 184 887 l 1
 190 894 l 1
 332 896 l 1
EndSplineSet
Validated: 33
EndChar

StartChar: Ograve
Encoding: 210 210 190
Width: 750
Flags: MW
HStem: -15 127<349.5 413.5> 596 125<368.5 397> 900 7<223 393>
VStem: 42 187<319 366> 521 187
LayerCount: 2
Fore
SplineSet
633 614 m 0
 658 583 708 512 708 355 c 0
 708 270 688 134 589 52 c 0
 530 3 452 -15 375 -15 c 0
 324 -15 220 -5 144 66 c 0
 50 153 42 281 42 349 c 0
 42 383 45 417 51 451 c 0
 59 493 81 609 203 679 c 0
 257 710 320 721 382 721 c 0
 452 721 522 704 573 670 c 0
 596 655 616 636 633 614 c 0
475 550 m 0
 451 579 416 596 378 596 c 0
 359 596 332 592 305 576 c 0
 258 546 229 484 229 364 c 0
 229 274 238 112 377 112 c 0
 493 112 525 220 521 370 c 0
 520 395 518 431 510 469 c 0
 504 498 495 527 475 550 c 0
393 907 m 1
 399 903 l 1
 415 841 421 823 447 754 c 1
 443 748 l 1
 341 747 l 1
 334 752 l 1
 223 900 l 1
 227 907 l 1
 393 907 l 1
EndSplineSet
Validated: 33
EndChar

StartChar: Otilde
Encoding: 213 213 191
Width: 750
Flags: MW
HStem: -15 127<349.5 413.5> 596 125<368.5 397> 750 117<439 468 439 468> 789 116<273.5 302.5>
VStem: 42 187<319 366> 521 187 537 7<797 912>
LayerCount: 2
Fore
SplineSet
633 614 m 0xdc
 658 583 708 512 708 355 c 0
 708 270 688 134 589 52 c 0
 530 3 452 -15 375 -15 c 0
 324 -15 220 -5 144 66 c 0
 50 153 42 281 42 349 c 0
 42 383 45 417 51 451 c 0
 59 493 81 609 203 679 c 0
 257 710 320 721 382 721 c 0
 452 721 522 704 573 670 c 0
 596 655 616 636 633 614 c 0xdc
475 550 m 0
 451 579 416 596 378 596 c 0
 359 596 332 592 305 576 c 0
 258 546 229 484 229 364 c 0
 229 274 238 112 377 112 c 0
 493 112 525 220 521 370 c 0
 520 395 518 431 510 469 c 0
 504 498 495 527 475 550 c 0
537 912 m 1xea
 544 909 l 1
 544 797 l 1
 540 789 l 1
 517 771 490 750 446 750 c 0
 424 750 409 756 389 763 c 2xea
 359 774 l 2
 336 781 314 789 291 789 c 0
 256 789 228 770 206 756 c 1
 200 758 l 1
 201 864 l 1
 205 871 l 1
 227 888 247 905 293 905 c 0
 313 905 327 901 346 895 c 2xda
 385 882 l 2
 407 874 428 867 450 867 c 0
 486 867 515 893 537 912 c 1xea
EndSplineSet
Validated: 33
EndChar

StartChar: Scaron
Encoding: 352 352 192
Width: 562
Flags: MW
HStem: -15 126<203.5 256> 598 123<283 349.5 207 354> 657 20G<491 491> 748 158.5 900 7<355 477>
VStem: 48 173<505.5 543.5 505.5 561.5> 353 174<175.5 220.5>
LayerCount: 2
Fore
SplineSet
349 430 m 2xce
 375 420 l 2
 399 409 425 397 452 377 c 0
 505 336 527 275 527 218 c 0
 527 133 491 57 407 16 c 0
 347 -12 271 -15 241 -15 c 0
 166 -15 107 2 84 10 c 0
 73 13 62 18 51 22 c 1
 45 30 l 1
 52 171 l 1
 62 174 l 1
 91 151 142 111 233 111 c 0
 320 111 353 156 353 194 c 0
 353 247 300 272 231 301 c 2
 198 316 l 2
 142 343 48 387 48 508 c 0
 48 615 113 721 301 721 c 0xce
 398 721 443 702 486 684 c 1
 491 677 l 1xae
 483 546 l 1
 474 542 l 1
 437 567 392 598 316 598 c 0
 250 598 221 559 221 528 c 0
 221 483 265 465 349 430 c 2xce
202 748 m 1xd6
 196 752 l 1xd6
 171 802 145 851 114 897 c 1
 118 905 l 1
 253 908 l 1
 260 902 l 1
 301 821 l 1
 316 846 328 865 349 901 c 1
 355 907 l 1
 473 907 l 1
 477 900 l 1xce
 435 833 417 802 394 753 c 1
 387 748 l 1
 202 748 l 1xd6
EndSplineSet
Validated: 1
EndChar

StartChar: Uacute
Encoding: 218 218 193
Width: 688
Flags: MW
HStem: -15 125<345.5 371> 686 20G<61 61 480 480> 689 20G<237 237 630 630> 747 160<334 381 280 500>
VStem: 60 179<299 486.5 373 486.5> 484 148<304 392.5>
LayerCount: 2
Fore
SplineSet
630 709 m 1xbc
 635 703 l 1xbc
 632 406 l 1
 632 304 l 2
 630 177 626 119 573 63 c 0
 499 -15 389 -15 353 -15 c 0
 219 -15 142 35 104 89 c 0
 69 137 63 191 60 299 c 2
 60 373 l 2
 59 529 59 557 55 700 c 1
 61 706 l 1xdc
 129 705 152 705 237 709 c 1
 242 703 l 1xbc
 240 604 239 527 239 446 c 0
 239 393 239 340 241 287 c 0
 243 224 249 189 264 163 c 0
 286 128 325 110 366 110 c 0
 399 110 432 121 454 146 c 0
 481 178 484 226 484 331 c 0
 484 454 479 577 474 700 c 1
 480 706 l 1xdc
 537 705 557 705 630 709 c 1xbc
500 907 m 1
 502 901 l 1
 467 856 440 821 387 751 c 1
 381 747 l 1
 280 747 l 1
 276 753 l 1
 307 827 312 844 329 902 c 1
 334 907 l 1
 500 907 l 1
EndSplineSet
Validated: 33
EndChar

StartChar: Ucircumflex
Encoding: 219 219 194
Width: 688
Flags: MW
HStem: -15 125<345.5 371> 686 20G<61 61 480 480> 689 20G<237 237 630 630> 747 160<251 283 165 437> 747.5 9.5
VStem: 60 179<299 486.5 373 486.5> 484 148<304 392.5>
LayerCount: 2
Fore
SplineSet
630 709 m 1xae
 635 703 l 1xae
 632 406 l 1
 632 304 l 2
 630 177 626 119 573 63 c 0
 499 -15 389 -15 353 -15 c 0
 219 -15 142 35 104 89 c 0
 69 137 63 191 60 299 c 2
 60 373 l 2
 59 529 59 557 55 700 c 1
 61 706 l 1xce
 129 705 152 705 237 709 c 1
 242 703 l 1xae
 240 604 239 527 239 446 c 0
 239 393 239 340 241 287 c 0
 243 224 249 189 264 163 c 0
 286 128 325 110 366 110 c 0
 399 110 432 121 454 146 c 0
 481 178 484 226 484 331 c 0
 484 454 479 577 474 700 c 1
 480 706 l 1xce
 537 705 557 705 630 709 c 1xae
437 907 m 1
 442 902 l 1
 469 848 484 820 524 757 c 1
 520 749 l 1
 385 746 l 1
 379 752 l 1xae
 337 833 l 1
 322 808 311 791 289 753 c 1
 283 747 l 1
 165 747 l 1
 161 754 l 1xb6
 202 818 211 833 244 901 c 1
 251 907 l 1
 437 907 l 1
EndSplineSet
Validated: 33
EndChar

StartChar: Udieresis
Encoding: 220 220 195
Width: 688
Flags: MW
HStem: -15 125<345.5 371> 686 20G<61 61 480 480> 689 20G<237 237 630 630> 755 140
VStem: 60 179<299 486.5 373 486.5> 161 152 406 150 484 148<304 392.5>
LayerCount: 2
Fore
SplineSet
630 709 m 1xb9
 635 703 l 1xb9
 632 406 l 1
 632 304 l 2
 630 177 626 119 573 63 c 0
 499 -15 389 -15 353 -15 c 0
 219 -15 142 35 104 89 c 0
 69 137 63 191 60 299 c 2
 60 373 l 2
 59 529 59 557 55 700 c 1
 61 706 l 1xd9
 129 705 152 705 237 709 c 1
 242 703 l 1xb9
 240 604 239 527 239 446 c 0
 239 393 239 340 241 287 c 0
 243 224 249 189 264 163 c 0
 286 128 325 110 366 110 c 0
 399 110 432 121 454 146 c 0
 481 178 484 226 484 331 c 0
 484 454 479 577 474 700 c 1
 480 706 l 1xd9
 537 705 557 705 630 709 c 1xb9
551 896 m 1
 557 890 l 1
 555 761 l 1
 550 755 l 1
 412 752 l 1
 406 758 l 1
 406 886 l 1
 411 893 l 1xb6
 551 896 l 1
309 896 m 1
 314 890 l 1
 312 763 l 1
 306 756 l 1
 166 754 l 1
 161 760 l 1
 161 887 l 1
 167 894 l 1
 309 896 l 1
EndSplineSet
Validated: 33
EndChar

StartChar: Ugrave
Encoding: 217 217 196
Width: 688
Flags: MW
HStem: -15 125<345.5 371> 686 20G<61 61 480 480> 689 20G<237 237 630 630> 900 7<192 362>
VStem: 60 179<299 486.5 373 486.5> 484 148<304 392.5>
LayerCount: 2
Fore
SplineSet
630 709 m 1xbc
 635 703 l 1xbc
 632 406 l 1
 632 304 l 2
 630 177 626 119 573 63 c 0
 499 -15 389 -15 353 -15 c 0
 219 -15 142 35 104 89 c 0
 69 137 63 191 60 299 c 2
 60 373 l 2
 59 529 59 557 55 700 c 1
 61 706 l 1xdc
 129 705 152 705 237 709 c 1
 242 703 l 1xbc
 240 604 239 527 239 446 c 0
 239 393 239 340 241 287 c 0
 243 224 249 189 264 163 c 0
 286 128 325 110 366 110 c 0
 399 110 432 121 454 146 c 0
 481 178 484 226 484 331 c 0
 484 454 479 577 474 700 c 1
 480 706 l 1xdc
 537 705 557 705 630 709 c 1xbc
362 907 m 1
 368 903 l 1
 384 841 390 823 416 754 c 1
 412 748 l 1
 310 747 l 1
 303 752 l 1
 192 900 l 1
 196 907 l 1
 362 907 l 1
EndSplineSet
Validated: 33
EndChar

StartChar: Yacute
Encoding: 221 221 197
Width: 604
Flags: MW
HStem: -3 21G<218 218> 0 21G<359.5 395> 686 20G<-8 -8 456 486.5> 689 20G<612 612> 693 20G<182 182> 747 160<292 339 238 458>
VStem: 220 175<264 296 296 296>
LayerCount: 2
Fore
SplineSet
401 6 m 1x4e
 395 0 l 1x4e
 324 0 302 0 218 -3 c 1
 213 3 l 1
 219 121 220 165 220 264 c 2
 220 296 l 1
 205 322 191 348 177 374 c 0
 151 420 18 646 -11 698 c 1
 -8 706 l 1
 76 707 97 708 182 713 c 1
 189 708 l 1x8e
 219 644 233 614 251 578 c 0
 261 559 312 462 323 440 c 1
 365 522 392 575 450 700 c 1
 456 706 l 1x66
 517 706 537 706 612 709 c 1
 616 702 l 1x56
 395 300 l 1
 395 172 396 136 401 6 c 1x4e
458 907 m 1
 460 901 l 1
 425 856 398 821 345 751 c 1
 339 747 l 1
 238 747 l 1
 234 753 l 1
 265 827 270 844 287 902 c 1
 292 907 l 1
 458 907 l 1
EndSplineSet
Validated: 1
EndChar

StartChar: Ydieresis
Encoding: 376 376 198
Width: 604
Flags: MW
HStem: -3 21G<218 218> 0 21G<359.5 395> 686 20G<-8 -8 456 486.5> 689 20G<612 612> 693 20G<182 182> 755 140
VStem: 107 152 220 175<264 296 296 296> 352 150
LayerCount: 2
Fore
SplineSet
401 6 m 1x4d
 395 0 l 1x4d
 324 0 302 0 218 -3 c 1
 213 3 l 1
 219 121 220 165 220 264 c 2
 220 296 l 1
 205 322 191 348 177 374 c 0
 151 420 18 646 -11 698 c 1
 -8 706 l 1
 76 707 97 708 182 713 c 1
 189 708 l 1x8d
 219 644 233 614 251 578 c 0
 261 559 312 462 323 440 c 1
 365 522 392 575 450 700 c 1
 456 706 l 1x65
 517 706 537 706 612 709 c 1
 616 702 l 1x55
 395 300 l 1
 395 172 396 136 401 6 c 1x4d
497 896 m 1
 503 890 l 1
 501 761 l 1
 496 755 l 1
 358 752 l 1
 352 758 l 1
 352 886 l 1
 357 893 l 1x4e80
 497 896 l 1
255 896 m 1
 260 890 l 1
 258 763 l 1
 252 756 l 1
 112 754 l 1
 107 760 l 1
 107 887 l 1
 113 894 l 1
 255 896 l 1
EndSplineSet
Validated: 1
EndChar

StartChar: Zcaron
Encoding: 381 381 199
Width: 562
Flags: MW
HStem: 0 135<22 527> 128 7<527 533> 576 130 748 158.5 900 7<350 472>
VStem: 16 519
LayerCount: 2
Fore
SplineSet
524 6 m 1xac
 517 0 l 1
 22 0 l 1
 16 6 l 1
 36 46 96 172 192 371 c 2
 248 491 l 1
 290 578 l 1
 43 574 l 1
 37 580 l 1
 46 700 l 1
 52 706 l 1
 530 706 l 1
 535 701 l 1
 260 129 l 1xb4
 368 130 399 130 527 135 c 1
 533 128 l 1x6c
 524 6 l 1xac
197 748 m 1
 191 752 l 1xb4
 166 802 140 851 109 897 c 1
 113 905 l 1
 248 908 l 1
 255 902 l 1
 296 821 l 1
 311 846 323 865 344 901 c 1
 350 907 l 1
 468 907 l 1
 472 900 l 1xac
 430 833 412 802 389 753 c 1
 382 748 l 1
 197 748 l 1
EndSplineSet
Validated: 1
EndChar

StartChar: aacute
Encoding: 225 225 200
Width: 562
Flags: MW
HStem: -12 125<153 275.5> -3 116<241 347> 0 21G<506 506> 427 114<249 278.5> 592 179
VStem: 27 166<153 186.5> 340 164<177 224 177 260 177 260>
LayerCount: 2
Fore
SplineSet
505 298 m 2x3e
 504 224 l 2
 504 130 504 105 511 7 c 1
 506 0 l 1x3e
 441 1 419 0 347 -3 c 1
 341 4 l 1x5e
 341 41 l 1
 320 24 277 -12 202 -12 c 0x9e
 104 -12 27 57 27 164 c 0
 27 209 46 266 102 301 c 0
 162 338 218 349 338 365 c 1
 338 380 335 398 325 408 c 0
 312 421 297 427 260 427 c 0
 193 427 128 401 93 387 c 1
 85 391 l 1
 90 500 l 1
 96 508 l 1
 153 525 206 541 292 541 c 0
 420 541 460 501 480 469 c 0
 506 427 506 388 505 298 c 2x3e
340 139 m 1x9e
 340 260 l 1
 272 251 193 240 193 174 c 0
 193 132 223 113 259 113 c 0
 292 113 319 127 340 139 c 1x9e
434 772 m 1
 437 765 l 1
 405 716 360 647 329 596 c 1
 322 592 l 1
 214 592 l 1
 210 598 l 1
 240 667 248 687 271 765 c 1
 276 770 l 1
 434 772 l 1
EndSplineSet
Validated: 33
EndChar

StartChar: acircumflex
Encoding: 226 226 201
Width: 562
Flags: MW
HStem: -12 125<153 275.5> -3 116<241 347> 0 21G<506 506> 427 114<249 278.5> 594 178<199 228 114 381>
VStem: 27 166<153 186.5> 340 164<177 224 177 260 177 260>
LayerCount: 2
Fore
SplineSet
505 298 m 2x3e
 504 224 l 2
 504 130 504 105 511 7 c 1
 506 0 l 1x3e
 441 1 419 0 347 -3 c 1
 341 4 l 1x5e
 341 41 l 1
 320 24 277 -12 202 -12 c 0x9e
 104 -12 27 57 27 164 c 0
 27 209 46 266 102 301 c 0
 162 338 218 349 338 365 c 1
 338 380 335 398 325 408 c 0
 312 421 297 427 260 427 c 0
 193 427 128 401 93 387 c 1
 85 391 l 1
 90 500 l 1
 96 508 l 1
 153 525 206 541 292 541 c 0
 420 541 460 501 480 469 c 0
 506 427 506 388 505 298 c 2x3e
340 139 m 1x9e
 340 260 l 1
 272 251 193 240 193 174 c 0
 193 132 223 113 259 113 c 0
 292 113 319 127 340 139 c 1x9e
381 772 m 1
 387 767 l 1
 419 695 425 679 464 602 c 1
 461 596 l 1
 326 592 l 1
 320 597 l 1
 278 702 l 1
 234 599 l 1
 228 594 l 1
 114 594 l 1
 111 600 l 1
 155 682 164 702 193 767 c 1
 199 772 l 1
 381 772 l 1
EndSplineSet
Validated: 33
EndChar

StartChar: adieresis
Encoding: 228 228 202
Width: 562
Flags: MW
HStem: -12 125<153 275.5> -3 116<241 347> 0 21G<506 506> 427 114<249 278.5> 592 147.5
VStem: 27 166<153 186.5> 98.5 149.5 322 148 340 164<177 224 177 260 177 260>
LayerCount: 2
Fore
SplineSet
505 298 m 2x9c80
 504 224 l 2
 504 130 504 105 511 7 c 1
 506 0 l 1x3a80
 441 1 419 0 347 -3 c 1
 341 4 l 1x5a80
 341 41 l 1
 320 24 277 -12 202 -12 c 0
 104 -12 27 57 27 164 c 0
 27 209 46 266 102 301 c 0
 162 338 218 349 338 365 c 1
 338 380 335 398 325 408 c 0
 312 421 297 427 260 427 c 0
 193 427 128 401 93 387 c 1
 85 391 l 1
 90 500 l 1
 96 508 l 1
 153 525 206 541 292 541 c 0
 420 541 460 501 480 469 c 0
 506 427 506 388 505 298 c 2x9c80
340 139 m 1x9c80
 340 260 l 1
 272 251 193 240 193 174 c 0
 193 132 223 113 259 113 c 0
 292 113 319 127 340 139 c 1x9c80
465 744 m 1
 470 739 l 1
 470 601 l 1
 465 595 l 1
 329 587 l 1
 323 593 l 1
 321 730 l 1
 326 736 l 1x3b
 465 744 l 1
243 743 m 1
 248 737 l 1
 248 602 l 1
 242 596 l 1
 105 588 l 1
 100 594 l 1
 97 730 l 1
 102 736 l 1
 243 743 l 1
EndSplineSet
Validated: 33
EndChar

StartChar: agrave
Encoding: 224 224 203
Width: 562
Flags: MW
HStem: -12 125<153 275.5> -3 116<241 347> 0 21G<506 506> 427 114<249 278.5> 763 8<130 288>
VStem: 27 166<153 186.5> 340 164<177 224 177 260 177 260>
LayerCount: 2
Fore
SplineSet
505 298 m 2x3e
 504 224 l 2
 504 130 504 105 511 7 c 1
 506 0 l 1x3e
 441 1 419 0 347 -3 c 1
 341 4 l 1x5e
 341 41 l 1
 320 24 277 -12 202 -12 c 0x9e
 104 -12 27 57 27 164 c 0
 27 209 46 266 102 301 c 0
 162 338 218 349 338 365 c 1
 338 380 335 398 325 408 c 0
 312 421 297 427 260 427 c 0
 193 427 128 401 93 387 c 1
 85 391 l 1
 90 500 l 1
 96 508 l 1
 153 525 206 541 292 541 c 0
 420 541 460 501 480 469 c 0
 506 427 506 388 505 298 c 2x3e
340 139 m 1x9e
 340 260 l 1
 272 251 193 240 193 174 c 0
 193 132 223 113 259 113 c 0
 292 113 319 127 340 139 c 1x9e
288 771 m 1
 294 767 l 1
 313 700 319 680 353 601 c 1
 348 594 l 1
 240 594 l 1
 233 598 l 1
 190 670 178 691 130 763 c 1
 134 771 l 1
 288 771 l 1
EndSplineSet
Validated: 33
EndChar

StartChar: aring
Encoding: 229 229 204
Width: 562
Flags: MW
HStem: -12 125<153 275.5> -3 116<241 347> 0 21G<506 506> 427 114<249 278.5> 575 57<281.5 301.5 281.5 327> 753 59<284 293.5>
VStem: 27 166<153 186.5> 164 87<671.5 718 671.5 718> 329 90<698 698> 340 164<177 224 177 260 177 260>
LayerCount: 2
Fore
SplineSet
505 298 m 2x3d40
 504 224 l 2
 504 130 504 105 511 7 c 1
 506 0 l 1x3d40
 441 1 419 0 347 -3 c 1
 341 4 l 1x5d40
 341 41 l 1
 320 24 277 -12 202 -12 c 0
 104 -12 27 57 27 164 c 0
 27 209 46 266 102 301 c 0x9e40
 162 338 218 349 338 365 c 1
 338 380 335 398 325 408 c 0
 312 421 297 427 260 427 c 0
 193 427 128 401 93 387 c 1
 85 391 l 1
 90 500 l 1
 96 508 l 1
 153 525 206 541 292 541 c 0
 420 541 460 501 480 469 c 0
 506 427 506 388 505 298 c 2x3d40
340 139 m 1x9e40
 340 260 l 1
 272 251 193 240 193 174 c 0
 193 132 223 113 259 113 c 0
 292 113 319 127 340 139 c 1x9e40
419 698 m 0x3d80
 422 620 367 575 287 575 c 0
 207 575 164 627 164 689 c 0
 164 747 202 812 294 812 c 0
 390 812 417 748 419 698 c 0x3d80
329 698 m 0
 327 753 296 753 291 753 c 0
 277 753 251 743 251 693 c 0
 251 650 272 632 291 632 c 0
 312 632 331 653 329 698 c 0
EndSplineSet
Validated: 33
EndChar

StartChar: atilde
Encoding: 227 227 205
Width: 562
Flags: MW
HStem: -12 125<153 275.5> -3 116<241 347> 0 21G<506 506> 427 114<249 278.5> 596 117<345 374 345 374> 636 116<179.5 208.5> 693 20G<345 374>
VStem: 27 166<153 186.5> 340 164<177 224 177 260 177 260> 443 7<643 758>
LayerCount: 2
Fore
SplineSet
505 298 m 2x9380
 504 224 l 2
 504 130 504 105 511 7 c 1
 506 0 l 1x3280
 441 1 419 0 347 -3 c 1
 341 4 l 1x5280
 341 41 l 1
 320 24 277 -12 202 -12 c 0
 104 -12 27 57 27 164 c 0
 27 209 46 266 102 301 c 0
 162 338 218 349 338 365 c 1
 338 380 335 398 325 408 c 0
 312 421 297 427 260 427 c 0
 193 427 128 401 93 387 c 1
 85 391 l 1
 90 500 l 1
 96 508 l 1
 153 525 206 541 292 541 c 0
 420 541 460 501 480 469 c 0
 506 427 506 388 505 298 c 2x9380
340 139 m 1x9380
 340 260 l 1
 272 251 193 240 193 174 c 0
 193 132 223 113 259 113 c 0
 292 113 319 127 340 139 c 1x9380
443 758 m 1x3240
 450 755 l 1
 450 643 l 1
 446 635 l 1
 423 617 396 596 352 596 c 0
 330 596 315 602 295 609 c 2x3840
 265 620 l 2
 242 628 220 636 197 636 c 0
 162 636 134 617 112 602 c 1
 106 605 l 1
 107 710 l 1
 111 718 l 1
 133 735 153 752 199 752 c 0
 219 752 233 748 252 742 c 2x3440
 291 728 l 2
 313 721 334 713 356 713 c 0
 392 713 421 739 443 758 c 1x3240
EndSplineSet
Validated: 33
EndChar

StartChar: ccedilla
Encoding: 231 231 206
Width: 479
Flags: MW
HStem: -186 150<165 342 165 342> -9 121<285.5 346.5> 422 119<291 346.5 208.5 363>
VStem: 35 175<245 302 245 326> 438 10<386 390>
LayerCount: 2
Fore
SplineSet
342 -36 m 1
 345 -42 l 1
 326 -97 321 -112 301 -180 c 1
 295 -186 l 1
 238 -185 202 -186 165 -186 c 1
 162 -180 l 1
 194 -113 202 -97 228 -40 c 1
 234 -35 l 1
 288 -36 294 -36 342 -36 c 1
451 144 m 1x78
 459 139 l 1
 457 91 456 73 455 19 c 1
 449 13 l 1
 417 3 380 -9 313 -9 c 0
 115 -9 35 125 35 259 c 0
 35 393 106 541 311 541 c 0
 382 541 426 526 456 515 c 1
 461 509 l 1
 453 455 452 441 448 390 c 1
 438 386 l 1
 418 401 387 422 339 422 c 0
 243 422 210 337 210 267 c 0
 210 223 225 112 346 112 c 0
 401 112 435 134 451 144 c 1x78
EndSplineSet
Validated: 33
EndChar

StartChar: eacute
Encoding: 233 233 207
Width: 562
Flags: MW
HStem: -12 117<318 367.5> 227 102 435 107<282 305.5> 592 179
VStem: 36 165<221 327 221 352.5> 368 162<234 342.5>
LayerCount: 2
Fore
SplineSet
504 148 m 1
 511 145 l 1
 504 32 l 1
 498 24 l 1
 445 3 409 -12 326 -12 c 0
 254 -12 118 0 60 135 c 0
 44 170 36 219 36 266 c 0
 36 439 140 542 297 542 c 0
 320 542 343 540 368 533 c 0
 402 525 479 501 514 383 c 0
 528 333 529 283 530 234 c 1
 524 227 l 1
 201 221 l 1
 205 201 208 181 223 160 c 0
 247 124 288 105 348 105 c 0
 421 105 466 128 504 148 c 1
201 327 m 1
 368 331 l 1
 368 354 367 378 353 400 c 0
 342 418 322 435 289 435 c 0
 275 435 261 432 249 424 c 0
 211 400 204 358 201 327 c 1
434 772 m 1
 437 765 l 1
 405 716 360 647 329 596 c 1
 322 592 l 1
 214 592 l 1
 210 598 l 1
 240 667 248 687 271 765 c 1
 276 770 l 1
 434 772 l 1
EndSplineSet
Validated: 1
EndChar

StartChar: ecircumflex
Encoding: 234 234 208
Width: 562
Flags: MW
HStem: -12 117<318 367.5> 227 102 435 107<282 305.5> 594 178<199 228 114 381>
VStem: 36 165<221 327 221 352.5> 368 162<234 342.5>
LayerCount: 2
Fore
SplineSet
504 148 m 1
 511 145 l 1
 504 32 l 1
 498 24 l 1
 445 3 409 -12 326 -12 c 0
 254 -12 118 0 60 135 c 0
 44 170 36 219 36 266 c 0
 36 439 140 542 297 542 c 0
 320 542 343 540 368 533 c 0
 402 525 479 501 514 383 c 0
 528 333 529 283 530 234 c 1
 524 227 l 1
 201 221 l 1
 205 201 208 181 223 160 c 0
 247 124 288 105 348 105 c 0
 421 105 466 128 504 148 c 1
201 327 m 1
 368 331 l 1
 368 354 367 378 353 400 c 0
 342 418 322 435 289 435 c 0
 275 435 261 432 249 424 c 0
 211 400 204 358 201 327 c 1
381 772 m 1
 387 767 l 1
 419 695 425 679 464 602 c 1
 461 596 l 1
 326 592 l 1
 320 597 l 1
 278 702 l 1
 234 599 l 1
 228 594 l 1
 114 594 l 1
 111 600 l 1
 155 682 164 702 193 767 c 1
 199 772 l 1
 381 772 l 1
EndSplineSet
Validated: 1
EndChar

StartChar: edieresis
Encoding: 235 235 209
Width: 562
Flags: MW
HStem: -12 117<318 367.5> 227 102 435 107<282 305.5> 592 147.5
VStem: 36 165<221 327 221 352.5> 93.5 149.5 317 148 368 162<234 342.5>
LayerCount: 2
Fore
SplineSet
504 148 m 1xf6
 511 145 l 1
 504 32 l 1
 498 24 l 1
 445 3 409 -12 326 -12 c 0
 254 -12 118 0 60 135 c 0
 44 170 36 219 36 266 c 0
 36 439 140 542 297 542 c 0
 320 542 343 540 368 533 c 0
 402 525 479 501 514 383 c 0
 528 333 529 283 530 234 c 1
 524 227 l 1
 201 221 l 1
 205 201 208 181 223 160 c 0xf9
 247 124 288 105 348 105 c 0
 421 105 466 128 504 148 c 1xf6
201 327 m 1
 368 331 l 1
 368 354 367 378 353 400 c 0
 342 418 322 435 289 435 c 0
 275 435 261 432 249 424 c 0
 211 400 204 358 201 327 c 1
460 744 m 1
 465 739 l 1
 465 601 l 1
 460 595 l 1
 324 587 l 1
 318 593 l 1
 316 730 l 1
 321 736 l 1xf6
 460 744 l 1
238 743 m 1
 243 737 l 1
 243 602 l 1
 237 596 l 1
 100 588 l 1
 95 594 l 1
 92 730 l 1
 97 736 l 1
 238 743 l 1
EndSplineSet
Validated: 1
EndChar

StartChar: egrave
Encoding: 232 232 210
Width: 562
Flags: MW
HStem: -12 117<318 367.5> 227 102 435 107<282 305.5> 763 8<130 288>
VStem: 36 165<221 327 221 352.5> 368 162<234 342.5>
LayerCount: 2
Fore
SplineSet
504 148 m 1
 511 145 l 1
 504 32 l 1
 498 24 l 1
 445 3 409 -12 326 -12 c 0
 254 -12 118 0 60 135 c 0
 44 170 36 219 36 266 c 0
 36 439 140 542 297 542 c 0
 320 542 343 540 368 533 c 0
 402 525 479 501 514 383 c 0
 528 333 529 283 530 234 c 1
 524 227 l 1
 201 221 l 1
 205 201 208 181 223 160 c 0
 247 124 288 105 348 105 c 0
 421 105 466 128 504 148 c 1
201 327 m 1
 368 331 l 1
 368 354 367 378 353 400 c 0
 342 418 322 435 289 435 c 0
 275 435 261 432 249 424 c 0
 211 400 204 358 201 327 c 1
288 771 m 1
 294 767 l 1
 313 700 319 680 353 601 c 1
 348 594 l 1
 240 594 l 1
 233 598 l 1
 190 670 178 691 130 763 c 1
 134 771 l 1
 288 771 l 1
EndSplineSet
Validated: 1
EndChar

StartChar: iacute
Encoding: 237 237 211
Width: 292
Flags: MW
HStem: -3 7<55 61> 0 21G<234 234> 517 20G<235 235> 525 20G<228 228> 592 179
VStem: 61 171<212 323.5 212 327>
LayerCount: 2
Fore
SplineSet
241 7 m 1x9c
 234 0 l 1x5c
 153 1 133 0 61 -3 c 1
 55 4 l 1
 58 86 61 147 61 256 c 0
 61 398 58 433 50 509 c 1
 56 515 l 1
 228 545 l 1
 235 537 l 1xac
 234 452 232 366 232 281 c 0
 232 143 236 84 241 7 c 1x9c
299 772 m 1
 302 765 l 1
 270 716 225 647 194 596 c 1
 187 592 l 1
 79 592 l 1
 75 598 l 1
 105 667 113 687 136 765 c 1
 141 770 l 1
 299 772 l 1
EndSplineSet
Validated: 33
EndChar

StartChar: icircumflex
Encoding: 238 238 212
Width: 292
Flags: MW
HStem: -3 7<55 61> 0 21G<234 234> 517 20G<235 235> 525 20G<228 228> 594 178<64 93 -21 246>
VStem: 61 171<212 323.5 212 327>
LayerCount: 2
Fore
SplineSet
241 7 m 1x9c
 234 0 l 1x5c
 153 1 133 0 61 -3 c 1
 55 4 l 1
 58 86 61 147 61 256 c 0
 61 398 58 433 50 509 c 1
 56 515 l 1
 228 545 l 1
 235 537 l 1xac
 234 452 232 366 232 281 c 0
 232 143 236 84 241 7 c 1x9c
246 772 m 1
 252 767 l 1
 284 695 290 679 329 602 c 1
 326 596 l 1
 191 592 l 1
 185 597 l 1
 143 702 l 1
 99 599 l 1
 93 594 l 1
 -21 594 l 1
 -24 600 l 1
 20 682 29 702 58 767 c 1
 64 772 l 1
 246 772 l 1
EndSplineSet
Validated: 33
EndChar

StartChar: idieresis
Encoding: 239 239 213
Width: 292
Flags: MW
HStem: -3 7<55 61> 0 21G<234 234> 517 20G<235 235> 525 20G<228 228> 592 147.5
VStem: -41.5 149.5 61 171<212 323.5 212 327> 182 148
LayerCount: 2
Fore
SplineSet
241 7 m 1x9a
 234 0 l 1x5a
 153 1 133 0 61 -3 c 1
 55 4 l 1
 58 86 61 147 61 256 c 0
 61 398 58 433 50 509 c 1
 56 515 l 1
 228 545 l 1
 235 537 l 1xaa
 234 452 232 366 232 281 c 0
 232 143 236 84 241 7 c 1x9a
325 744 m 1
 330 739 l 1
 330 601 l 1
 325 595 l 1
 189 587 l 1
 183 593 l 1
 181 730 l 1
 186 736 l 1x9d
 325 744 l 1
103 743 m 1
 108 737 l 1
 108 602 l 1
 102 596 l 1
 -35 588 l 1
 -40 594 l 1
 -43 730 l 1
 -38 736 l 1
 103 743 l 1
EndSplineSet
Validated: 33
EndChar

StartChar: igrave
Encoding: 236 236 214
Width: 292
Flags: MW
HStem: -3 7<55 61> 0 21G<234 234> 517 20G<235 235> 525 20G<228 228> 763 8<-5 153>
VStem: 61 171<212 323.5 212 327>
LayerCount: 2
Fore
SplineSet
241 7 m 1x9c
 234 0 l 1x5c
 153 1 133 0 61 -3 c 1
 55 4 l 1
 58 86 61 147 61 256 c 0
 61 398 58 433 50 509 c 1
 56 515 l 1
 228 545 l 1
 235 537 l 1xac
 234 452 232 366 232 281 c 0
 232 143 236 84 241 7 c 1x9c
153 771 m 1
 159 767 l 1
 178 700 184 680 218 601 c 1
 213 594 l 1
 105 594 l 1
 98 598 l 1
 55 670 43 691 -5 763 c 1
 -1 771 l 1
 153 771 l 1
EndSplineSet
Validated: 33
EndChar

StartChar: ntilde
Encoding: 241 241 215
Width: 604
Flags: MW
HStem: -2 21G<67 67 380 380> 1 21G<194 234 503 543> 410 132<293 410> 518 20G<234 234> 522 20G<361.5 410> 525 20G<224 224> 596 117<366 395 366 395> 636 116<200.5 229.5> 693 20G<366 395>
VStem: 63 169 224 9 375 168<1 126> 464 7<643 758>
LayerCount: 2
Fore
SplineSet
550 7 m 1x44d0
 543 1 l 1x44d0
 463 1 446 0 380 -2 c 1
 374 4 l 1x84d0
 374 38 375 73 375 107 c 0
 375 145 374 282 372 315 c 0
 369 351 364 410 309 410 c 0
 277 410 253 393 232 379 c 1
 233 200 234 161 240 7 c 1
 234 1 l 1x60d0
 154 1 139 1 67 -2 c 1
 61 4 l 1
 62 68 63 132 63 196 c 0
 63 359 57 422 49 509 c 1
 55 516 l 1x90d0
 130 526 147 529 224 545 c 1
 234 538 l 1x50b0
 232 483 l 1
 278 510 331 542 392 542 c 0
 428 542 485 534 516 482 c 0x48b0
 541 441 542 395 543 299 c 2
 543 221 l 2
 545 123 545 95 550 7 c 1x44d0
464 758 m 1x44c8
 471 755 l 1
 471 643 l 1
 467 635 l 1
 444 617 417 596 373 596 c 0
 351 596 336 602 316 609 c 2x4648
 286 620 l 2
 263 628 241 636 218 636 c 0
 183 636 155 617 133 602 c 1
 127 605 l 1
 128 710 l 1
 132 718 l 1
 154 735 174 752 220 752 c 0
 240 752 254 748 273 742 c 2x4530
 312 728 l 2
 334 721 355 713 377 713 c 0
 413 713 442 739 464 758 c 1x44c8
EndSplineSet
Validated: 1
EndChar

StartChar: oacute
Encoding: 243 243 216
Width: 604
Flags: MW
HStem: -12 106<289 343.5 289 406> 438 103<287 317> 592 179
VStem: 35 175<232 279.5 216.5 356> 396 173<226 285.5 191 294>
LayerCount: 2
Fore
SplineSet
569 266 m 0
 569 116 512 -12 300 -12 c 0
 157 -12 108 42 82 81 c 0
 45 135 35 200 35 264 c 0
 35 448 133 541 307 541 c 0
 333 541 385 539 429 522 c 0
 569 467 569 305 569 266 c 0
396 267 m 0
 396 321 391 378 367 407 c 0
 354 423 331 438 303 438 c 0
 271 438 245 420 230 393 c 0
 210 358 210 294 210 265 c 0
 210 168 229 134 246 117 c 0
 258 106 276 94 302 94 c 0
 385 94 396 185 396 267 c 0
455 772 m 1
 458 765 l 1
 426 716 381 647 350 596 c 1
 343 592 l 1
 235 592 l 1
 231 598 l 1
 261 667 269 687 292 765 c 1
 297 770 l 1
 455 772 l 1
EndSplineSet
Validated: 1
EndChar

StartChar: ocircumflex
Encoding: 244 244 217
Width: 604
Flags: MW
HStem: -12 106<289 343.5 289 406> 438 103<287 317> 594 178<220 249 135 402>
VStem: 35 175<232 279.5 216.5 356> 396 173<226 285.5 191 294>
LayerCount: 2
Fore
SplineSet
569 266 m 0
 569 116 512 -12 300 -12 c 0
 157 -12 108 42 82 81 c 0
 45 135 35 200 35 264 c 0
 35 448 133 541 307 541 c 0
 333 541 385 539 429 522 c 0
 569 467 569 305 569 266 c 0
396 267 m 0
 396 321 391 378 367 407 c 0
 354 423 331 438 303 438 c 0
 271 438 245 420 230 393 c 0
 210 358 210 294 210 265 c 0
 210 168 229 134 246 117 c 0
 258 106 276 94 302 94 c 0
 385 94 396 185 396 267 c 0
402 772 m 1
 408 767 l 1
 440 695 446 679 485 602 c 1
 482 596 l 1
 347 592 l 1
 341 597 l 1
 299 702 l 1
 255 599 l 1
 249 594 l 1
 135 594 l 1
 132 600 l 1
 176 682 185 702 214 767 c 1
 220 772 l 1
 402 772 l 1
EndSplineSet
Validated: 1
EndChar

StartChar: odieresis
Encoding: 246 246 218
Width: 604
Flags: MW
HStem: -12 106<289 343.5 289 406> 438 103<287 317> 592 147.5
VStem: 35 175<232 279.5 216.5 356> 116.5 149.5 340 148 396 173<226 285.5 191 294>
LayerCount: 2
Fore
SplineSet
569 266 m 0xf2
 569 116 512 -12 300 -12 c 0
 157 -12 108 42 82 81 c 0
 45 135 35 200 35 264 c 0
 35 448 133 541 307 541 c 0
 333 541 385 539 429 522 c 0
 569 467 569 305 569 266 c 0xf2
396 267 m 0
 396 321 391 378 367 407 c 0
 354 423 331 438 303 438 c 0
 271 438 245 420 230 393 c 0
 210 358 210 294 210 265 c 0
 210 168 229 134 246 117 c 0
 258 106 276 94 302 94 c 0
 385 94 396 185 396 267 c 0
483 744 m 1
 488 739 l 1
 488 601 l 1
 483 595 l 1
 347 587 l 1
 341 593 l 1
 339 730 l 1
 344 736 l 1xec
 483 744 l 1
261 743 m 1
 266 737 l 1
 266 602 l 1
 260 596 l 1
 123 588 l 1
 118 594 l 1
 115 730 l 1
 120 736 l 1
 261 743 l 1
EndSplineSet
Validated: 1
EndChar

StartChar: ograve
Encoding: 242 242 219
Width: 604
Flags: MW
HStem: -12 106<289 343.5 289 406> 438 103<287 317> 763 8<151 309>
VStem: 35 175<232 279.5 216.5 356> 396 173<226 285.5 191 294>
LayerCount: 2
Fore
SplineSet
569 266 m 0
 569 116 512 -12 300 -12 c 0
 157 -12 108 42 82 81 c 0
 45 135 35 200 35 264 c 0
 35 448 133 541 307 541 c 0
 333 541 385 539 429 522 c 0
 569 467 569 305 569 266 c 0
396 267 m 0
 396 321 391 378 367 407 c 0
 354 423 331 438 303 438 c 0
 271 438 245 420 230 393 c 0
 210 358 210 294 210 265 c 0
 210 168 229 134 246 117 c 0
 258 106 276 94 302 94 c 0
 385 94 396 185 396 267 c 0
309 771 m 1
 315 767 l 1
 334 700 340 680 374 601 c 1
 369 594 l 1
 261 594 l 1
 254 598 l 1
 211 670 199 691 151 763 c 1
 155 771 l 1
 309 771 l 1
EndSplineSet
Validated: 1
EndChar

StartChar: otilde
Encoding: 245 245 220
Width: 604
Flags: MW
HStem: -12 106<289 343.5 289 406> 438 103<287 317> 596 117<366 395 366 395> 636 116<200.5 229.5> 693 20G<366 395>
VStem: 35 175<232 279.5 216.5 356> 396 173<226 285.5 191 294> 464 7<643 758>
LayerCount: 2
Fore
SplineSet
569 266 m 0xce
 569 116 512 -12 300 -12 c 0
 157 -12 108 42 82 81 c 0
 45 135 35 200 35 264 c 0
 35 448 133 541 307 541 c 0
 333 541 385 539 429 522 c 0
 569 467 569 305 569 266 c 0xce
396 267 m 0
 396 321 391 378 367 407 c 0
 354 423 331 438 303 438 c 0
 271 438 245 420 230 393 c 0
 210 358 210 294 210 265 c 0
 210 168 229 134 246 117 c 0
 258 106 276 94 302 94 c 0
 385 94 396 185 396 267 c 0
464 758 m 1xcd
 471 755 l 1
 471 643 l 1
 467 635 l 1
 444 617 417 596 373 596 c 0
 351 596 336 602 316 609 c 2xe5
 286 620 l 2
 263 628 241 636 218 636 c 0
 183 636 155 617 133 602 c 1
 127 605 l 1
 128 710 l 1
 132 718 l 1
 154 735 174 752 220 752 c 0
 240 752 254 748 273 742 c 2xd5
 312 728 l 2
 334 721 355 713 377 713 c 0
 413 713 442 739 464 758 c 1xcd
EndSplineSet
Validated: 1
EndChar

StartChar: scaron
Encoding: 353 353 221
Width: 479
Flags: MW
HStem: -12 104<185 227 185 244> 441 101<248 297.5 240.5 309.5> 593 178<154 422 308 336>
VStem: 37 414<31 222> 39 170<382 395> 278 173<131.5 222>
LayerCount: 2
Fore
SplineSet
270 345 m 2xec
 319 327 l 2
 374 306 451 277 451 167 c 0
 451 160 451 153 450 145 c 0
 432 2 282 -12 206 -12 c 0
 133 -12 91 4 42 22 c 1
 37 31 l 1
 41 81 42 92 44 144 c 1
 53 148 l 1
 68 136 76 129 93 120 c 0
 130 101 171 92 199 92 c 0
 255 92 278 119 278 144 c 0
 278 180 234 195 207 204 c 2
 169 218 l 2
 122 236 39 268 39 375 c 0
 39 415 53 445 66 463 c 0
 118 538 216 542 265 542 c 0
 330 542 371 530 418 517 c 1
 423 511 l 1
 413 402 l 1
 404 399 l 1
 379 415 340 441 279 441 c 0
 217 441 209 408 209 396 c 0
 209 368 236 357 270 345 c 2xec
154 593 m 1
 149 598 l 1
 115 675 108 690 72 763 c 1
 75 769 l 1
 210 773 l 1
 215 768 l 1
 258 663 l 1
 302 766 l 1
 308 771 l 1
 422 771 l 1
 425 766 l 1
 377 675 368 655 343 598 c 1
 336 593 l 1
 154 593 l 1
EndSplineSet
Validated: 1
EndChar

StartChar: uacute
Encoding: 250 250 222
Width: 604
Flags: MW
HStem: -12 126<265 266.5> -3 21G<385 385> 0 114 515 20G<225 225 540 540> 527 8<225 232> 592 179
VStem: 60 171<527 598> 377 167<217.5 240>
LayerCount: 2
Fore
SplineSet
540 535 m 1x57
 547 527 l 1
 545 433 544 339 544 245 c 0
 544 115 546 77 551 6 c 1
 545 0 l 1x2f
 480 0 458 0 385 -3 c 1
 378 3 l 1x57
 379 48 l 1
 343 20 302 -12 231 -12 c 0
 181 -12 133 4 100 41 c 0
 64 83 59 129 60 238 c 2
 60 308 l 2
 60 409 59 437 53 521 c 1
 60 527 l 1
 225 535 l 1
 232 527 l 1
 230 325 l 2
 229 300 229 274 229 249 c 0
 229 190 229 114 301 114 c 0
 328 114 349 129 376 147 c 1x8f
 377 187 377 203 377 232 c 0
 377 248 377 408 370 521 c 1
 377 527 l 1
 540 535 l 1x57
455 772 m 1
 458 765 l 1
 426 716 381 647 350 596 c 1
 343 592 l 1
 235 592 l 1
 231 598 l 1
 261 667 269 687 292 765 c 1
 297 770 l 1
 455 772 l 1
EndSplineSet
Validated: 33
EndChar

StartChar: ucircumflex
Encoding: 251 251 223
Width: 604
Flags: MW
HStem: -12 126<265 266.5> -3 21G<385 385> 0 114 515 20G<225 225 540 540> 527 8<225 232> 594 178<220 249 135 402>
VStem: 60 171 377 167<217.5 240>
LayerCount: 2
Fore
SplineSet
540 535 m 1x57
 547 527 l 1
 545 433 544 339 544 245 c 0
 544 115 546 77 551 6 c 1
 545 0 l 1x2f
 480 0 458 0 385 -3 c 1
 378 3 l 1x57
 379 48 l 1
 343 20 302 -12 231 -12 c 0
 181 -12 133 4 100 41 c 0
 64 83 59 129 60 238 c 2
 60 308 l 2
 60 409 59 437 53 521 c 1
 60 527 l 1
 225 535 l 1
 232 527 l 1
 230 325 l 2
 229 300 229 274 229 249 c 0
 229 190 229 114 301 114 c 0
 328 114 349 129 376 147 c 1x8f
 377 187 377 203 377 232 c 0
 377 248 377 408 370 521 c 1
 377 527 l 1
 540 535 l 1x57
402 772 m 1
 408 767 l 1
 440 695 446 679 485 602 c 1
 482 596 l 1
 347 592 l 1
 341 597 l 1
 299 702 l 1
 255 599 l 1
 249 594 l 1
 135 594 l 1
 132 600 l 1
 176 682 185 702 214 767 c 1
 220 772 l 1
 402 772 l 1
EndSplineSet
Validated: 33
EndChar

StartChar: udieresis
Encoding: 252 252 224
Width: 604
Flags: MW
HStem: -12 126<265 266.5> -3 21G<385 385> 0 114 515 20G<225 225 540 540> 527 8<225 232> 592 147.5
VStem: 60 171 117.5 149.5 341 148 377 167<217.5 240>
LayerCount: 2
Fore
SplineSet
540 535 m 1x5640
 547 527 l 1
 545 433 544 339 544 245 c 0
 544 115 546 77 551 6 c 1
 545 0 l 1x2e40
 480 0 458 0 385 -3 c 1
 378 3 l 1x5640
 379 48 l 1
 343 20 302 -12 231 -12 c 0
 181 -12 133 4 100 41 c 0
 64 83 59 129 60 238 c 2
 60 308 l 2
 60 409 59 437 53 521 c 1
 60 527 l 1
 225 535 l 1
 232 527 l 1
 230 325 l 2
 229 300 229 274 229 249 c 0
 229 190 229 114 301 114 c 0
 328 114 349 129 376 147 c 1x8e40
 377 187 377 203 377 232 c 0
 377 248 377 408 370 521 c 1
 377 527 l 1
 540 535 l 1x5640
484 744 m 1
 489 739 l 1
 489 601 l 1
 484 595 l 1
 348 587 l 1
 342 593 l 1
 340 730 l 1
 345 736 l 1x5580
 484 744 l 1
262 743 m 1
 267 737 l 1
 267 602 l 1
 261 596 l 1
 124 588 l 1
 119 594 l 1
 116 730 l 1
 121 736 l 1
 262 743 l 1
EndSplineSet
Validated: 33
EndChar

StartChar: ugrave
Encoding: 249 249 225
Width: 604
Flags: MW
HStem: -12 126<265 266.5> -3 21G<385 385> 0 114 515 20G<225 225 540 540> 527 8<225 232> 763 8<151 309>
VStem: 60 171 377 167<217.5 240>
LayerCount: 2
Fore
SplineSet
540 535 m 1x57
 547 527 l 1
 545 433 544 339 544 245 c 0
 544 115 546 77 551 6 c 1
 545 0 l 1x2f
 480 0 458 0 385 -3 c 1
 378 3 l 1x57
 379 48 l 1
 343 20 302 -12 231 -12 c 0
 181 -12 133 4 100 41 c 0
 64 83 59 129 60 238 c 2
 60 308 l 2
 60 409 59 437 53 521 c 1
 60 527 l 1
 225 535 l 1
 232 527 l 1
 230 325 l 2
 229 300 229 274 229 249 c 0
 229 190 229 114 301 114 c 0
 328 114 349 129 376 147 c 1x8f
 377 187 377 203 377 232 c 0
 377 248 377 408 370 521 c 1
 377 527 l 1
 540 535 l 1x57
309 771 m 1
 315 767 l 1
 334 700 340 680 374 601 c 1
 369 594 l 1
 261 594 l 1
 254 598 l 1
 211 670 199 691 151 763 c 1
 155 771 l 1
 309 771 l 1
EndSplineSet
Validated: 33
EndChar

StartChar: yacute
Encoding: 253 253 226
Width: 500
Flags: MW
HStem: -246 21G<157 182.5> 513 20G<507 507> 515 20G<171 171> 592 179
VStem: -11 522<519 525>
LayerCount: 2
Fore
SplineSet
507 533 m 1xd8
 511 525 l 1xd8
 497 486 482 447 467 407 c 0
 335 59 308 -25 253 -241 c 1
 246 -247 l 1
 221 -247 195 -246 170 -246 c 0
 144 -246 116 -247 91 -248 c 1
 86 -240 l 1
 131 -141 139 -123 180 -19 c 1
 118 173 25 424 -11 519 c 1
 -6 526 l 1
 76 528 93 529 171 535 c 1
 179 529 l 1xb8
 219 377 l 1
 248 271 l 1
 267 200 l 1
 289 275 l 1
 315 361 l 2
 339 439 343 454 360 523 c 1
 368 530 l 1
 507 533 l 1xd8
403 772 m 1
 406 765 l 1
 374 716 329 647 298 596 c 1
 291 592 l 1
 183 592 l 1
 179 598 l 1
 209 667 217 687 240 765 c 1
 245 770 l 1
 403 772 l 1
EndSplineSet
Validated: 1
EndChar

StartChar: ydieresis
Encoding: 255 255 227
Width: 500
Flags: MW
HStem: -246 21G<157 182.5> 513 20G<507 507> 515 20G<171 171> 592 147.5
VStem: 62.5 149.5 286 148
LayerCount: 2
Fore
SplineSet
507 533 m 1xdc
 511 525 l 1xdc
 497 486 482 447 467 407 c 0
 335 59 308 -25 253 -241 c 1
 246 -247 l 1
 221 -247 195 -246 170 -246 c 0
 144 -246 116 -247 91 -248 c 1
 86 -240 l 1
 131 -141 139 -123 180 -19 c 1
 118 173 25 424 -11 519 c 1
 -6 526 l 1
 76 528 93 529 171 535 c 1
 179 529 l 1xbc
 219 377 l 1
 248 271 l 1
 267 200 l 1
 289 275 l 1
 315 361 l 2
 339 439 343 454 360 523 c 1
 368 530 l 1
 507 533 l 1xdc
429 744 m 1
 434 739 l 1
 434 601 l 1
 429 595 l 1
 293 587 l 1
 287 593 l 1
 285 730 l 1
 290 736 l 1
 429 744 l 1
207 743 m 1
 212 737 l 1
 212 602 l 1
 206 596 l 1
 69 588 l 1
 64 594 l 1
 61 730 l 1
 66 736 l 1
 207 743 l 1
EndSplineSet
Validated: 1
EndChar

StartChar: zcaron
Encoding: 382 382 228
Width: 479
Flags: MW
HStem: 0 115.5 415 116 593 178<154 422 308 336>
VStem: 19 437
LayerCount: 2
Fore
SplineSet
444 4 m 1
 436 0 l 1
 23 0 l 1
 19 7 l 1
 153 269 168 299 223 416 c 1
 45 414 l 1
 40 420 l 1
 50 524 l 1
 55 531 l 1
 451 531 l 1
 456 522 l 1
 426 461 388 386 353 319 c 0
 303 219 286 182 255 112 c 1
 448 119 l 1
 454 114 l 1
 444 4 l 1
154 593 m 1
 149 598 l 1
 115 675 108 690 72 763 c 1
 75 769 l 1
 210 773 l 1
 215 768 l 1
 258 663 l 1
 302 766 l 1
 308 771 l 1
 422 771 l 1
 425 766 l 1
 377 675 368 655 343 598 c 1
 336 593 l 1
 154 593 l 1
EndSplineSet
Validated: 1
EndChar

StartChar: Euro
Encoding: 8364 8364 229
Width: 583
Flags: MW
HStem: -13 113<383.5 451.5> 213 94<285 300.5 276 394 285 285> 372 7 372 94<277 321 291 321 291 438> 577 114<387 457 335.5 459.5>
VStem: 104 171<332.5 345 332 346>
LayerCount: 2
Fore
SplineSet
394 213 m 2xdc
 285 213 l 1
 302 142 344 100 423 100 c 0
 508 100 542 138 565 156 c 1
 575 152 l 1
 568 28 l 1
 563 22 l 1
 545 12 487 -13 416 -13 c 0
 238 -13 149 82 115 213 c 1
 82 213 l 2
 44 213 44 213 19 212 c 1
 13 220 l 1
 20 243 27 276 33 304 c 1
 39 310 l 1
 63 310 82 309 106 309 c 1
 105 321 104 326 104 339 c 0
 104 353 105 358 106 372 c 1
 85 372 l 2
 47 372 45 372 20 371 c 1
 14 379 l 1
 22 402 29 436 34 463 c 1
 40 469 l 1xec
 70 469 90 468 120 467 c 1
 155 589 249 691 422 691 c 0
 492 691 552 666 571 654 c 1
 575 649 l 1
 543 531 l 1
 531 529 l 1
 518 548 494 577 425 577 c 0
 349 577 308 529 291 466 c 1
 351 466 413 466 454 468 c 2
 454 468 498 469 514 470 c 1
 520 464 l 1
 513 435 506 416 497 377 c 1
 491 371 l 1
 465 372 462 372 438 372 c 2
 277 372 l 1
 276 357 275 351 275 339 c 0
 275 325 275 320 276 307 c 1
 325 307 369 307 410 309 c 2
 410 309 455 310 471 311 c 1
 477 305 l 1
 469 281 461 251 453 218 c 1
 447 212 l 1
 421 213 418 213 394 213 c 2xdc
EndSplineSet
Validated: 1
EndChar

StartChar: Omega
Encoding: 8486 8486 230
Width: 1000
VWidth: 0
Flags: H
LayerCount: 2
Fore
SplineSet
104.640625 165.114257812 m 5
 124.875 165.114257812 l 5
 126.333007812 139.228515625 133.989257812 121.181640625 147.84375 110.973632812 c 4
 161.698242188 100.765625 183.754882812 95.6611328125 214.015625 95.6611328125 c 6
 363.3125 95.6611328125 l 5
 362.21875 132.301757812 l 5
 304.25 143.96875 251.385742188 176.234375 203.625 229.098632812 c 4
 155.864257812 281.962890625 131.984375 348.681640625 131.984375 429.254882812 c 4
 131.984375 518.576171875 165.161132812 594.775390625 231.515625 657.848632812 c 4
 298.234375 720.919921875 385.1875 752.458007812 492.375 752.458007812 c 4
 596.28125 752.458007812 681.227539062 722.560546875 747.21875 662.770507812 c 4
 813.208007812 603.341796875 846.203125 527.145507812 846.203125 434.176757812 c 4
 846.203125 358.708007812 825.602539062 294.541015625 784.40625 241.676757812 c 4
 743.571289062 189.176757812 688.15625 152.71875 618.15625 132.301757812 c 5
 612.6875 95.6611328125 l 5
 764.71875 95.6611328125 l 6
 799.352539062 95.6611328125 822.140625 102.223632812 833.078125 115.348632812 c 4
 844.379882812 128.473632812 850.395507812 145.0625 851.125 165.114257812 c 5
 871.359375 165.114257812 l 5
 871.359375 -6.0576171875 l 5
 565.109375 -6.0576171875 l 5
 579.328125 159.098632812 l 5
 673.390625 188.629882812 720.421875 275.583007812 720.421875 419.958007812 c 4
 720.421875 514.384765625 697.270507812 586.754882812 650.96875 637.067382812 c 4
 605.03125 687.379882812 551.071289062 712.536132812 489.09375 712.536132812 c 4
 423.104492188 712.536132812 368.416992188 685.739257812 325.03125 632.145507812 c 4
 282.010742188 578.916015625 260.5 510.739257812 260.5 427.614257812 c 4
 260.5 367.458007812 270.161132812 312.587890625 289.484375 263.004882812 c 4
 308.807617188 213.786132812 345.8125 179.150390625 400.5 159.098632812 c 5
 410.890625 -6.0576171875 l 5
 104.640625 -6.0576171875 l 5
 104.640625 165.114257812 l 1029
EndSplineSet
Validated: 524291
EndChar
